<?xml version="1.0" encoding="UTF-8"?>
<svg xmlns="http://www.w3.org/2000/svg" xmlns:xlink="http://www.w3.org/1999/xlink" version="1.2" >
<font id="Univers LT Std 53 Extended">
<font-face  font-family="Univers LT Std" units-per-em="1000" ascent="724" descent="-276" font-style="normal" font-weight="400" font-stretch="expanded" cap-height="724" x-height="498" underline-position="-75" underline-thickness="50" />
<missing-glyph  horiz-adv-x="500" d="M0 0 L500 0 L500 700 L0 700 L0 0 Z M250 395 L80 650 L420 650 L250 395 Z M280 350 L450 605 L450 95 L280 350 Z M80 50 L250 305 L420 50 L80 50 Z M50 605 L220 350 L50 95 L50 605 Z " />
<glyph glyph-name="NULL" d="" />
<glyph glyph-name="CR" unicode="&#xd;" horiz-adv-x="250" d="" />
<glyph glyph-name="space" unicode="&#x20;" horiz-adv-x="370" d="" />
<glyph glyph-name="exclam" unicode="&#x21;" horiz-adv-x="518" d="M218 176 L300 176 L317 722 L201 722 L218 176 Z M204 0 L314 0 L314 110 L204 110 L204 0 Z " />
<glyph glyph-name="quotedbl" unicode="&#x22;" horiz-adv-x="593" d="M350 508 L438 508 L438 722 L350 722 L350 508 Z M155 508 L243 508 L243 722 L155 722 L155 508 Z " />
<glyph glyph-name="numbersign" unicode="&#x23;" horiz-adv-x="740" d="M324 412 L434 412 L416 280 L306 280 L324 412 Z M224 280 L122 280 L122 206 L213 206 L184 0 L266 0 L295 206 L405 206 L376 0 L458 0 L487 206 L589 206 L589 280 L498 280 L516 412 L618 412 L618 486 L527 486 L556 692 L474 692 L445 486 L335 486 L364 692 L282 692 L253 486 L151 486 L151 412 L242 412 L224 280 Z " />
<glyph glyph-name="dollar" unicode="&#x24;" horiz-adv-x="740" d="M353 420 L270 434 C181 449 157 489 157 528 C157 608 244 659 347 659 L353 659 L353 420 Z M411 314 C518 300 606 281 606 201 C606 129 537 72 411 63 L411 314 Z M353 -90 L411 -90 L411 -19 C599 -8 710 78 710 212 C710 301 656 368 539 388 L411 410 L411 656 C499 647 569 612 577 530 L687 530 C678 680 547 733 411 741 L411 812 L353 812 L353 741 C164 737 53 657 53 522 C53 362 207 337 353 320 L353 63 C227 68 143 124 140 216 L30 216 C43 61 156 -16 353 -19 L353 -90 Z " />
<glyph glyph-name="percent" unicode="&#x25;" horiz-adv-x="1110" d="M106 523 C106 409 168 335 283 335 C398 335 460 409 460 523 C460 637 398 711 283 711 C168 711 106 637 106 523 L106 523 Z M180 523 C180 615 227 653 283 653 C340 653 386 615 386 523 C386 431 340 393 283 393 C227 393 180 431 180 523 L180 523 Z M650 169 C650 55 712 -19 827 -19 C942 -19 1004 55 1004 169 C1004 283 942 357 827 357 C712 357 650 283 650 169 L650 169 Z M724 169 C724 261 771 299 827 299 C884 299 930 261 930 169 C930 77 884 39 827 39 C771 39 724 77 724 169 L724 169 Z M789 721 L245 -29 L327 -29 L871 721 L789 721 Z " />
<glyph glyph-name="ampersand" unicode="&#x26;" horiz-adv-x="962" d="M942 0 L740 163 C818 259 843 346 855 458 L757 458 C750 375 723 293 669 221 L446 401 C538 445 584 506 584 583 C584 661 519 741 390 741 C255 741 190 661 190 578 C190 520 221 469 289 421 C127 365 75 291 75 197 C75 67 198 -19 378 -19 C513 -19 606 31 675 94 L787 0 L942 0 Z M610 150 C560 104 484 55 378 55 C256 55 179 118 179 201 C179 266 237 323 358 363 L610 150 Z M496 578 C496 530 455 483 382 453 C331 488 288 530 288 578 C288 639 342 673 392 673 C442 673 496 639 496 578 L496 578 Z " />
<glyph glyph-name="quotesingle" unicode="&#x27;" horiz-adv-x="370" d="M141 508 L229 508 L229 722 L141 722 L141 508 Z " />
<glyph glyph-name="parenleft" unicode="&#x28;" horiz-adv-x="370" d="M313 -137 C209 33 175 193 175 302 C175 411 209 571 313 741 L231 741 C124 573 77 417 77 302 C77 187 124 31 231 -137 L313 -137 Z " />
<glyph glyph-name="parenright" unicode="&#x29;" horiz-adv-x="370" d="M139 -137 C246 31 293 187 293 302 C293 417 246 573 139 741 L57 741 C161 571 195 411 195 302 C195 193 161 33 57 -137 L139 -137 Z " />
<glyph glyph-name="asterisk" unicode="&#x2a;" horiz-adv-x="592" d="M236 368 L296 508 L356 368 L419 406 L326 528 L477 508 L477 582 L326 562 L420 684 L351 722 L296 582 L241 722 L172 684 L266 562 L115 582 L115 508 L266 528 L173 406 L236 368 Z " />
<glyph glyph-name="plus" unicode="&#x2b;" horiz-adv-x="600" d="M256 297 L47 297 L47 209 L256 209 L256 0 L344 0 L344 209 L553 209 L553 297 L344 297 L344 506 L256 506 L256 297 Z " />
<glyph glyph-name="comma" unicode="&#x2c;" horiz-adv-x="370" d="M94 -104 L176 -104 L276 110 L158 110 L94 -104 Z " />
<glyph glyph-name="hyphen" unicode="&#x2d;" horiz-adv-x="444" d="M54 223 L390 223 L390 311 L54 311 L54 223 Z " />
<glyph glyph-name="period" unicode="&#x2e;" horiz-adv-x="370" d="M130 0 L240 0 L240 110 L130 110 L130 0 Z " />
<glyph glyph-name="slash" unicode="&#x2f;" horiz-adv-x="444" d="M11 -19 L109 -19 L433 741 L335 741 L11 -19 Z " />
<glyph glyph-name="zero" unicode="0" horiz-adv-x="740" d="M52 346 C52 99 169 -19 370 -19 C571 -19 688 99 688 346 C688 593 571 711 370 711 C169 711 52 593 52 346 L52 346 Z M156 346 C156 518 222 629 370 629 C518 629 584 518 584 346 C584 174 518 63 370 63 C222 63 156 174 156 346 L156 346 Z " />
<glyph glyph-name="one" unicode="1" horiz-adv-x="740" d="M361 0 L465 0 L465 692 L370 692 C313 637 234 592 157 563 L157 470 C239 498 303 531 361 586 L361 0 Z " />
<glyph glyph-name="two" unicode="2" horiz-adv-x="740" d="M72 0 L668 0 L668 82 L216 82 L216 84 C516 248 645 383 645 505 C645 614 560 711 368 711 C210 711 92 629 87 490 L197 490 C197 574 263 629 374 629 C469 629 541 577 541 491 C541 391 391 273 72 92 L72 0 Z " />
<glyph glyph-name="three" unicode="3" horiz-adv-x="740" d="M280 316 L328 316 C481 316 560 275 560 191 C560 105 467 63 348 63 C248 63 164 101 162 183 L58 183 C62 57 157 -19 342 -19 C549 -19 664 54 664 187 C664 271 614 336 500 356 L500 358 C598 376 641 447 641 517 C641 634 544 711 343 711 C200 711 78 637 77 521 L181 521 C182 598 267 629 365 629 C469 629 543 582 543 511 C543 447 489 398 326 398 L280 398 L280 316 Z " />
<glyph glyph-name="four" unicode="4" horiz-adv-x="740" d="M456 0 L554 0 L554 164 L708 164 L708 246 L554 246 L554 692 L430 692 L32 276 L32 164 L456 164 L456 0 Z M120 246 L120 249 L456 604 L456 246 L120 246 Z " />
<glyph glyph-name="five" unicode="5" horiz-adv-x="740" d="M95 285 L196 285 C220 355 293 387 369 387 C466 387 572 339 572 228 C572 120 474 63 362 63 C273 63 194 99 190 186 L80 186 C80 28 241 -19 372 -19 C529 -19 676 54 676 232 C676 400 524 469 403 469 C321 469 259 451 196 392 L208 610 L635 610 L635 692 L113 692 L95 285 Z " />
<glyph glyph-name="six" unicode="6" horiz-adv-x="740" d="M664 512 C657 638 556 711 393 711 C164 711 62 580 62 332 C62 124 150 -19 379 -19 C559 -19 678 70 678 226 C678 376 550 462 393 462 C315 462 236 442 166 368 C169 548 262 629 383 629 C487 629 547 594 560 512 L664 512 Z M180 221 C180 319 265 380 377 380 C489 380 574 319 574 221 C574 125 489 63 377 63 C265 63 180 125 180 221 L180 221 Z " />
<glyph glyph-name="seven" unicode="7" horiz-adv-x="740" d="M67 604 L534 604 L197 0 L319 0 L644 604 L644 692 L67 692 L67 604 Z " />
<glyph glyph-name="eight" unicode="8" horiz-adv-x="740" d="M370 -19 C542 -19 682 48 682 185 C682 270 613 347 495 359 L495 361 C588 377 657 443 657 523 C657 644 552 711 370 711 C184 711 79 644 79 523 C79 451 138 379 238 361 L238 359 C127 347 58 270 58 185 C58 48 198 -19 370 -19 L370 -19 Z M162 189 C162 259 239 316 370 316 C495 316 572 259 572 189 C572 118 495 63 370 63 C239 63 162 118 162 189 L162 189 Z M183 514 C183 594 261 629 370 629 C475 629 553 594 553 514 C553 448 472 398 370 398 C265 398 183 448 183 514 L183 514 Z " />
<glyph glyph-name="nine" unicode="9" horiz-adv-x="740" d="M361 325 C227 325 167 408 167 477 C167 545 227 629 361 629 C497 629 557 545 557 477 C557 408 497 325 361 325 L361 325 Z M72 185 C87 41 200 -19 349 -19 C575 -19 677 97 677 373 C677 643 535 711 357 711 C174 711 63 612 63 474 C63 320 205 243 330 243 C429 243 520 264 577 350 L579 350 C566 150 488 63 360 63 C265 63 189 100 182 185 L72 185 Z " />
<glyph glyph-name="colon" unicode="&#x3a;" horiz-adv-x="370" d="M130 392 L240 392 L240 502 L130 502 L130 392 Z M130 0 L240 0 L240 110 L130 110 L130 0 Z " />
<glyph glyph-name="semicolon" unicode="&#x3b;" horiz-adv-x="370" d="M94 -104 L176 -104 L276 110 L158 110 L94 -104 Z M158 392 L268 392 L268 502 L158 502 L158 392 Z " />
<glyph glyph-name="less" unicode="&#x3c;" horiz-adv-x="600" d="M47 216 L553 -8 L553 80 L160 253 L553 426 L553 514 L47 290 L47 216 Z " />
<glyph glyph-name="equal" unicode="&#x3d;" horiz-adv-x="600" d="M47 314 L553 314 L553 402 L47 402 L47 314 Z M47 104 L553 104 L553 192 L47 192 L47 104 Z " />
<glyph glyph-name="greater" unicode="&#x3e;" horiz-adv-x="600" d="M47 -8 L553 216 L553 290 L47 514 L47 426 L440 253 L47 80 L47 -8 Z " />
<glyph glyph-name="question" unicode="&#x3f;" horiz-adv-x="593" d="M216 169 L298 169 L298 243 C298 266 303 283 324 299 L413 370 C505 444 532 494 532 555 C532 703 399 741 281 741 C222 741 153 731 93 722 L93 640 C142 655 202 667 259 667 C367 667 428 628 428 553 C428 515 413 474 375 442 L263 347 C231 319 216 292 216 258 L216 169 Z M202 0 L312 0 L312 110 L202 110 L202 0 Z " />
<glyph glyph-name="at" unicode="&#x40;" horiz-adv-x="800" d="M497 394 C497 326 441 236 366 236 C318 236 286 274 286 329 C286 383 323 475 419 475 C461 475 497 439 497 394 L497 394 Z M664 150 C606 91 518 55 427 55 C230 55 108 180 108 359 C108 530 240 667 417 667 C577 667 706 575 706 412 C706 306 637 230 571 230 C547 230 542 243 542 254 C542 263 545 280 548 293 L616 543 L542 543 L526 489 C500 537 458 557 412 557 C285 557 198 433 198 315 C198 218 263 154 333 154 C388 154 427 176 455 209 L457 209 C460 172 485 154 517 154 C605 154 780 229 780 429 C780 615 609 741 424 741 C190 741 20 582 20 352 C20 132 181 -19 419 -19 C558 -19 673 42 746 150 L664 150 Z " />
<glyph glyph-name="A" unicode="A" horiz-adv-x="888" d="M757 0 L876 0 L505 722 L383 722 L12 0 L128 0 L221 188 L664 188 L757 0 Z M263 270 L444 634 L624 270 L263 270 Z " />
<glyph glyph-name="B" unicode="B" horiz-adv-x="814" d="M96 0 L462 0 C658 0 737 93 737 201 C737 287 682 363 566 377 L566 380 C659 398 710 448 710 540 C710 663 634 722 437 722 L96 722 L96 0 Z M200 336 L443 336 C570 336 627 290 627 207 C627 137 590 82 449 82 L200 82 L200 336 Z M200 640 L431 640 C573 640 606 595 606 528 C606 451 553 418 466 418 L200 418 L200 640 Z " />
<glyph glyph-name="C" unicode="C" horiz-adv-x="888" d="M705 201 C687 107 591 63 492 63 C327 63 204 158 204 361 C204 564 327 659 492 659 C592 659 677 626 695 532 L811 532 C802 655 671 741 500 741 C197 741 94 533 94 361 C94 162 213 -19 471 -19 C648 -19 798 42 821 201 L705 201 Z " />
<glyph glyph-name="D" unicode="D" horiz-adv-x="888" d="M206 640 L377 640 C619 640 703 548 703 361 C703 220 640 82 402 82 L206 82 L206 640 Z M102 0 L398 0 C678 0 813 130 813 352 C813 588 704 722 383 722 L102 722 L102 0 Z " />
<glyph glyph-name="E" unicode="E" horiz-adv-x="740" d="M108 0 L660 0 L660 82 L212 82 L212 330 L620 330 L620 412 L212 412 L212 640 L648 640 L648 722 L108 722 L108 0 Z " />
<glyph glyph-name="F" unicode="F" horiz-adv-x="667" d="M96 0 L200 0 L200 322 L589 322 L589 404 L200 404 L200 640 L609 640 L609 722 L96 722 L96 0 Z " />
<glyph glyph-name="G" unicode="G" horiz-adv-x="962" d="M523 295 L754 295 L754 109 C684 81 593 63 514 63 C304 63 194 203 194 362 C194 526 303 659 506 659 C623 659 716 627 741 535 L851 535 C827 682 699 741 496 741 C197 741 84 542 84 361 C84 158 217 -19 510 -19 C623 -19 737 1 858 51 L858 377 L523 377 L523 295 Z " />
<glyph glyph-name="H" unicode="H" horiz-adv-x="888" d="M676 0 L780 0 L780 722 L676 722 L676 418 L212 418 L212 722 L108 722 L108 0 L212 0 L212 336 L676 336 L676 0 Z " />
<glyph glyph-name="I" unicode="I" horiz-adv-x="296" d="M96 0 L200 0 L200 722 L96 722 L96 0 Z " />
<glyph glyph-name="J" unicode="J" horiz-adv-x="740" d="M528 272 C528 124 452 63 331 63 C233 63 157 102 154 205 L44 205 C47 52 175 -19 322 -19 C510 -19 632 58 632 264 L632 722 L528 722 L528 272 Z " />
<glyph glyph-name="K" unicode="K" horiz-adv-x="814" d="M121 0 L225 0 L225 387 L647 0 L799 0 L355 396 L765 722 L613 722 L225 399 L225 722 L121 722 L121 0 Z " />
<glyph glyph-name="L" unicode="L" horiz-adv-x="667" d="M121 0 L641 0 L641 82 L225 82 L225 722 L121 722 L121 0 Z " />
<glyph glyph-name="M" unicode="M" horiz-adv-x="1184" d="M537 0 L647 0 L970 648 L972 648 L972 0 L1076 0 L1076 722 L910 722 L592 88 L274 722 L108 722 L108 0 L212 0 L212 648 L214 648 L537 0 Z " />
<glyph glyph-name="N" unicode="N" horiz-adv-x="888" d="M685 106 L683 106 L241 722 L99 722 L99 0 L203 0 L203 616 L205 616 L647 0 L789 0 L789 722 L685 722 L685 106 Z " />
<glyph glyph-name="O" unicode="O" horiz-adv-x="962" d="M75 361 C75 189 178 -19 481 -19 C784 -19 887 189 887 361 C887 533 784 741 481 741 C178 741 75 533 75 361 L75 361 Z M185 361 C185 539 306 659 481 659 C656 659 777 539 777 361 C777 183 656 63 481 63 C306 63 185 183 185 361 L185 361 Z " />
<glyph glyph-name="P" unicode="P" horiz-adv-x="814" d="M225 399 L225 640 L451 640 C588 640 633 605 633 527 C633 441 579 399 459 399 L225 399 Z M121 0 L225 0 L225 317 L485 317 C660 317 743 401 743 527 C743 657 670 722 453 722 L121 722 L121 0 Z " />
<glyph glyph-name="Q" unicode="Q" horiz-adv-x="962" d="M754 82 L754 84 C844 156 887 264 887 361 C887 533 784 741 481 741 C178 741 75 533 75 361 C75 189 178 -19 481 -19 C508 -19 534 -17 558 -14 C582 -11 604 -6 625 0 L954 0 L954 82 L754 82 Z M185 361 C185 539 306 659 481 659 C656 659 777 539 777 361 C777 183 656 63 481 63 C306 63 185 183 185 361 L185 361 Z " />
<glyph glyph-name="R" unicode="R" horiz-adv-x="814" d="M200 322 L401 322 C537 322 571 285 583 233 C602 152 613 51 632 0 L742 0 C722 47 713 111 701 188 C682 310 656 349 559 361 L559 363 C660 377 724 443 724 531 C724 647 674 722 451 722 L96 722 L96 0 L200 0 L200 322 Z M200 640 L439 640 C566 640 614 610 614 522 C614 430 547 404 437 404 L200 404 L200 640 Z " />
<glyph glyph-name="S" unicode="S" horiz-adv-x="814" d="M724 530 C714 696 555 741 405 741 C208 741 90 661 90 522 C90 220 643 401 643 201 C643 122 560 63 410 63 C273 63 180 119 177 216 L67 216 C80 57 199 -19 404 -19 C618 -19 747 68 747 212 C747 301 693 368 576 388 L307 434 C218 449 194 489 194 528 C194 608 281 659 384 659 C501 659 604 631 614 530 L724 530 Z " />
<glyph glyph-name="T" unicode="T" horiz-adv-x="740" d="M318 0 L422 0 L422 634 L728 634 L728 722 L12 722 L12 634 L318 634 L318 0 Z " />
<glyph glyph-name="U" unicode="U" horiz-adv-x="888" d="M676 286 C676 148 593 63 444 63 C295 63 212 148 212 286 L212 722 L108 722 L108 291 C108 85 248 -19 444 -19 C640 -19 780 85 780 291 L780 722 L676 722 L676 286 Z " />
<glyph glyph-name="V" unicode="V" horiz-adv-x="814" d="M343 0 L470 0 L802 722 L692 722 L410 88 L127 722 L12 722 L343 0 Z " />
<glyph glyph-name="W" unicode="W" horiz-adv-x="1258" d="M923 88 L921 88 L699 722 L559 722 L337 88 L335 88 L122 722 L12 722 L263 0 L407 0 L628 634 L630 634 L851 0 L995 0 L1246 722 L1136 722 L923 88 Z " />
<glyph glyph-name="X" unicode="X" horiz-adv-x="814" d="M662 0 L802 0 L478 375 L783 722 L655 722 L414 436 L184 722 L44 722 L341 375 L12 0 L152 0 L408 311 L662 0 Z " />
<glyph glyph-name="Y" unicode="Y" horiz-adv-x="814" d="M459 0 L459 301 L802 722 L668 722 L407 387 L146 722 L12 722 L355 301 L355 0 L459 0 Z " />
<glyph glyph-name="Z" unicode="Z" horiz-adv-x="740" d="M36 0 L704 0 L704 82 L164 82 L688 612 L688 722 L58 722 L58 640 L578 640 L36 94 L36 0 Z " />
<glyph glyph-name="bracketleft" unicode="&#x5b;" horiz-adv-x="370" d="M116 -137 L324 -137 L324 -79 L204 -79 L204 683 L324 683 L324 741 L116 741 L116 -137 Z " />
<glyph glyph-name="backslash" unicode="&#x5c;" horiz-adv-x="444" d="M335 -19 L433 -19 L109 741 L11 741 L335 -19 Z " />
<glyph glyph-name="bracketright" unicode="&#x5d;" horiz-adv-x="370" d="M46 -137 L254 -137 L254 741 L46 741 L46 683 L166 683 L166 -79 L46 -79 L46 -137 Z " />
<glyph glyph-name="asciicircum" unicode="&#x5e;" horiz-adv-x="600" d="M148 288 L300 604 L452 288 L540 288 L341 692 L259 692 L60 288 L148 288 Z " />
<glyph glyph-name="underscore" unicode="&#x5f;" horiz-adv-x="500" d="M0 -125 L500 -125 L500 -75 L0 -75 L0 -125 Z " />
<glyph glyph-name="grave" unicode="&#x60;" horiz-adv-x="296" d="M156 582 L238 582 L124 722 L2 722 L156 582 Z " />
<glyph glyph-name="a" unicode="a" horiz-adv-x="666" d="M196 371 C201 426 259 453 328 453 C425 453 485 423 485 327 L485 313 C439 313 388 313 314 311 C136 306 56 251 56 145 C56 51 143 -19 270 -19 C368 -19 432 -5 489 70 L491 70 C491 47 492 23 495 0 L587 0 C584 27 583 58 583 96 L583 343 C583 468 481 521 342 521 C233 521 104 490 92 371 L196 371 Z M485 222 C485 101 417 49 296 49 C201 49 160 98 160 148 C160 221 227 238 329 242 C404 245 452 245 485 245 L485 222 Z " />
<glyph glyph-name="b" unicode="b" horiz-adv-x="740" d="M86 118 C86 84 84 41 82 0 L180 0 C182 21 184 47 184 71 C235 13 315 -19 404 -19 C554 -19 684 88 684 251 C684 414 554 521 404 521 C324 521 246 502 184 436 L184 722 L86 722 L86 118 Z M184 251 C184 378 266 453 382 453 C499 453 580 378 580 251 C580 124 499 49 382 49 C266 49 184 124 184 251 L184 251 Z " />
<glyph glyph-name="c" unicode="c" horiz-adv-x="666" d="M506 162 C501 92 439 49 347 49 C223 49 160 143 160 250 C160 384 246 453 352 453 C434 453 493 415 502 342 L606 342 C589 473 472 521 351 521 C170 521 56 419 56 250 C56 88 155 -19 342 -19 C470 -19 600 35 610 162 L506 162 Z " />
<glyph glyph-name="d" unicode="d" horiz-adv-x="740" d="M556 436 C494 502 416 521 336 521 C186 521 56 414 56 251 C56 88 186 -19 336 -19 C425 -19 505 13 556 71 C556 44 558 21 560 0 L658 0 C656 41 654 84 654 118 L654 722 L556 722 L556 436 Z M160 251 C160 378 241 453 358 453 C474 453 556 378 556 251 C556 124 474 49 358 49 C241 49 160 124 160 251 L160 251 Z " />
<glyph glyph-name="e" unicode="e" horiz-adv-x="666" d="M151 293 C166 404 238 453 339 453 C425 453 511 409 513 293 L151 293 Z M617 255 C617 425 519 521 341 521 C159 521 49 424 49 241 C49 82 154 -19 338 -19 C449 -19 585 17 605 151 L501 151 C479 79 404 49 333 49 C223 49 157 122 147 225 L617 225 L617 255 Z " />
<glyph glyph-name="f" unicode="f" horiz-adv-x="444" d="M258 0 L258 434 L419 434 L419 502 L258 502 L258 547 C258 631 293 660 367 660 C391 660 415 657 432 654 L432 722 C403 726 369 728 341 728 C200 728 160 652 160 532 L160 502 L29 502 L29 434 L160 434 L160 0 L258 0 Z " />
<glyph glyph-name="g" unicode="g" horiz-adv-x="740" d="M74 -35 C80 -149 153 -206 344 -206 C551 -206 651 -133 651 70 L651 405 C651 444 653 473 655 502 L563 502 C560 479 559 457 559 434 C499 495 432 521 344 521 C175 521 56 419 56 265 C56 111 175 9 344 9 C425 9 503 37 551 97 L553 97 L553 62 C553 -54 514 -138 337 -138 C226 -138 181 -90 178 -35 L74 -35 Z M160 267 C160 377 227 453 355 453 C487 453 553 377 553 267 C553 153 487 77 355 77 C227 77 160 153 160 267 L160 267 Z " />
<glyph glyph-name="h" unicode="h" horiz-adv-x="740" d="M92 0 L190 0 L190 237 C190 396 296 453 389 453 C483 453 550 392 550 280 L550 0 L648 0 L648 285 C648 442 546 521 405 521 C316 521 238 489 192 414 L190 414 L190 722 L92 722 L92 0 Z " />
<glyph glyph-name="i" unicode="i" horiz-adv-x="296" d="M99 0 L197 0 L197 502 L99 502 L99 0 Z M99 622 L197 622 L197 722 L99 722 L99 622 Z " />
<glyph glyph-name="j" unicode="j" horiz-adv-x="296" d="M99 -11 C99 -106 77 -124 15 -124 C0 -124 -17 -124 -34 -122 L-34 -194 C-20 -197 -2 -198 35 -198 C153 -198 197 -151 197 -47 L197 502 L99 502 L99 -11 Z M99 622 L197 622 L197 722 L99 722 L99 622 Z " />
<glyph glyph-name="k" unicode="k" horiz-adv-x="666" d="M99 0 L197 0 L197 278 L507 0 L653 0 L326 285 L605 502 L465 502 L197 296 L197 722 L99 722 L99 0 Z " />
<glyph glyph-name="l" unicode="l" horiz-adv-x="296" d="M99 0 L197 0 L197 722 L99 722 L99 0 Z " />
<glyph glyph-name="m" unicode="m" horiz-adv-x="1110" d="M92 0 L190 0 L190 243 C190 391 284 453 370 453 C460 453 506 392 506 257 L506 0 L604 0 L604 229 C604 394 692 453 778 453 C885 453 920 373 920 251 L920 0 L1018 0 L1018 288 C1018 451 930 521 787 521 C694 521 616 464 580 395 C551 480 481 521 397 521 C315 521 243 490 186 413 L184 413 C184 448 182 477 180 502 L88 502 C90 462 92 426 92 388 L92 0 Z " />
<glyph glyph-name="n" unicode="n" horiz-adv-x="740" d="M92 0 L190 0 L190 237 C190 396 296 453 389 453 C483 453 550 392 550 280 L550 0 L648 0 L648 285 C648 442 546 521 405 521 C315 521 243 490 186 413 L184 413 C184 448 182 477 180 502 L88 502 C90 462 92 426 92 388 L92 0 Z " />
<glyph glyph-name="o" unicode="o" horiz-adv-x="740" d="M684 251 C684 423 574 521 370 521 C160 521 56 414 56 251 C56 79 166 -19 370 -19 C574 -19 684 79 684 251 L684 251 Z M370 453 C507 453 580 365 580 251 C580 137 507 49 370 49 C233 49 160 137 160 251 C160 365 233 453 370 453 L370 453 Z " />
<glyph glyph-name="p" unicode="p" horiz-adv-x="740" d="M86 -192 L184 -192 L184 66 C246 0 324 -19 404 -19 C554 -19 684 88 684 251 C684 414 554 521 404 521 C315 521 235 489 184 431 C184 460 182 483 180 502 L82 502 C84 462 86 426 86 388 L86 -192 Z M184 251 C184 378 266 453 382 453 C499 453 580 378 580 251 C580 124 499 49 382 49 C266 49 184 124 184 251 L184 251 Z " />
<glyph glyph-name="q" unicode="q" horiz-adv-x="740" d="M556 -192 L654 -192 L654 394 C654 433 656 466 658 502 L560 502 C558 478 556 455 556 431 C505 489 425 521 336 521 C186 521 56 414 56 251 C56 88 186 -19 336 -19 C416 -19 494 0 556 66 L556 -192 Z M160 251 C160 378 241 453 358 453 C474 453 556 378 556 251 C556 124 474 49 358 49 C241 49 160 124 160 251 L160 251 Z " />
<glyph glyph-name="r" unicode="r" horiz-adv-x="444" d="M92 0 L190 0 L190 243 C190 344 255 427 373 427 C391 427 405 426 420 421 L420 509 L387 509 C275 509 231 483 186 402 L184 402 C184 436 182 472 180 502 L88 502 C90 462 92 426 92 388 L92 0 Z " />
<glyph glyph-name="s" unicode="s" horiz-adv-x="666" d="M66 143 C73 26 187 -19 321 -19 C511 -19 600 36 600 143 C600 218 555 257 461 275 L295 306 C220 320 188 342 188 377 C188 423 250 453 338 453 C413 453 469 435 483 372 L578 372 C572 495 438 521 334 521 C195 521 90 475 90 364 C90 164 496 253 496 136 C496 83 442 49 332 49 C243 49 179 73 170 143 L66 143 Z " />
<glyph glyph-name="t" unicode="t" horiz-adv-x="444" d="M160 502 L29 502 L29 434 L160 434 L160 138 C160 26 216 -6 315 -6 C345 -6 377 -4 409 0 L409 68 C381 64 352 62 334 62 C273 62 258 91 258 145 L258 434 L406 434 L406 502 L258 502 L258 635 L160 594 L160 502 Z " />
<glyph glyph-name="u" unicode="u" horiz-adv-x="740" d="M648 502 L550 502 L550 265 C550 106 444 49 351 49 C257 49 190 110 190 222 L190 502 L92 502 L92 217 C92 60 194 -19 335 -19 C425 -19 497 12 554 89 L556 89 C556 54 558 25 560 0 L652 0 C650 40 648 76 648 114 L648 502 Z " />
<glyph glyph-name="v" unicode="v" horiz-adv-x="666" d="M269 0 L395 0 L654 502 L544 502 L333 88 L122 502 L12 502 L269 0 Z " />
<glyph glyph-name="w" unicode="w" horiz-adv-x="1110" d="M238 0 L358 0 L551 420 L748 0 L875 0 L1099 502 L998 502 L815 82 L619 502 L495 502 L304 88 L124 502 L11 502 L238 0 Z " />
<glyph glyph-name="x" unicode="x" horiz-adv-x="666" d="M335 317 L160 502 L26 502 L260 262 L10 0 L138 0 L326 205 L516 0 L656 0 L397 262 L636 502 L511 502 L335 317 Z " />
<glyph glyph-name="y" unicode="y" horiz-adv-x="666" d="M552 502 L340 94 L126 502 L10 502 L287 0 L183 -192 L293 -192 L656 502 L552 502 Z " />
<glyph glyph-name="z" unicode="z" horiz-adv-x="593" d="M63 428 L406 428 L48 82 L48 0 L545 0 L545 74 L176 74 L535 420 L535 502 L63 502 L63 428 Z " />
<glyph glyph-name="braceleft" unicode="&#x7b;" horiz-adv-x="370" d="M123 -13 C123 -95 188 -137 236 -137 L314 -137 L314 -79 L261 -79 C220 -79 211 -41 211 -5 L211 183 C211 269 145 297 120 301 L120 303 C145 307 211 335 211 421 L211 609 C211 645 220 683 261 683 L314 683 L314 741 L236 741 C188 741 123 699 123 617 L123 434 C123 373 77 337 38 336 L38 268 C77 267 123 231 123 170 L123 -13 Z " />
<glyph glyph-name="bar" unicode="&#x7c;" horiz-adv-x="222" d="M67 -19 L155 -19 L155 741 L67 741 L67 -19 Z " />
<glyph glyph-name="braceright" unicode="&#x7d;" horiz-adv-x="370" d="M56 683 L109 683 C150 683 159 645 159 609 L159 421 C159 335 225 307 250 303 L250 301 C225 297 159 269 159 183 L159 -5 C159 -41 150 -79 109 -79 L56 -79 L56 -137 L134 -137 C182 -137 247 -95 247 -13 L247 170 C247 231 293 267 332 268 L332 336 C293 337 247 373 247 434 L247 617 C247 699 182 741 134 741 L56 741 L56 683 Z " />
<glyph glyph-name="asciitilde" unicode="&#x7e;" horiz-adv-x="600" d="M105 174 C126 220 155 244 189 244 C234 244 268 227 301 209 C334 191 366 174 406 174 C453 174 491 201 531 263 L495 332 C462 284 436 262 407 262 C365 262 263 332 194 332 C141 332 98 304 69 243 L105 174 Z " />
<glyph glyph-name="uni00A0" unicode="&#xa0;" horiz-adv-x="370" d="" />
<glyph glyph-name="exclamdown" unicode="&#xa1;" horiz-adv-x="518" d="M201 -187 L317 -187 L300 359 L218 359 L201 -187 Z M204 425 L314 425 L314 535 L204 535 L204 425 Z " />
<glyph glyph-name="cent" unicode="&#xa2;" horiz-adv-x="740" d="M220 -95 L272 -115 L307 -13 C330 -17 353 -19 379 -19 C507 -19 637 35 647 162 L543 162 C538 92 476 49 384 49 C365 49 347 51 331 56 L464 439 C506 422 533 389 539 342 L643 342 C631 435 568 487 488 508 L519 597 L467 617 L433 518 C419 520 403 521 388 521 C207 521 93 419 93 250 C93 129 148 39 253 1 L220 -95 Z M280 79 C225 114 197 179 197 250 C197 384 283 453 389 453 C397 453 404 453 410 452 L280 79 Z " />
<glyph glyph-name="sterling" unicode="&#xa3;" horiz-adv-x="740" d="M64 344 L167 344 L167 82 L64 82 L64 0 L667 0 L667 82 L271 82 L271 344 L483 344 L483 418 L271 418 L271 496 C271 610 355 659 436 659 C524 659 583 615 588 528 L692 528 C692 677 583 741 435 741 C290 741 167 658 167 502 L167 418 L64 418 L64 344 Z " />
<glyph glyph-name="currency" unicode="&#xa4;" horiz-adv-x="740" d="M167 91 L223 147 C264 116 315 98 370 98 C425 98 476 116 517 148 L574 91 L624 142 L568 198 C599 238 618 290 618 346 C618 401 600 452 569 493 L624 549 L574 601 L518 544 C477 576 426 594 370 594 C314 594 263 575 223 545 L167 601 L116 549 L171 494 C140 452 122 401 122 346 C122 290 140 239 172 198 L116 142 L167 91 Z M370 512 C458 512 530 440 530 346 C530 252 458 180 370 180 C282 180 210 252 210 346 C210 440 282 512 370 512 L370 512 Z " />
<glyph glyph-name="yen" unicode="&#xa5;" horiz-adv-x="740" d="M318 0 L422 0 L422 159 L611 159 L611 227 L422 227 L422 329 L611 329 L611 397 L469 397 L689 722 L567 722 L370 397 L173 722 L51 722 L271 397 L129 397 L129 329 L318 329 L318 227 L129 227 L129 159 L318 159 L318 0 Z " />
<glyph glyph-name="brokenbar" unicode="&#xa6;" horiz-adv-x="222" d="M67 -19 L155 -19 L155 265 L67 265 L67 -19 Z M67 457 L155 457 L155 741 L67 741 L67 457 Z " />
<glyph glyph-name="section" unicode="&#xa7;" horiz-adv-x="592" d="M91 -1 C148 -19 242 -38 291 -38 C416 -38 513 14 513 112 C513 166 473 215 388 242 L388 244 C480 275 516 324 516 370 C516 512 201 498 201 601 C201 638 232 667 302 667 C351 667 420 653 485 623 L485 711 C418 728 353 741 299 741 C169 741 97 680 97 599 C97 551 118 515 206 478 C95 428 76 387 76 345 C76 286 112 252 275 198 C384 162 409 149 409 104 C409 64 364 36 286 36 C223 36 145 60 91 87 L91 -1 Z M340 427 C399 405 418 386 418 356 C418 332 397 301 316 269 L241 294 C195 309 174 334 174 358 C174 386 199 423 275 451 L340 427 Z " />
<glyph glyph-name="dieresis" unicode="&#xa8;" horiz-adv-x="296" d="M-4 622 L94 622 L94 722 L-4 722 L-4 622 Z M202 622 L300 622 L300 722 L202 722 L202 622 Z " />
<glyph glyph-name="copyright" unicode="&#xa9;" horiz-adv-x="800" d="M522 292 C514 239 472 208 415 208 C335 208 283 277 283 361 C283 448 330 514 412 514 C468 514 511 481 522 431 L596 431 C583 533 506 588 411 588 C276 588 195 491 195 361 C195 233 281 134 415 134 C506 134 583 193 596 292 L522 292 Z M20 361 C20 151 190 -19 400 -19 C610 -19 780 151 780 361 C780 571 610 741 400 741 C190 741 20 571 20 361 L20 361 Z M108 361 C108 528 227 659 400 659 C573 659 692 528 692 361 C692 194 573 63 400 63 C227 63 108 194 108 361 L108 361 Z " />
<glyph glyph-name="ordfeminine" unicode="&#xaa;" horiz-adv-x="434" d="M322 397 L396 397 C394 414 392 438 392 456 L392 604 C392 679 326 711 230 711 C151 711 68 692 60 616 L142 616 C146 643 183 659 223 659 C279 659 318 641 318 594 L318 590 L227 590 C88 590 38 554 38 487 C38 429 95 387 184 387 C245 387 287 395 320 440 L322 440 L322 397 Z M318 528 C318 471 277 439 201 439 C147 439 120 469 120 490 C120 528 171 538 267 538 L318 538 L318 528 Z " />
<glyph glyph-name="guillemotleft" unicode="&#xab;" horiz-adv-x="593" d="M76 267 L204 73 L292 73 L174 267 L292 461 L210 461 L76 267 Z M280 267 L408 73 L496 73 L378 267 L496 461 L414 461 L280 267 Z " />
<glyph glyph-name="logicalnot" unicode="&#xac;" horiz-adv-x="600" d="M465 107 L553 107 L553 402 L47 402 L47 314 L465 314 L465 107 Z " />
<glyph glyph-name="uni00AD" unicode="&#xad;" horiz-adv-x="444" d="M54 223 L390 223 L390 311 L54 311 L54 223 Z " />
<glyph glyph-name="registered" unicode="&#xae;" horiz-adv-x="800" d="M251 147 L333 147 L333 334 L379 334 L487 147 L581 147 L467 334 C530 341 578 373 578 449 C578 538 522 573 414 573 L251 573 L251 147 Z M333 392 L333 515 L406 515 C441 515 490 507 490 457 C490 399 449 392 405 392 L333 392 Z M20 361 C20 151 190 -19 400 -19 C610 -19 780 151 780 361 C780 571 610 741 400 741 C190 741 20 571 20 361 L20 361 Z M108 361 C108 528 227 659 400 659 C573 659 692 528 692 361 C692 194 573 63 400 63 C227 63 108 194 108 361 L108 361 Z " />
<glyph glyph-name="macron" unicode="&#xaf;" horiz-adv-x="296" d="M-25 637 L321 637 L321 705 L-25 705 L-25 637 Z " />
<glyph glyph-name="degree" unicode="&#xb0;" horiz-adv-x="400" d="M57 568 C57 489 121 425 200 425 C279 425 343 489 343 568 C343 647 279 711 200 711 C121 711 57 647 57 568 L57 568 Z M109 568 C109 618 150 659 200 659 C250 659 291 618 291 568 C291 518 250 477 200 477 C150 477 109 518 109 568 L109 568 Z " />
<glyph glyph-name="plusminus" unicode="&#xb1;" horiz-adv-x="600" d="M256 359 L47 359 L47 271 L256 271 L256 124 L344 124 L344 271 L553 271 L553 359 L344 359 L344 506 L256 506 L256 359 Z M47 0 L553 0 L553 88 L47 88 L47 0 Z " />
<glyph glyph-name="twosuperior" unicode="&#xb2;" horiz-adv-x="481" d="M40 285 L441 285 L441 353 L166 353 L166 355 C342 434 428 515 428 583 C428 652 373 711 239 711 C125 711 48 661 45 559 L133 559 C133 610 176 643 242 643 C299 643 346 612 346 575 C346 525 248 454 40 353 L40 285 Z " />
<glyph glyph-name="threesuperior" unicode="&#xb3;" horiz-adv-x="481" d="M36 414 C37 319 99 274 228 274 C370 274 445 317 445 397 C445 447 412 486 335 502 L335 504 C404 510 432 552 432 594 C432 664 369 711 229 711 C129 711 50 666 49 579 L131 579 C131 625 187 643 243 643 C302 643 350 615 350 591 C350 562 315 533 211 533 L181 533 L181 465 L212 465 C312 465 363 440 363 400 C363 364 307 342 232 342 C173 342 119 365 118 414 L36 414 Z " />
<glyph glyph-name="acute" unicode="&#xb4;" horiz-adv-x="296" d="M58 582 L140 582 L294 722 L172 722 L58 582 Z " />
<glyph glyph-name="mu" unicode="&#xb5;" horiz-adv-x="740" d="M92 -192 L190 -192 L190 31 C228 -4 290 -19 335 -19 C425 -19 497 12 554 89 L556 89 C556 54 558 25 560 0 L652 0 C650 40 648 76 648 114 L648 502 L550 502 L550 265 C550 106 444 49 351 49 C257 49 190 110 190 222 L190 502 L92 502 L92 -192 Z " />
<glyph glyph-name="paragraph" unicode="&#xb6;" horiz-adv-x="600" d="M236 -19 L324 -19 L324 648 L439 648 L439 -19 L527 -19 L527 722 L256 722 C92 722 20 678 20 571 C20 481 103 425 236 425 L236 -19 Z " />
<glyph glyph-name="periodcentered" unicode="&#xb7;" horiz-adv-x="370" d="M118 310 C118 273 148 243 185 243 C222 243 252 273 252 310 C252 347 222 377 185 377 C148 377 118 347 118 310 L118 310 Z " />
<glyph glyph-name="cedilla" unicode="&#xb8;" horiz-adv-x="296" d="M65 -81 L84 -104 C106 -98 117 -96 126 -96 C160 -96 177 -109 177 -127 C177 -149 148 -160 113 -160 C86 -160 54 -152 32 -144 L17 -185 C49 -197 95 -206 135 -206 C201 -206 265 -183 265 -127 C265 -86 225 -58 168 -58 C157 -58 141 -60 127 -65 L125 -63 L181 9 L129 9 L65 -81 Z " />
<glyph glyph-name="onesuperior" unicode="&#xb9;" horiz-adv-x="481" d="M226 285 L308 285 L308 700 L232 700 C197 676 146 649 93 632 L93 558 C149 575 191 595 226 626 L226 285 Z " />
<glyph glyph-name="ordmasculine" unicode="&#xba;" horiz-adv-x="481" d="M29 549 C29 445 101 387 241 387 C380 387 452 445 452 549 C452 652 380 711 241 711 C101 711 29 652 29 549 L29 549 Z M111 541 C111 617 166 659 241 659 C315 659 370 617 370 541 C370 484 313 439 241 439 C168 439 111 484 111 541 L111 541 Z " />
<glyph glyph-name="guillemotright" unicode="&#xbb;" horiz-adv-x="593" d="M301 73 L383 73 L517 267 L389 461 L301 461 L419 267 L301 73 Z M97 73 L179 73 L313 267 L185 461 L97 461 L215 267 L97 73 Z " />
<glyph glyph-name="onequarter" unicode="&#xbc;" horiz-adv-x="1110" d="M822 0 L904 0 L904 89 L1004 89 L1004 157 L904 157 L904 415 L801 415 L542 168 L542 89 L822 89 L822 0 Z M822 157 L616 157 L822 347 L822 157 Z M266 285 L348 285 L348 700 L272 700 C237 676 186 649 133 632 L133 558 C189 575 231 595 266 626 L266 285 Z M224 -61 L852 753 L778 753 L150 -61 L224 -61 Z " />
<glyph glyph-name="onehalf" unicode="&#xbd;" horiz-adv-x="1110" d="M266 285 L348 285 L348 700 L272 700 C237 676 186 649 133 632 L133 558 C189 575 231 595 266 626 L266 285 Z M619 0 L1020 0 L1020 68 L745 68 L745 70 C921 149 1007 230 1007 298 C1007 367 952 426 818 426 C704 426 627 376 624 274 L712 274 C712 325 755 358 821 358 C878 358 925 327 925 290 C925 240 827 169 619 68 L619 0 Z M150 -61 L224 -61 L852 753 L778 753 L150 -61 Z " />
<glyph glyph-name="threequarters" unicode="&#xbe;" horiz-adv-x="1110" d="M895 0 L977 0 L977 89 L1077 89 L1077 157 L977 157 L977 415 L874 415 L615 168 L615 89 L895 89 L895 0 Z M895 157 L689 157 L895 347 L895 157 Z M231 465 L262 465 C362 465 413 440 413 400 C413 364 357 342 282 342 C223 342 169 365 168 414 L86 414 C87 319 149 274 278 274 C420 274 495 317 495 397 C495 447 462 486 385 502 L385 504 C454 510 482 552 482 594 C482 664 419 711 279 711 C179 711 100 666 99 579 L181 579 C181 625 237 643 293 643 C352 643 400 615 400 591 C400 562 365 533 261 533 L231 533 L231 465 Z M324 -61 L952 753 L878 753 L250 -61 L324 -61 Z " />
<glyph glyph-name="questiondown" unicode="&#xbf;" horiz-adv-x="593" d="M295 292 C295 269 290 252 269 236 L180 165 C88 91 61 41 61 -20 C61 -168 194 -206 312 -206 C371 -206 440 -196 500 -187 L500 -105 C451 -120 391 -132 334 -132 C226 -132 165 -93 165 -18 C165 20 180 61 218 93 L330 188 C362 216 377 243 377 277 L377 366 L295 366 L295 292 Z M281 425 L391 425 L391 535 L281 535 L281 425 Z " />
<glyph glyph-name="Agrave" unicode="&#xc0;" horiz-adv-x="888" d="M757 0 L876 0 L505 722 L383 722 L12 0 L128 0 L221 188 L664 188 L757 0 Z M263 270 L444 634 L624 270 L263 270 Z M452 769 L534 769 L420 909 L298 909 L452 769 Z " />
<glyph glyph-name="Aacute" unicode="&#xc1;" horiz-adv-x="888" d="M757 0 L876 0 L505 722 L383 722 L12 0 L128 0 L221 188 L664 188 L757 0 Z M263 270 L444 634 L624 270 L263 270 Z M354 769 L436 769 L590 909 L468 909 L354 769 Z " />
<glyph glyph-name="Acircumflex" unicode="&#xc2;" horiz-adv-x="888" d="M757 0 L876 0 L505 722 L383 722 L12 0 L128 0 L221 188 L664 188 L757 0 Z M263 270 L444 634 L624 270 L263 270 Z M539 769 L621 769 L502 909 L386 909 L267 769 L349 769 L444 871 L539 769 Z " />
<glyph glyph-name="Atilde" unicode="&#xc3;" horiz-adv-x="888" d="M757 0 L876 0 L505 722 L383 722 L12 0 L128 0 L221 188 L664 188 L757 0 Z M263 270 L444 634 L624 270 L263 270 Z M563 909 C560 881 540 867 517 867 C492 867 402 909 354 909 C327 909 306 899 291 880 C276 861 268 833 267 793 L325 793 C326 816 341 835 362 835 C392 835 475 799 528 799 C589 799 619 835 621 909 L563 909 Z " />
<glyph glyph-name="Adieresis" unicode="&#xc4;" horiz-adv-x="888" d="M757 0 L876 0 L505 722 L383 722 L12 0 L128 0 L221 188 L664 188 L757 0 Z M263 270 L444 634 L624 270 L263 270 Z M292 809 L390 809 L390 909 L292 909 L292 809 Z M498 809 L596 809 L596 909 L498 909 L498 809 Z " />
<glyph glyph-name="Aring" unicode="&#xc5;" horiz-adv-x="888" d="M757 0 L876 0 L505 722 L383 722 L12 0 L128 0 L221 188 L664 188 L757 0 Z M263 270 L444 634 L624 270 L263 270 Z M342 843 C342 787 388 741 444 741 C500 741 546 787 546 843 C546 899 500 945 444 945 C388 945 342 899 342 843 L342 843 Z M388 843 C388 874 413 899 444 899 C475 899 500 874 500 843 C500 812 475 787 444 787 C413 787 388 812 388 843 L388 843 Z " />
<glyph glyph-name="AE" unicode="&#xc6;" horiz-adv-x="1333" d="M752 0 L1243 0 L1243 82 L843 82 L801 330 L1204 330 L1204 412 L782 412 L745 634 L1231 634 L1231 722 L563 722 L12 0 L137 0 L287 198 L719 198 L752 0 Z M701 280 L350 280 L625 640 L640 640 L701 280 Z " />
<glyph glyph-name="Ccedilla" unicode="&#xc7;" horiz-adv-x="888" d="M390 -81 L409 -104 C431 -98 442 -96 451 -96 C485 -96 502 -109 502 -127 C502 -149 473 -160 438 -160 C411 -160 379 -152 357 -144 L342 -185 C374 -197 420 -206 460 -206 C526 -206 590 -183 590 -127 C590 -86 550 -58 493 -58 C482 -58 466 -60 452 -65 L450 -63 L485 -19 C656 -16 799 46 821 201 L705 201 C687 107 591 63 492 63 C327 63 204 158 204 361 C204 564 327 659 492 659 C592 659 677 626 695 532 L811 532 C802 655 671 741 500 741 C197 741 94 533 94 361 C94 172 202 -1 435 -18 L390 -81 Z " />
<glyph glyph-name="Egrave" unicode="&#xc8;" horiz-adv-x="740" d="M108 0 L660 0 L660 82 L212 82 L212 330 L620 330 L620 412 L212 412 L212 640 L648 640 L648 722 L108 722 L108 0 Z M390 769 L472 769 L358 909 L236 909 L390 769 Z " />
<glyph glyph-name="Eacute" unicode="&#xc9;" horiz-adv-x="740" d="M108 0 L660 0 L660 82 L212 82 L212 330 L620 330 L620 412 L212 412 L212 640 L648 640 L648 722 L108 722 L108 0 Z M292 769 L374 769 L528 909 L406 909 L292 769 Z " />
<glyph glyph-name="Ecircumflex" unicode="&#xca;" horiz-adv-x="740" d="M108 0 L660 0 L660 82 L212 82 L212 330 L620 330 L620 412 L212 412 L212 640 L648 640 L648 722 L108 722 L108 0 Z M477 769 L559 769 L440 909 L324 909 L205 769 L287 769 L382 871 L477 769 Z " />
<glyph glyph-name="Edieresis" unicode="&#xcb;" horiz-adv-x="740" d="M108 0 L660 0 L660 82 L212 82 L212 330 L620 330 L620 412 L212 412 L212 640 L648 640 L648 722 L108 722 L108 0 Z M230 809 L328 809 L328 909 L230 909 L230 809 Z M436 809 L534 809 L534 909 L436 909 L436 809 Z " />
<glyph glyph-name="Igrave" unicode="&#xcc;" horiz-adv-x="296" d="M96 0 L200 0 L200 722 L96 722 L96 0 Z M156 769 L238 769 L124 909 L2 909 L156 769 Z " />
<glyph glyph-name="Iacute" unicode="&#xcd;" horiz-adv-x="296" d="M96 0 L200 0 L200 722 L96 722 L96 0 Z M58 769 L140 769 L294 909 L172 909 L58 769 Z " />
<glyph glyph-name="Icircumflex" unicode="&#xce;" horiz-adv-x="296" d="M96 0 L200 0 L200 722 L96 722 L96 0 Z M243 769 L325 769 L206 909 L90 909 L-29 769 L53 769 L148 871 L243 769 Z " />
<glyph glyph-name="Idieresis" unicode="&#xcf;" horiz-adv-x="296" d="M96 0 L200 0 L200 722 L96 722 L96 0 Z M-4 809 L94 809 L94 909 L-4 909 L-4 809 Z M202 809 L300 809 L300 909 L202 909 L202 809 Z " />
<glyph glyph-name="Eth" unicode="&#xd0;" horiz-adv-x="888" d="M102 0 L398 0 C678 0 813 130 813 352 C813 588 704 722 383 722 L102 722 L102 418 L15 418 L15 344 L102 344 L102 0 Z M377 640 C619 640 703 548 703 361 C703 220 640 82 402 82 L206 82 L206 344 L432 344 L432 418 L206 418 L206 640 L377 640 Z " />
<glyph glyph-name="Ntilde" unicode="&#xd1;" horiz-adv-x="888" d="M685 106 L683 106 L241 722 L99 722 L99 0 L203 0 L203 616 L205 616 L647 0 L789 0 L789 722 L685 722 L685 106 Z M563 909 C560 881 540 867 517 867 C492 867 402 909 354 909 C327 909 306 899 291 880 C276 861 268 833 267 793 L325 793 C326 816 341 835 362 835 C392 835 475 799 528 799 C589 799 619 835 621 909 L563 909 Z " />
<glyph glyph-name="Ograve" unicode="&#xd2;" horiz-adv-x="962" d="M75 361 C75 189 178 -19 481 -19 C784 -19 887 189 887 361 C887 533 784 741 481 741 C178 741 75 533 75 361 L75 361 Z M185 361 C185 539 306 659 481 659 C656 659 777 539 777 361 C777 183 656 63 481 63 C306 63 185 183 185 361 L185 361 Z M489 769 L571 769 L457 909 L335 909 L489 769 Z " />
<glyph glyph-name="Oacute" unicode="&#xd3;" horiz-adv-x="962" d="M75 361 C75 189 178 -19 481 -19 C784 -19 887 189 887 361 C887 533 784 741 481 741 C178 741 75 533 75 361 L75 361 Z M185 361 C185 539 306 659 481 659 C656 659 777 539 777 361 C777 183 656 63 481 63 C306 63 185 183 185 361 L185 361 Z M391 769 L473 769 L627 909 L505 909 L391 769 Z " />
<glyph glyph-name="Ocircumflex" unicode="&#xd4;" horiz-adv-x="962" d="M75 361 C75 189 178 -19 481 -19 C784 -19 887 189 887 361 C887 533 784 741 481 741 C178 741 75 533 75 361 L75 361 Z M185 361 C185 539 306 659 481 659 C656 659 777 539 777 361 C777 183 656 63 481 63 C306 63 185 183 185 361 L185 361 Z M576 769 L658 769 L539 909 L423 909 L304 769 L386 769 L481 871 L576 769 Z " />
<glyph glyph-name="Otilde" unicode="&#xd5;" horiz-adv-x="962" d="M75 361 C75 189 178 -19 481 -19 C784 -19 887 189 887 361 C887 533 784 741 481 741 C178 741 75 533 75 361 L75 361 Z M185 361 C185 539 306 659 481 659 C656 659 777 539 777 361 C777 183 656 63 481 63 C306 63 185 183 185 361 L185 361 Z M600 909 C597 881 577 867 554 867 C529 867 439 909 391 909 C364 909 343 899 328 880 C313 861 305 833 304 793 L362 793 C363 816 378 835 399 835 C429 835 512 799 565 799 C626 799 656 835 658 909 L600 909 Z " />
<glyph glyph-name="Odieresis" unicode="&#xd6;" horiz-adv-x="962" d="M75 361 C75 189 178 -19 481 -19 C784 -19 887 189 887 361 C887 533 784 741 481 741 C178 741 75 533 75 361 L75 361 Z M185 361 C185 539 306 659 481 659 C656 659 777 539 777 361 C777 183 656 63 481 63 C306 63 185 183 185 361 L185 361 Z M329 809 L427 809 L427 909 L329 909 L329 809 Z M535 809 L633 809 L633 909 L535 909 L535 809 Z " />
<glyph glyph-name="multiply" unicode="&#xd7;" horiz-adv-x="600" d="M470 21 L532 83 L362 253 L532 423 L470 485 L300 314 L130 485 L68 423 L238 253 L68 83 L130 21 L300 192 L470 21 Z " />
<glyph glyph-name="Oslash" unicode="&#xd8;" horiz-adv-x="962" d="M261 152 C213 203 185 275 185 361 C185 539 306 659 481 659 C553 659 616 639 664 603 L261 152 Z M701 570 C750 517 777 446 777 361 C777 183 656 63 481 63 C410 63 348 83 298 120 L701 570 Z M149 -46 L233 47 C294 6 375 -19 481 -19 C784 -19 887 189 887 361 C887 459 853 569 768 645 L849 736 L811 768 L728 675 C668 716 587 741 481 741 C178 741 75 533 75 361 C75 262 109 152 194 77 L113 -13 L149 -46 Z " />
<glyph glyph-name="Ugrave" unicode="&#xd9;" horiz-adv-x="888" d="M676 286 C676 148 593 63 444 63 C295 63 212 148 212 286 L212 722 L108 722 L108 291 C108 85 248 -19 444 -19 C640 -19 780 85 780 291 L780 722 L676 722 L676 286 Z M452 769 L534 769 L420 909 L298 909 L452 769 Z " />
<glyph glyph-name="Uacute" unicode="&#xda;" horiz-adv-x="888" d="M676 286 C676 148 593 63 444 63 C295 63 212 148 212 286 L212 722 L108 722 L108 291 C108 85 248 -19 444 -19 C640 -19 780 85 780 291 L780 722 L676 722 L676 286 Z M354 769 L436 769 L590 909 L468 909 L354 769 Z " />
<glyph glyph-name="Ucircumflex" unicode="&#xdb;" horiz-adv-x="888" d="M676 286 C676 148 593 63 444 63 C295 63 212 148 212 286 L212 722 L108 722 L108 291 C108 85 248 -19 444 -19 C640 -19 780 85 780 291 L780 722 L676 722 L676 286 Z M539 769 L621 769 L502 909 L386 909 L267 769 L349 769 L444 871 L539 769 Z " />
<glyph glyph-name="Udieresis" unicode="&#xdc;" horiz-adv-x="888" d="M676 286 C676 148 593 63 444 63 C295 63 212 148 212 286 L212 722 L108 722 L108 291 C108 85 248 -19 444 -19 C640 -19 780 85 780 291 L780 722 L676 722 L676 286 Z M292 809 L390 809 L390 909 L292 909 L292 809 Z M498 809 L596 809 L596 909 L498 909 L498 809 Z " />
<glyph glyph-name="Yacute" unicode="&#xdd;" horiz-adv-x="814" d="M459 0 L459 301 L802 722 L668 722 L407 387 L146 722 L12 722 L355 301 L355 0 L459 0 Z M350 769 L432 769 L586 909 L464 909 L350 769 Z " />
<glyph glyph-name="Thorn" unicode="&#xde;" horiz-adv-x="814" d="M225 257 L225 498 L457 498 C576 498 633 463 633 379 C633 299 579 257 459 257 L225 257 Z M121 0 L225 0 L225 175 L485 175 C660 175 743 259 743 379 C743 509 652 580 459 580 L225 580 L225 722 L121 722 L121 0 Z " />
<glyph glyph-name="germandbls" unicode="&#xdf;" horiz-adv-x="814" d="M99 0 L197 0 L197 429 C197 574 253 683 414 683 C502 683 563 645 563 591 C563 523 383 486 383 380 C383 228 674 264 674 142 C674 88 626 49 547 49 C482 49 433 74 430 146 L326 146 C331 16 434 -19 537 -19 C656 -19 772 23 772 147 C772 191 754 251 666 284 L564 322 C509 343 487 356 487 384 C487 449 651 467 651 599 C651 676 565 741 412 741 C169 741 99 609 99 403 L99 0 Z " />
<glyph glyph-name="agrave" unicode="&#xe0;" horiz-adv-x="666" d="M196 371 C201 426 259 453 328 453 C425 453 485 423 485 327 L485 313 C439 313 388 313 314 311 C136 306 56 251 56 145 C56 51 143 -19 270 -19 C368 -19 432 -5 489 70 L491 70 C491 47 492 23 495 0 L587 0 C584 27 583 58 583 96 L583 343 C583 468 481 521 342 521 C233 521 104 490 92 371 L196 371 Z M485 222 C485 101 417 49 296 49 C201 49 160 98 160 148 C160 221 227 238 329 242 C404 245 452 245 485 245 L485 222 Z M347 582 L429 582 L315 722 L193 722 L347 582 Z " />
<glyph glyph-name="aacute" unicode="&#xe1;" horiz-adv-x="666" d="M196 371 C201 426 259 453 328 453 C425 453 485 423 485 327 L485 313 C439 313 388 313 314 311 C136 306 56 251 56 145 C56 51 143 -19 270 -19 C368 -19 432 -5 489 70 L491 70 C491 47 492 23 495 0 L587 0 C584 27 583 58 583 96 L583 343 C583 468 481 521 342 521 C233 521 104 490 92 371 L196 371 Z M485 222 C485 101 417 49 296 49 C201 49 160 98 160 148 C160 221 227 238 329 242 C404 245 452 245 485 245 L485 222 Z M249 582 L331 582 L485 722 L363 722 L249 582 Z " />
<glyph glyph-name="acircumflex" unicode="&#xe2;" horiz-adv-x="666" d="M196 371 C201 426 259 453 328 453 C425 453 485 423 485 327 L485 313 C439 313 388 313 314 311 C136 306 56 251 56 145 C56 51 143 -19 270 -19 C368 -19 432 -5 489 70 L491 70 C491 47 492 23 495 0 L587 0 C584 27 583 58 583 96 L583 343 C583 468 481 521 342 521 C233 521 104 490 92 371 L196 371 Z M485 222 C485 101 417 49 296 49 C201 49 160 98 160 148 C160 221 227 238 329 242 C404 245 452 245 485 245 L485 222 Z M434 582 L516 582 L397 722 L281 722 L162 582 L244 582 L339 684 L434 582 Z " />
<glyph glyph-name="atilde" unicode="&#xe3;" horiz-adv-x="666" d="M196 371 C201 426 259 453 328 453 C425 453 485 423 485 327 L485 313 C439 313 388 313 314 311 C136 306 56 251 56 145 C56 51 143 -19 270 -19 C368 -19 432 -5 489 70 L491 70 C491 47 492 23 495 0 L587 0 C584 27 583 58 583 96 L583 343 C583 468 481 521 342 521 C233 521 104 490 92 371 L196 371 Z M485 222 C485 101 417 49 296 49 C201 49 160 98 160 148 C160 221 227 238 329 242 C404 245 452 245 485 245 L485 222 Z M458 722 C455 694 435 680 412 680 C387 680 297 722 249 722 C222 722 201 712 186 693 C171 674 163 646 162 606 L220 606 C221 629 236 648 257 648 C287 648 370 612 423 612 C484 612 514 648 516 722 L458 722 Z " />
<glyph glyph-name="adieresis" unicode="&#xe4;" horiz-adv-x="666" d="M196 371 C201 426 259 453 328 453 C425 453 485 423 485 327 L485 313 C439 313 388 313 314 311 C136 306 56 251 56 145 C56 51 143 -19 270 -19 C368 -19 432 -5 489 70 L491 70 C491 47 492 23 495 0 L587 0 C584 27 583 58 583 96 L583 343 C583 468 481 521 342 521 C233 521 104 490 92 371 L196 371 Z M485 222 C485 101 417 49 296 49 C201 49 160 98 160 148 C160 221 227 238 329 242 C404 245 452 245 485 245 L485 222 Z M187 622 L285 622 L285 722 L187 722 L187 622 Z M393 622 L491 622 L491 722 L393 722 L393 622 Z " />
<glyph glyph-name="aring" unicode="&#xe5;" horiz-adv-x="666" d="M196 371 C201 426 259 453 328 453 C425 453 485 423 485 327 L485 313 C439 313 388 313 314 311 C136 306 56 251 56 145 C56 51 143 -19 270 -19 C368 -19 432 -5 489 70 L491 70 C491 47 492 23 495 0 L587 0 C584 27 583 58 583 96 L583 343 C583 468 481 521 342 521 C233 521 104 490 92 371 L196 371 Z M485 222 C485 101 417 49 296 49 C201 49 160 98 160 148 C160 221 227 238 329 242 C404 245 452 245 485 245 L485 222 Z M237 667 C237 611 283 565 339 565 C395 565 441 611 441 667 C441 723 395 769 339 769 C283 769 237 723 237 667 L237 667 Z M283 667 C283 698 308 723 339 723 C370 723 395 698 395 667 C395 636 370 611 339 611 C308 611 283 636 283 667 L283 667 Z " />
<glyph glyph-name="ae" unicode="&#xe6;" horiz-adv-x="1110" d="M511 293 L323 293 C153 293 56 249 56 138 C56 42 159 -19 296 -19 C400 -19 499 4 551 102 C587 34 673 -19 786 -19 C882 -19 1018 17 1041 151 L937 151 C922 80 855 49 780 49 C673 49 604 129 599 225 L1054 225 C1052 393 968 521 783 521 C691 521 614 491 563 417 C519 496 449 521 334 521 C220 521 103 475 91 358 L195 358 C207 417 246 453 343 453 C449 453 511 404 511 315 L511 293 Z M511 225 C505 89 409 49 296 49 C218 49 154 88 154 136 C154 185 204 225 326 225 L511 225 Z M599 293 C614 392 681 453 772 453 C856 453 942 409 944 293 L599 293 Z " />
<glyph glyph-name="ccedilla" unicode="&#xe7;" horiz-adv-x="666" d="M268 -81 L287 -104 C309 -98 320 -96 329 -96 C363 -96 380 -109 380 -127 C380 -149 351 -160 316 -160 C289 -160 257 -152 235 -144 L220 -185 C252 -197 298 -206 338 -206 C404 -206 468 -183 468 -127 C468 -86 428 -58 371 -58 C360 -58 344 -60 330 -65 L328 -63 L363 -19 C483 -13 601 42 610 162 L506 162 C501 92 439 49 347 49 C223 49 160 143 160 250 C160 384 246 453 352 453 C434 453 493 415 502 342 L606 342 C589 473 472 521 351 521 C170 521 56 419 56 250 C56 97 145 -7 314 -18 L268 -81 Z " />
<glyph glyph-name="egrave" unicode="&#xe8;" horiz-adv-x="666" d="M151 293 C166 404 238 453 339 453 C425 453 511 409 513 293 L151 293 Z M617 255 C617 425 519 521 341 521 C159 521 49 424 49 241 C49 82 154 -19 338 -19 C449 -19 585 17 605 151 L501 151 C479 79 404 49 333 49 C223 49 157 122 147 225 L617 225 L617 255 Z M353 582 L435 582 L321 722 L199 722 L353 582 Z " />
<glyph glyph-name="eacute" unicode="&#xe9;" horiz-adv-x="666" d="M151 293 C166 404 238 453 339 453 C425 453 511 409 513 293 L151 293 Z M617 255 C617 425 519 521 341 521 C159 521 49 424 49 241 C49 82 154 -19 338 -19 C449 -19 585 17 605 151 L501 151 C479 79 404 49 333 49 C223 49 157 122 147 225 L617 225 L617 255 Z M255 582 L337 582 L491 722 L369 722 L255 582 Z " />
<glyph glyph-name="ecircumflex" unicode="&#xea;" horiz-adv-x="666" d="M151 293 C166 404 238 453 339 453 C425 453 511 409 513 293 L151 293 Z M617 255 C617 425 519 521 341 521 C159 521 49 424 49 241 C49 82 154 -19 338 -19 C449 -19 585 17 605 151 L501 151 C479 79 404 49 333 49 C223 49 157 122 147 225 L617 225 L617 255 Z M440 582 L522 582 L403 722 L287 722 L168 582 L250 582 L345 684 L440 582 Z " />
<glyph glyph-name="edieresis" unicode="&#xeb;" horiz-adv-x="666" d="M151 293 C166 404 238 453 339 453 C425 453 511 409 513 293 L151 293 Z M617 255 C617 425 519 521 341 521 C159 521 49 424 49 241 C49 82 154 -19 338 -19 C449 -19 585 17 605 151 L501 151 C479 79 404 49 333 49 C223 49 157 122 147 225 L617 225 L617 255 Z M193 622 L291 622 L291 722 L193 722 L193 622 Z M399 622 L497 622 L497 722 L399 722 L399 622 Z " />
<glyph glyph-name="igrave" unicode="&#xec;" horiz-adv-x="296" d="M99 0 L197 0 L197 502 L99 502 L99 0 Z M156 582 L238 582 L124 722 L2 722 L156 582 Z " />
<glyph glyph-name="iacute" unicode="&#xed;" horiz-adv-x="296" d="M99 0 L197 0 L197 502 L99 502 L99 0 Z M58 582 L140 582 L294 722 L172 722 L58 582 Z " />
<glyph glyph-name="icircumflex" unicode="&#xee;" horiz-adv-x="296" d="M99 0 L197 0 L197 502 L99 502 L99 0 Z M243 582 L325 582 L206 722 L90 722 L-29 582 L53 582 L148 684 L243 582 Z " />
<glyph glyph-name="idieresis" unicode="&#xef;" horiz-adv-x="296" d="M99 0 L197 0 L197 502 L99 502 L99 0 Z M-4 622 L94 622 L94 722 L-4 722 L-4 622 Z M202 622 L300 622 L300 722 L202 722 L202 622 Z " />
<glyph glyph-name="eth" unicode="&#xf0;" horiz-adv-x="740" d="M233 546 L336 609 C403 574 488 507 533 442 L531 440 C473 488 408 502 330 502 C156 502 56 388 56 251 C56 79 166 -19 370 -19 C574 -19 684 79 684 251 C684 410 598 551 412 655 L510 711 L468 750 L361 685 C330 700 291 716 252 731 L181 675 C213 666 245 653 278 637 L191 585 L233 546 Z M160 239 C160 362 247 434 362 434 C478 434 580 378 580 239 C580 124 493 49 370 49 C247 49 160 124 160 239 L160 239 Z " />
<glyph glyph-name="ntilde" unicode="&#xf1;" horiz-adv-x="740" d="M92 0 L190 0 L190 237 C190 396 296 453 389 453 C483 453 550 392 550 280 L550 0 L648 0 L648 285 C648 442 546 521 405 521 C315 521 243 490 186 413 L184 413 C184 448 182 477 180 502 L88 502 C90 462 92 426 92 388 L92 0 Z M489 722 C486 694 466 680 443 680 C418 680 328 722 280 722 C253 722 232 712 217 693 C202 674 194 646 193 606 L251 606 C252 629 267 648 288 648 C318 648 401 612 454 612 C515 612 545 648 547 722 L489 722 Z " />
<glyph glyph-name="ograve" unicode="&#xf2;" horiz-adv-x="740" d="M684 251 C684 423 574 521 370 521 C160 521 56 414 56 251 C56 79 166 -19 370 -19 C574 -19 684 79 684 251 L684 251 Z M370 453 C507 453 580 365 580 251 C580 137 507 49 370 49 C233 49 160 137 160 251 C160 365 233 453 370 453 L370 453 Z M378 582 L460 582 L346 722 L224 722 L378 582 Z " />
<glyph glyph-name="oacute" unicode="&#xf3;" horiz-adv-x="740" d="M684 251 C684 423 574 521 370 521 C160 521 56 414 56 251 C56 79 166 -19 370 -19 C574 -19 684 79 684 251 L684 251 Z M370 453 C507 453 580 365 580 251 C580 137 507 49 370 49 C233 49 160 137 160 251 C160 365 233 453 370 453 L370 453 Z M280 582 L362 582 L516 722 L394 722 L280 582 Z " />
<glyph glyph-name="ocircumflex" unicode="&#xf4;" horiz-adv-x="740" d="M684 251 C684 423 574 521 370 521 C160 521 56 414 56 251 C56 79 166 -19 370 -19 C574 -19 684 79 684 251 L684 251 Z M370 453 C507 453 580 365 580 251 C580 137 507 49 370 49 C233 49 160 137 160 251 C160 365 233 453 370 453 L370 453 Z M465 582 L547 582 L428 722 L312 722 L193 582 L275 582 L370 684 L465 582 Z " />
<glyph glyph-name="otilde" unicode="&#xf5;" horiz-adv-x="740" d="M684 251 C684 423 574 521 370 521 C160 521 56 414 56 251 C56 79 166 -19 370 -19 C574 -19 684 79 684 251 L684 251 Z M370 453 C507 453 580 365 580 251 C580 137 507 49 370 49 C233 49 160 137 160 251 C160 365 233 453 370 453 L370 453 Z M489 722 C486 694 466 680 443 680 C418 680 328 722 280 722 C253 722 232 712 217 693 C202 674 194 646 193 606 L251 606 C252 629 267 648 288 648 C318 648 401 612 454 612 C515 612 545 648 547 722 L489 722 Z " />
<glyph glyph-name="odieresis" unicode="&#xf6;" horiz-adv-x="740" d="M684 251 C684 423 574 521 370 521 C160 521 56 414 56 251 C56 79 166 -19 370 -19 C574 -19 684 79 684 251 L684 251 Z M370 453 C507 453 580 365 580 251 C580 137 507 49 370 49 C233 49 160 137 160 251 C160 365 233 453 370 453 L370 453 Z M218 622 L316 622 L316 722 L218 722 L218 622 Z M424 622 L522 622 L522 722 L424 722 L424 622 Z " />
<glyph glyph-name="divide" unicode="&#xf7;" horiz-adv-x="600" d="M47 209 L553 209 L553 297 L47 297 L47 209 Z M224 43 C224 1 258 -33 300 -33 C342 -33 376 1 376 43 C376 85 342 119 300 119 C258 119 224 85 224 43 L224 43 Z M224 463 C224 421 258 387 300 387 C342 387 376 421 376 463 C376 505 342 539 300 539 C258 539 224 505 224 463 L224 463 Z " />
<glyph glyph-name="oslash" unicode="&#xf8;" horiz-adv-x="740" d="M528 393 C562 357 580 307 580 251 C580 137 507 49 370 49 C321 49 279 61 246 82 L528 393 Z M213 108 C178 144 160 194 160 251 C160 365 233 453 370 453 C420 453 462 441 495 420 L213 108 Z M83 -35 L112 -65 L188 18 C235 -6 296 -19 370 -19 C574 -19 684 79 684 251 C684 345 651 417 590 461 L657 536 L627 565 L553 484 C503 509 443 521 370 521 C160 521 56 414 56 251 C56 158 88 87 151 40 L83 -35 Z " />
<glyph glyph-name="ugrave" unicode="&#xf9;" horiz-adv-x="740" d="M648 502 L550 502 L550 265 C550 106 444 49 351 49 C257 49 190 110 190 222 L190 502 L92 502 L92 217 C92 60 194 -19 335 -19 C425 -19 497 12 554 89 L556 89 C556 54 558 25 560 0 L652 0 C650 40 648 76 648 114 L648 502 Z M378 582 L460 582 L346 722 L224 722 L378 582 Z " />
<glyph glyph-name="uacute" unicode="&#xfa;" horiz-adv-x="740" d="M648 502 L550 502 L550 265 C550 106 444 49 351 49 C257 49 190 110 190 222 L190 502 L92 502 L92 217 C92 60 194 -19 335 -19 C425 -19 497 12 554 89 L556 89 C556 54 558 25 560 0 L652 0 C650 40 648 76 648 114 L648 502 Z M280 582 L362 582 L516 722 L394 722 L280 582 Z " />
<glyph glyph-name="ucircumflex" unicode="&#xfb;" horiz-adv-x="740" d="M648 502 L550 502 L550 265 C550 106 444 49 351 49 C257 49 190 110 190 222 L190 502 L92 502 L92 217 C92 60 194 -19 335 -19 C425 -19 497 12 554 89 L556 89 C556 54 558 25 560 0 L652 0 C650 40 648 76 648 114 L648 502 Z M465 582 L547 582 L428 722 L312 722 L193 582 L275 582 L370 684 L465 582 Z " />
<glyph glyph-name="udieresis" unicode="&#xfc;" horiz-adv-x="740" d="M648 502 L550 502 L550 265 C550 106 444 49 351 49 C257 49 190 110 190 222 L190 502 L92 502 L92 217 C92 60 194 -19 335 -19 C425 -19 497 12 554 89 L556 89 C556 54 558 25 560 0 L652 0 C650 40 648 76 648 114 L648 502 Z M218 622 L316 622 L316 722 L218 722 L218 622 Z M424 622 L522 622 L522 722 L424 722 L424 622 Z " />
<glyph glyph-name="yacute" unicode="&#xfd;" horiz-adv-x="666" d="M552 502 L340 94 L126 502 L10 502 L287 0 L183 -192 L293 -192 L656 502 L552 502 Z M283 582 L365 582 L519 722 L397 722 L283 582 Z " />
<glyph glyph-name="thorn" unicode="&#xfe;" horiz-adv-x="740" d="M86 -192 L184 -192 L184 66 C246 0 324 -19 404 -19 C554 -19 684 88 684 251 C684 414 554 521 404 521 C315 521 235 489 184 431 L184 722 L86 722 L86 -192 Z M184 251 C184 378 266 453 382 453 C499 453 580 378 580 251 C580 124 499 49 382 49 C266 49 184 124 184 251 L184 251 Z " />
<glyph glyph-name="ydieresis" unicode="&#xff;" horiz-adv-x="666" d="M552 502 L340 94 L126 502 L10 502 L287 0 L183 -192 L293 -192 L656 502 L552 502 Z M181 622 L279 622 L279 722 L181 722 L181 622 Z M387 622 L485 622 L485 722 L387 722 L387 622 Z " />
<glyph glyph-name="dotlessi" unicode="&#x131;" horiz-adv-x="296" d="M99 0 L197 0 L197 502 L99 502 L99 0 Z " />
<glyph glyph-name="Lslash" unicode="&#x141;" horiz-adv-x="667" d="M121 0 L641 0 L641 82 L225 82 L225 317 L462 444 L462 526 L225 399 L225 722 L121 722 L121 343 L26 292 L26 210 L121 261 L121 0 Z " />
<glyph glyph-name="lslash" unicode="&#x142;" horiz-adv-x="296" d="M28 274 L99 315 L99 0 L197 0 L197 371 L268 412 L268 486 L197 445 L197 722 L99 722 L99 389 L28 348 L28 274 Z " />
<glyph glyph-name="OE" unicode="&#x152;" horiz-adv-x="1333" d="M677 82 C634 78 584 76 534 76 C296 76 179 187 179 363 C179 539 300 646 549 646 C593 646 635 643 677 640 L677 82 Z M1243 82 L781 82 L781 330 L1196 330 L1196 412 L781 412 L781 640 L1227 640 L1227 722 L837 722 C803 722 754 723 696 725 C665 726 625 728 600 728 C410 728 318 716 209 640 C109 570 75 467 75 357 C75 265 106 171 171 114 C269 28 376 -6 572 -6 C611 -6 649 -5 687 -3 C725 -1 764 0 802 0 L1243 0 L1243 82 Z " />
<glyph glyph-name="oe" unicode="&#x153;" horiz-adv-x="1184" d="M1016 151 C994 79 919 49 847 49 C739 49 678 122 665 225 L1131 225 C1129 393 1045 521 860 521 C739 521 660 472 626 407 C598 465 491 521 367 521 C157 521 53 414 53 251 C53 79 163 -19 367 -19 C472 -19 565 9 621 91 C664 18 747 -19 854 -19 C964 -19 1100 17 1120 151 L1016 151 Z M157 251 C157 365 230 453 367 453 C504 453 577 365 577 251 C577 137 504 49 367 49 C230 49 157 137 157 251 L157 251 Z M665 293 C683 404 755 453 851 453 C933 453 1019 409 1021 293 L665 293 Z " />
<glyph glyph-name="Scaron" unicode="&#x160;" horiz-adv-x="814" d="M724 530 C714 696 555 741 405 741 C208 741 90 661 90 522 C90 220 643 401 643 201 C643 122 560 63 410 63 C273 63 180 119 177 216 L67 216 C80 57 199 -19 404 -19 C618 -19 747 68 747 212 C747 301 693 368 576 388 L307 434 C218 449 194 489 194 528 C194 608 281 659 384 659 C501 659 604 631 614 530 L724 530 Z M349 769 L465 769 L584 909 L502 909 L407 807 L312 909 L230 909 L349 769 Z " />
<glyph glyph-name="scaron" unicode="&#x161;" horiz-adv-x="666" d="M66 143 C73 26 187 -19 321 -19 C511 -19 600 36 600 143 C600 218 555 257 461 275 L295 306 C220 320 188 342 188 377 C188 423 250 453 338 453 C413 453 469 435 483 372 L578 372 C572 495 438 521 334 521 C195 521 90 475 90 364 C90 164 496 253 496 136 C496 83 442 49 332 49 C243 49 179 73 170 143 L66 143 Z M275 582 L391 582 L510 722 L428 722 L333 620 L238 722 L156 722 L275 582 Z " />
<glyph glyph-name="Ydieresis" unicode="&#x178;" horiz-adv-x="814" d="M459 0 L459 301 L802 722 L668 722 L407 387 L146 722 L12 722 L355 301 L355 0 L459 0 Z M255 809 L353 809 L353 909 L255 909 L255 809 Z M461 809 L559 809 L559 909 L461 909 L461 809 Z " />
<glyph glyph-name="Zcaron" unicode="&#x17d;" horiz-adv-x="740" d="M36 0 L704 0 L704 82 L164 82 L688 612 L688 722 L58 722 L58 640 L578 640 L36 94 L36 0 Z M312 769 L428 769 L547 909 L465 909 L370 807 L275 909 L193 909 L312 769 Z " />
<glyph glyph-name="zcaron" unicode="&#x17e;" horiz-adv-x="593" d="M63 428 L406 428 L48 82 L48 0 L545 0 L545 74 L176 74 L535 420 L535 502 L63 502 L63 428 Z M239 582 L355 582 L474 722 L392 722 L297 620 L202 722 L120 722 L239 582 Z " />
<glyph glyph-name="florin" unicode="&#x192;" horiz-adv-x="740" d="M52 -184 C76 -189 100 -192 123 -192 C286 -192 336 -132 364 64 L418 445 L603 445 L615 513 L428 513 C445 629 479 667 563 667 C586 667 613 662 635 655 L645 730 C616 738 575 741 535 741 C412 741 349 696 324 513 L157 513 L145 445 L317 445 L262 61 C240 -96 191 -118 99 -118 C90 -118 75 -116 61 -114 L52 -184 Z " />
<glyph glyph-name="circumflex" unicode="&#x2c6;" horiz-adv-x="296" d="M243 582 L325 582 L206 722 L90 722 L-29 582 L53 582 L148 684 L243 582 Z " />
<glyph glyph-name="caron" unicode="&#x2c7;" horiz-adv-x="296" d="M90 582 L206 582 L325 722 L243 722 L148 620 L53 722 L-29 722 L90 582 Z " />
<glyph glyph-name="uni02C9" unicode="&#x2c9;" horiz-adv-x="296" d="M-25 637 L321 637 L321 705 L-25 705 L-25 637 Z " />
<glyph glyph-name="breve" unicode="&#x2d8;" horiz-adv-x="296" d="M-29 722 C-11 620 61 582 148 582 C235 582 307 620 325 722 L273 722 C249 676 202 650 148 650 C94 650 47 676 23 722 L-29 722 Z " />
<glyph glyph-name="dotaccent" unicode="&#x2d9;" horiz-adv-x="296" d="M99 622 L197 622 L197 722 L99 722 L99 622 Z " />
<glyph glyph-name="ring" unicode="&#x2da;" horiz-adv-x="296" d="M46 667 C46 611 92 565 148 565 C204 565 250 611 250 667 C250 723 204 769 148 769 C92 769 46 723 46 667 L46 667 Z M92 667 C92 698 117 723 148 723 C179 723 204 698 204 667 C204 636 179 611 148 611 C117 611 92 636 92 667 L92 667 Z " />
<glyph glyph-name="ogonek" unicode="&#x2db;" horiz-adv-x="296" d="M142 0 C68 -27 2 -88 2 -138 C2 -179 46 -206 129 -206 C167 -206 217 -200 244 -192 L227 -150 C207 -157 184 -160 164 -160 C121 -160 90 -146 90 -120 C90 -88 113 -58 200 0 L142 0 Z " />
<glyph glyph-name="tilde" unicode="&#x2dc;" horiz-adv-x="296" d="M267 722 C264 694 244 680 221 680 C196 680 106 722 58 722 C31 722 10 712 -5 693 C-20 674 -28 646 -29 606 L29 606 C30 629 45 648 66 648 C96 648 179 612 232 612 C293 612 323 648 325 722 L267 722 Z " />
<glyph glyph-name="hungarumlaut" unicode="&#x2dd;" horiz-adv-x="296" d="M-42 582 L40 582 L194 722 L72 722 L-42 582 Z M158 582 L240 582 L394 722 L272 722 L158 582 Z " />
<glyph glyph-name="uni03A9" unicode="&#x3a9;" horiz-adv-x="963" d="M264 66 L66 66 L66 0 L387 0 L387 50 C279 97 176 205 176 360 C176 517 300 649 485 649 C678 649 788 498 788 364 C788 197 684 99 577 50 L577 0 L898 0 L898 66 L696 66 L696 69 C788 120 880 223 880 374 C880 550 722 714 484 714 C258 714 83 567 83 373 C83 226 172 124 264 69 L264 66 Z " />
<glyph glyph-name="uni03BC" unicode="&#x3bc;" horiz-adv-x="740" d="M92 -192 L190 -192 L190 31 C228 -4 290 -19 335 -19 C425 -19 497 12 554 89 L556 89 C556 54 558 25 560 0 L652 0 C650 40 648 76 648 114 L648 502 L550 502 L550 265 C550 106 444 49 351 49 C257 49 190 110 190 222 L190 502 L92 502 L92 -192 Z " />
<glyph glyph-name="pi" unicode="&#x3c0;" horiz-adv-x="736" d="M704 454 L714 522 L192 522 C92 522 40 511 8 492 L22 438 C51 449 91 454 172 454 C166 317 125 99 79 0 L171 0 C216 79 256 318 264 454 L505 454 L505 154 C505 61 513 15 525 0 L616 0 C607 29 598 72 598 166 L598 454 L704 454 Z " />
<glyph glyph-name="endash" unicode="&#x2013;" horiz-adv-x="500" d="M0 226 L500 226 L500 308 L0 308 L0 226 Z " />
<glyph glyph-name="emdash" unicode="&#x2014;" horiz-adv-x="1000" d="M0 226 L1000 226 L1000 308 L0 308 L0 226 Z " />
<glyph glyph-name="quoteleft" unicode="&#x2018;" horiz-adv-x="370" d="M94 508 L210 508 L276 722 L194 722 L94 508 Z " />
<glyph glyph-name="quoteright" unicode="&#x2019;" horiz-adv-x="370" d="M94 508 L176 508 L276 722 L160 722 L94 508 Z " />
<glyph glyph-name="quotesinglbase" unicode="&#x201a;" horiz-adv-x="370" d="M94 -162 L176 -162 L276 52 L160 52 L94 -162 Z " />
<glyph glyph-name="quotedblleft" unicode="&#x201c;" horiz-adv-x="593" d="M317 508 L433 508 L499 722 L417 722 L317 508 Z M94 508 L210 508 L276 722 L194 722 L94 508 Z " />
<glyph glyph-name="quotedblright" unicode="&#x201d;" horiz-adv-x="593" d="M94 508 L176 508 L276 722 L160 722 L94 508 Z M317 508 L399 508 L499 722 L383 722 L317 508 Z " />
<glyph glyph-name="quotedblbase" unicode="&#x201e;" horiz-adv-x="593" d="M94 -162 L176 -162 L276 52 L160 52 L94 -162 Z M317 -162 L399 -162 L499 52 L383 52 L317 -162 Z " />
<glyph glyph-name="dagger" unicode="&#x2020;" horiz-adv-x="592" d="M247 0 L345 0 L345 456 L547 456 L547 538 L345 538 L345 722 L247 722 L247 538 L45 538 L45 456 L247 456 L247 0 Z " />
<glyph glyph-name="daggerdbl" unicode="&#x2021;" horiz-adv-x="592" d="M247 0 L345 0 L345 158 L547 158 L547 240 L345 240 L345 482 L547 482 L547 564 L345 564 L345 722 L247 722 L247 564 L45 564 L45 482 L247 482 L247 240 L45 240 L45 158 L247 158 L247 0 Z " />
<glyph glyph-name="bullet" unicode="&#x2022;" horiz-adv-x="500" d="M69 361 C69 261 150 180 250 180 C350 180 431 261 431 361 C431 461 350 542 250 542 C150 542 69 461 69 361 L69 361 Z " />
<glyph glyph-name="ellipsis" unicode="&#x2026;" horiz-adv-x="1000" d="M112 0 L222 0 L222 110 L112 110 L112 0 Z M445 0 L555 0 L555 110 L445 110 L445 0 Z M778 0 L888 0 L888 110 L778 110 L778 0 Z " />
<glyph glyph-name="perthousand" unicode="&#x2030;" horiz-adv-x="1333" d="M491 169 C491 55 553 -19 668 -19 C783 -19 845 55 845 169 C845 283 783 357 668 357 C553 357 491 283 491 169 L491 169 Z M565 169 C565 261 612 299 668 299 C725 299 771 261 771 169 C771 77 725 39 668 39 C612 39 565 77 565 169 L565 169 Z M898 169 C898 55 960 -19 1075 -19 C1190 -19 1252 55 1252 169 C1252 283 1190 357 1075 357 C960 357 898 283 898 169 L898 169 Z M972 169 C972 261 1019 299 1075 299 C1132 299 1178 261 1178 169 C1178 77 1132 39 1075 39 C1019 39 972 77 972 169 L972 169 Z M69 523 C69 409 131 335 246 335 C361 335 423 409 423 523 C423 637 361 711 246 711 C131 711 69 637 69 523 L69 523 Z M143 523 C143 615 190 653 246 653 C303 653 349 615 349 523 C349 431 303 393 246 393 C190 393 143 431 143 523 L143 523 Z M163 -29 L245 -29 L752 721 L670 721 L163 -29 Z " />
<glyph glyph-name="guilsinglleft" unicode="&#x2039;" horiz-adv-x="370" d="M179 73 L267 73 L149 267 L267 461 L185 461 L51 267 L179 73 Z " />
<glyph glyph-name="guilsinglright" unicode="&#x203a;" horiz-adv-x="370" d="M103 73 L185 73 L319 267 L191 461 L103 461 L221 267 L103 73 Z " />
<glyph glyph-name="fraction" unicode="&#x2044;" horiz-adv-x="222" d="M-240 -61 L-166 -61 L462 753 L388 753 L-240 -61 Z " />
<glyph glyph-name="Euro" unicode="&#x20ac;" horiz-adv-x="740" d="M587 192 C574 104 505 63 433 63 C339 63 264 119 237 239 L496 239 L519 312 L227 312 C226 323 226 334 226 346 L226 370 L538 370 L561 443 L235 443 C260 569 337 629 434 629 C506 629 568 598 581 510 L693 510 C686 628 581 711 445 711 C250 711 159 580 131 443 L75 443 L51 370 L122 370 L122 346 C122 334 122 323 123 312 L72 312 L49 239 L132 239 C162 94 255 -19 421 -19 C561 -19 680 40 698 192 L587 192 Z " />
<glyph glyph-name="afii61289" unicode="&#x2113;" horiz-adv-x="626" d="M549 170 C517 116 449 55 366 55 C297 55 225 101 223 199 L223 215 C388 346 495 464 495 597 C495 684 445 769 330 769 C235 769 137 709 137 512 L137 242 C106 219 71 197 37 173 L66 123 C91 140 115 159 138 174 C139 171 139 167 139 163 C151 71 216 -14 346 -14 C446 -14 534 31 594 131 L549 170 Z M223 536 C223 668 285 710 331 710 C400 710 424 657 424 591 C424 491 335 393 223 292 L223 536 Z " />
<glyph glyph-name="trademark" unicode="&#x2122;" horiz-adv-x="990" d="M148 310 L236 310 L236 654 L358 654 L358 722 L26 722 L26 654 L148 654 L148 310 Z M832 310 L914 310 L914 722 L790 722 L682 441 L574 722 L450 722 L450 310 L532 310 L532 622 L534 622 L651 310 L713 310 L830 622 L832 622 L832 310 Z " />
<glyph glyph-name="Omega" unicode="&#x2126;" horiz-adv-x="963" d="M264 66 L66 66 L66 0 L387 0 L387 50 C279 97 176 205 176 360 C176 517 300 649 485 649 C678 649 788 498 788 364 C788 197 684 99 577 50 L577 0 L898 0 L898 66 L696 66 L696 69 C788 120 880 223 880 374 C880 550 722 714 484 714 C258 714 83 567 83 373 C83 226 172 124 264 69 L264 66 Z " />
<glyph glyph-name="estimated" unicode="&#x212e;" horiz-adv-x="880" d="M845 336 L845 346 C845 547 664 711 439 711 C215 711 34 547 34 346 C34 145 215 -18 439 -18 C570 -18 687 38 760 123 L701 123 C638 50 545 2 440 2 C343 2 255 44 192 110 C186 117 183 124 183 133 L183 331 C183 335 185 336 188 336 L845 336 Z M696 362 C696 360 695 355 692 355 L188 355 C185 355 183 360 183 362 L183 557 C183 567 186 576 193 582 C257 647 344 689 440 689 C536 689 623 648 686 585 C693 579 696 570 696 561 L696 362 Z " />
<glyph glyph-name="partialdiff" unicode="&#x2202;" horiz-adv-x="699" d="M126 663 C159 684 217 712 301 712 C434 712 547 594 547 400 C547 386 547 363 545 349 L544 349 C525 381 446 473 317 473 C170 473 49 371 49 223 C49 124 124 -16 300 -16 C521 -16 636 192 636 391 C636 632 484 779 310 779 C202 779 131 744 92 717 L126 663 Z M307 49 C208 49 140 131 140 226 C140 330 229 409 334 409 C440 409 514 323 532 277 C513 162 433 49 309 49 L307 49 Z " />
<glyph glyph-name="Delta" unicode="&#x2206;" horiz-adv-x="843" d="M36 0 L807 0 L807 57 L477 724 L368 724 L36 57 L36 0 Z M133 68 L338 487 C360 536 403 627 415 656 L420 656 C437 613 485 516 508 467 L702 68 L133 68 Z " />
<glyph glyph-name="product" unicode="&#x220f;" horiz-adv-x="896" d="M867 629 L867 701 L28 701 L28 629 L176 629 L176 -97 L264 -97 L264 629 L631 629 L631 -97 L719 -97 L719 629 L867 629 Z " />
<glyph glyph-name="summation" unicode="&#x2211;" horiz-adv-x="713" d="M685 -97 L685 -22 L153 -22 L153 -19 L476 307 L174 625 L174 628 L667 628 L667 701 L42 701 L42 646 L370 299 L25 -47 L25 -97 L685 -97 Z " />
<glyph glyph-name="minus" unicode="&#x2212;" horiz-adv-x="600" d="M47 209 L553 209 L553 297 L47 297 L47 209 Z " />
<glyph glyph-name="uni2215" unicode="&#x2215;" horiz-adv-x="222" d="M-240 -61 L-166 -61 L462 753 L388 753 L-240 -61 Z " />
<glyph glyph-name="uni2219" unicode="&#x2219;" horiz-adv-x="370" d="M118 310 C118 273 148 243 185 243 C222 243 252 273 252 310 C252 347 222 377 185 377 C148 377 118 347 118 310 L118 310 Z " />
<glyph glyph-name="radical" unicode="&#x221a;" horiz-adv-x="714" d="M726 830 L656 830 L417 -15 C411 -35 404 -57 400 -77 L398 -77 C392 -56 384 -35 376 -17 L206 391 L39 325 L59 277 L153 313 L359 -154 L439 -154 L726 830 Z " />
<glyph glyph-name="infinity" unicode="&#x221e;" horiz-adv-x="920" d="M858 291 C858 396 790 470 687 470 C589 471 528 397 466 329 C403 401 335 470 246 470 C141 470 61 392 61 286 C61 184 143 106 237 106 C333 106 398 176 460 247 C544 155 604 106 678 106 C771 106 858 177 858 290 L858 291 Z M245 159 C168 159 118 217 118 285 C118 357 164 420 238 420 C323 420 379 347 431 285 C383 236 322 159 246 159 L245 159 Z M681 420 C749 420 801 370 801 287 C801 225 758 159 683 159 C621 159 573 203 494 290 C536 332 600 420 680 420 L681 420 Z " />
<glyph glyph-name="integral" unicode="&#x222b;" horiz-adv-x="418" d="M409 841 C397 848 367 858 341 858 C303 858 263 848 232 819 C184 778 166 714 166 605 C166 447 184 259 184 96 C184 -10 165 -51 138 -79 C124 -93 101 -102 80 -102 C54 -102 31 -92 20 -86 L5 -143 C21 -152 58 -163 89 -163 C134 -163 180 -144 206 -108 C231 -75 258 -15 258 93 C258 255 240 439 240 596 C240 687 251 744 283 776 C299 793 326 799 346 799 C362 799 384 793 395 786 L409 841 Z " />
<glyph glyph-name="approxequal" unicode="&#x2248;" horiz-adv-x="713" d="M617 456 C579 398 543 371 492 371 C443 371 416 388 370 411 C333 430 290 459 231 459 C161 459 97 419 58 354 L94 319 C128 364 165 405 224 405 C267 405 306 385 341 367 C403 336 437 316 491 316 C564 316 613 361 651 421 L617 456 Z M617 255 C577 197 544 170 492 170 C441 170 410 191 370 212 C333 230 291 259 231 259 C161 259 97 218 58 153 L94 118 C128 163 164 205 224 205 C267 205 305 185 341 166 C401 136 437 116 491 116 C565 116 613 161 651 220 L617 255 Z " />
<glyph glyph-name="notequal" unicode="&#x2260;" horiz-adv-x="713" d="M503 546 L458 569 L390 427 L63 427 L63 373 L365 373 L281 199 L63 199 L63 145 L255 145 L195 22 L240 0 L310 145 L649 145 L649 199 L336 199 L421 373 L649 373 L649 427 L446 427 L503 546 Z " />
<glyph glyph-name="lessequal" unicode="&#x2264;" horiz-adv-x="713" d="M646 84 L646 146 L133 369 L133 371 L645 592 L645 654 L70 398 L70 341 L646 84 Z M648 -15 L648 39 L62 39 L62 -15 L648 -15 Z " />
<glyph glyph-name="greaterequal" unicode="&#x2265;" horiz-adv-x="713" d="M70 654 L70 592 L582 370 L582 368 L70 146 L70 84 L646 340 L646 398 L70 654 Z M646 -15 L646 39 L63 39 L63 -15 L646 -15 Z " />
<glyph glyph-name="lozenge" unicode="&#x25ca;" horiz-adv-x="716" d="M649 350 L391 757 L322 757 L66 350 L322 -57 L391 -57 L649 350 Z M568 348 L382 47 C374 34 364 16 360 5 L357 5 C354 15 345 29 335 47 L145 352 L330 652 C340 667 348 681 354 695 L356 695 C361 684 371 665 379 652 L568 348 Z " />
<glyph glyph-name="fi" unicode="&#xfb01;" horiz-adv-x="740" d="M160 0 L258 0 L258 434 L419 434 L419 502 L258 502 L258 547 C258 631 293 660 367 660 C391 660 415 657 432 654 L432 722 C403 726 369 728 341 728 C200 728 160 652 160 532 L160 502 L29 502 L29 434 L160 434 L160 0 Z M543 0 L641 0 L641 502 L543 502 L543 0 Z M543 622 L641 622 L641 722 L543 722 L543 622 Z " />
<glyph glyph-name="fl" unicode="&#xfb02;" horiz-adv-x="740" d="M258 0 L258 434 L419 434 L419 502 L258 502 L258 547 C258 631 293 660 367 660 C391 660 415 657 432 654 L432 722 C403 726 369 728 341 728 C200 728 160 652 160 532 L160 502 L29 502 L29 434 L160 434 L160 0 L258 0 Z M543 0 L641 0 L641 722 L543 722 L543 0 Z " />
</font>
</svg>
