<?xml version="1.0" encoding="UTF-8"?>
<svg xmlns="http://www.w3.org/2000/svg" xmlns:xlink="http://www.w3.org/1999/xlink" version="1.2" >
<font id="Univers LT Std 55 Roman">
<font-face  font-family="Univers LT Std" units-per-em="1000" ascent="724" descent="-276" font-style="normal" font-weight="400" font-stretch="normal" cap-height="724" x-height="498" underline-position="-75" underline-thickness="50" />
<missing-glyph  horiz-adv-x="500" d="M0 0 L500 0 L500 700 L0 700 L0 0 Z M250 395 L80 650 L420 650 L250 395 Z M280 350 L450 605 L450 95 L280 350 Z M80 50 L250 305 L420 50 L80 50 Z M50 605 L220 350 L50 95 L50 605 Z " />
<glyph glyph-name="NULL" d="" />
<glyph glyph-name="CR" unicode="&#xd;" horiz-adv-x="250" d="" />
<glyph glyph-name="space" unicode="&#x20;" horiz-adv-x="278" d="" />
<glyph glyph-name="exclam" unicode="&#x21;" horiz-adv-x="389" d="M262 721 L150 721 L169 165 L240 165 L262 721 Z M149 0 L255 0 L255 100 L149 100 L149 0 Z " />
<glyph glyph-name="quotedbl" unicode="&#x22;" horiz-adv-x="400" d="M76 692 L91 446 L145 446 L159 692 L76 692 Z M241 692 L255 446 L309 446 L324 692 L241 692 Z " />
<glyph glyph-name="numbersign" unicode="&#x23;" horiz-adv-x="556" d="M5 197 L105 197 L69 0 L149 0 L186 197 L307 197 L271 0 L351 0 L388 197 L500 197 L500 266 L401 266 L428 415 L541 415 L541 484 L441 484 L480 692 L399 692 L361 484 L239 484 L278 692 L197 692 L159 484 L46 484 L46 415 L146 415 L118 266 L6 266 L5 197 Z M199 266 L226 415 L348 415 L320 266 L199 266 Z " />
<glyph glyph-name="dollar" unicode="&#x24;" horiz-adv-x="556" d="M253 775 L253 693 C226 692 172 690 126 662 C91 640 41 595 41 512 C41 405 86 363 250 314 L250 80 C154 82 128 146 130 190 L28 190 C28 147 32 98 84 51 C144 -3 206 -4 250 -5 L250 -104 L301 -104 L301 -5 C336 -2 394 3 440 33 C466 50 530 100 530 198 C530 338 405 376 303 404 L303 613 C362 611 413 594 415 530 L520 530 C516 687 349 693 304 694 L304 775 L253 775 Z M252 419 C203 433 140 452 140 519 C140 537 144 602 252 613 L252 419 Z M303 301 C354 285 426 261 426 186 C426 137 390 81 303 80 L303 301 Z " />
<glyph glyph-name="percent" unicode="&#x25;" horiz-adv-x="889" d="M222 711 C109 711 52 633 52 528 C52 405 126 353 213 353 C304 353 377 410 377 534 C377 625 337 711 222 711 L222 711 Z M215 411 C129 411 129 506 129 529 C129 553 129 651 215 651 C286 651 298 579 298 530 C298 510 298 411 215 411 L215 411 Z M675 346 C586 346 511 287 511 166 C511 83 547 -12 675 -12 C783 -12 836 62 836 171 C836 246 813 278 795 298 C756 341 702 346 675 346 L675 346 Z M674 47 C598 47 590 121 590 156 C590 186 590 290 676 290 C754 290 760 200 760 169 C760 133 754 47 674 47 L674 47 Z M251 -39 L692 731 L626 731 L185 -39 L251 -39 Z " />
<glyph glyph-name="ampersand" unicode="&#x26;" horiz-adv-x="778" d="M595 468 C595 344 579 291 542 229 L365 404 C407 432 505 496 505 602 C505 640 489 676 462 701 C439 722 404 746 312 746 C187 746 118 681 118 587 C118 501 171 449 201 421 C126 365 49 304 49 191 C49 76 137 -17 292 -17 C391 -17 475 23 542 89 L636 0 L776 0 L604 167 C671 256 691 328 692 468 L595 468 Z M301 469 C257 512 225 551 225 592 C225 630 261 666 315 666 C375 666 398 627 398 598 C398 535 326 486 301 469 L301 469 Z M477 149 C451 122 398 67 307 67 C247 67 154 94 154 194 C154 248 182 297 265 358 L477 149 Z " />
<glyph glyph-name="quotesingle" unicode="&#x27;" horiz-adv-x="278" d="M98 692 L112 446 L166 446 L181 692 L98 692 Z " />
<glyph glyph-name="parenleft" unicode="&#x28;" horiz-adv-x="333" d="M257 -123 C199 67 164 182 164 324 C164 386 171 448 192 540 C213 635 235 703 251 752 L185 752 C168 709 142 645 114 555 C91 479 73 401 73 322 C73 176 138 10 192 -123 L257 -123 Z " />
<glyph glyph-name="parenright" unicode="&#x29;" horiz-adv-x="333" d="M76 752 C134 562 169 447 169 306 C169 244 162 181 141 90 C120 -5 98 -73 82 -123 L148 -123 C165 -80 191 -15 219 75 C242 151 260 229 260 308 C260 454 195 619 141 752 L76 752 Z " />
<glyph glyph-name="asterisk" unicode="&#x2a;" horiz-adv-x="556" d="M480 563 L309 544 L414 684 L347 721 L278 565 L211 720 L145 684 L247 544 L78 566 L78 493 L244 507 L138 368 L206 331 L278 487 L345 329 L410 369 L308 507 L480 488 L480 563 Z " />
<glyph glyph-name="plus" unicode="&#x2b;" horiz-adv-x="584" d="M250 0 L334 0 L334 213 L547 213 L547 290 L334 290 L334 503 L250 503 L250 290 L37 290 L37 213 L250 213 L250 0 Z " />
<glyph glyph-name="comma" unicode="&#x2c;" horiz-adv-x="278" d="M113 120 L49 -126 L117 -126 L229 120 L113 120 Z " />
<glyph glyph-name="hyphen" unicode="&#x2d;" horiz-adv-x="333" d="M42 225 L293 225 L293 301 L42 301 L42 225 Z " />
<glyph glyph-name="period" unicode="&#x2e;" horiz-adv-x="278" d="M81 0 L192 0 L192 120 L81 120 L81 0 Z " />
<glyph glyph-name="slash" unicode="&#x2f;" horiz-adv-x="278" d="M-9 -16 L57 -16 L290 713 L225 713 L-9 -16 Z " />
<glyph glyph-name="zero" unicode="0" horiz-adv-x="556" d="M44 338 C44 214 66 147 89 101 C119 40 182 -14 274 -14 C305 -14 363 -7 412 39 C475 98 508 190 508 354 C508 484 483 706 276 706 C56 706 44 441 44 338 L44 338 Z M140 343 C140 467 156 626 277 626 C382 626 411 511 411 345 C411 221 391 69 275 69 C170 69 140 189 140 343 L140 343 Z " />
<glyph glyph-name="one" unicode="1" horiz-adv-x="556" d="M271 0 L367 0 L367 692 L278 692 C239 659 175 617 110 583 L110 483 C159 506 228 547 271 583 L271 0 Z " />
<glyph glyph-name="two" unicode="2" horiz-adv-x="556" d="M53 0 L493 0 L493 79 L164 79 L285 194 C305 214 393 305 413 330 C488 425 491 459 491 503 C491 651 383 705 277 705 C233 705 175 696 127 655 C67 603 64 537 63 503 L168 503 C168 529 170 624 281 624 C380 624 392 545 392 511 C392 474 381 443 341 388 C310 346 272 306 234 269 L53 91 L53 0 Z " />
<glyph glyph-name="three" unicode="3" horiz-adv-x="556" d="M38 178 C39 149 40 99 79 55 C123 4 196 -17 269 -17 C430 -17 509 90 509 187 C509 201 509 334 361 355 C468 379 499 461 499 518 C499 614 424 705 273 705 C217 705 55 688 49 516 L150 516 C159 602 224 625 276 625 C345 625 398 594 398 516 C398 404 282 390 213 396 L213 315 C248 316 273 317 309 310 C360 299 409 261 409 188 C409 127 368 65 271 65 C186 65 143 112 144 178 L38 178 Z " />
<glyph glyph-name="four" unicode="4" horiz-adv-x="556" d="M340 0 L436 0 L436 150 L537 150 L537 231 L436 231 L436 701 L328 701 L28 269 L28 150 L340 150 L340 0 Z M104 231 L343 596 L343 231 L104 231 Z " />
<glyph glyph-name="five" unicode="5" horiz-adv-x="556" d="M56 164 C61 46 150 -16 262 -16 C413 -16 509 87 509 223 C509 342 441 451 302 451 C221 451 177 408 156 387 L169 611 L472 611 L472 692 L83 692 L65 280 L156 280 C161 296 167 317 188 338 C209 359 241 374 281 374 C361 374 412 319 412 225 C412 180 396 66 275 66 C223 66 162 94 160 164 L56 164 Z " />
<glyph glyph-name="six" unicode="6" horiz-adv-x="556" d="M510 528 C509 555 508 599 473 640 C449 666 398 706 307 706 C88 706 51 466 51 315 C51 227 63 128 114 60 C151 12 218 -15 285 -15 C404 -15 519 66 519 227 C519 374 423 449 310 449 C209 449 171 393 149 361 C158 545 202 631 302 631 C346 631 406 609 407 528 L510 528 Z M289 61 C212 61 156 127 156 217 C156 296 201 372 294 372 C409 372 423 267 423 218 C423 105 351 61 289 61 L289 61 Z " />
<glyph glyph-name="seven" unicode="7" horiz-adv-x="556" d="M35 609 L391 609 L125 0 L238 0 L492 608 L492 692 L35 692 L35 609 Z " />
<glyph glyph-name="eight" unicode="8" horiz-adv-x="556" d="M190 365 C159 355 123 345 90 312 C55 279 37 231 37 185 C37 132 61 80 98 46 C148 0 218 -12 277 -12 C449 -12 515 96 515 191 C515 325 405 355 364 366 C461 384 505 455 505 523 C505 629 421 708 275 708 C93 708 51 581 51 519 C51 450 98 385 190 365 L190 365 Z M409 521 C409 453 352 409 276 409 C204 409 148 454 148 521 C148 590 205 634 279 634 C362 634 409 584 409 521 L409 521 Z M138 194 C138 267 194 324 279 324 C358 324 415 274 415 197 C415 145 388 67 277 67 C174 67 138 140 138 194 L138 194 Z " />
<glyph glyph-name="nine" unicode="9" horiz-adv-x="556" d="M46 165 C50 21 160 -16 254 -16 C508 -16 509 247 509 349 C509 443 501 493 489 535 C449 675 340 705 266 705 C157 705 44 641 44 482 C44 337 145 263 255 263 C309 263 374 282 410 350 C415 242 414 63 262 63 C184 63 151 105 151 165 L46 165 Z M399 480 C399 397 351 339 273 339 C197 339 142 391 142 481 C142 563 185 630 266 630 C334 630 399 580 399 480 L399 480 Z " />
<glyph glyph-name="colon" unicode="&#x3a;" horiz-adv-x="278" d="M83 389 L194 389 L194 507 L83 507 L83 389 Z M83 0 L194 0 L194 118 L83 118 L83 0 Z " />
<glyph glyph-name="semicolon" unicode="&#x3b;" horiz-adv-x="278" d="M95 387 L211 387 L211 507 L95 507 L95 387 Z M113 120 L49 -126 L117 -126 L229 120 L113 120 Z " />
<glyph glyph-name="less" unicode="&#x3c;" horiz-adv-x="584" d="M37 210 L547 10 L547 97 L141 251 L547 406 L547 492 L37 292 L37 210 Z " />
<glyph glyph-name="equal" unicode="&#x3d;" horiz-adv-x="584" d="M37 314 L547 314 L547 391 L37 391 L37 314 Z M37 111 L547 111 L547 189 L37 189 L37 111 Z " />
<glyph glyph-name="greater" unicode="&#x3e;" horiz-adv-x="584" d="M547 210 L547 292 L37 492 L37 406 L443 251 L37 97 L37 10 L547 210 Z " />
<glyph glyph-name="question" unicode="&#x3f;" horiz-adv-x="500" d="M74 625 C142 653 195 653 209 653 C235 653 344 651 344 549 C344 491 308 452 231 371 C179 316 179 310 179 270 L179 164 L263 164 L263 270 C263 283 264 291 271 301 C271 302 322 353 327 358 C410 442 448 479 448 558 C448 601 431 644 403 674 C363 717 299 736 216 736 C145 736 98 723 74 715 L74 625 Z M171 0 L275 0 L275 102 L171 102 L171 0 Z " />
<glyph glyph-name="at" unicode="&#x40;" horiz-adv-x="1015" d="M653 549 L635 485 C631 498 626 515 609 531 C585 556 549 564 519 564 C400 564 321 435 321 327 C321 233 377 176 455 176 C546 176 583 250 595 274 C593 267 591 258 591 246 C591 199 630 176 671 176 C766 176 875 278 875 440 C875 643 712 741 541 741 C341 741 141 606 141 352 C141 130 301 -17 525 -17 C651 -17 740 25 828 89 L803 122 C728 69 646 27 528 27 C331 27 187 151 187 349 C187 571 353 697 541 697 C691 697 828 616 828 445 C828 315 752 226 689 226 C676 226 645 230 645 267 C645 288 654 318 661 343 L722 549 L653 549 Z M607 436 C607 394 570 226 475 226 C425 226 402 269 402 322 C402 398 455 515 535 515 C563 515 607 498 607 436 L607 436 Z " />
<glyph glyph-name="A" unicode="A" horiz-adv-x="722" d="M9 0 L112 0 L190 188 L525 188 L603 0 L712 0 L420 722 L313 722 L9 0 Z M362 623 L495 269 L222 269 L362 623 Z " />
<glyph glyph-name="B" unicode="B" horiz-adv-x="667" d="M95 0 L358 0 C415 0 471 0 521 33 C545 49 608 99 608 197 C608 335 506 365 464 377 C499 390 586 421 586 540 C586 597 566 639 535 669 C490 713 441 722 353 722 L95 722 L95 0 Z M192 640 L336 640 C391 640 482 640 482 531 C482 417 366 417 332 417 L192 417 L192 640 Z M192 331 L367 331 C455 331 505 278 505 206 C505 123 442 81 363 81 L192 81 L192 331 Z " />
<glyph glyph-name="C" unicode="C" horiz-adv-x="667" d="M630 527 C617 691 473 732 371 732 C114 732 55 505 55 353 C55 213 104 -11 358 -11 C482 -11 613 48 628 190 L518 190 C515 173 509 142 483 114 C452 82 410 71 366 71 C201 71 162 218 162 354 C162 474 193 652 367 652 C506 652 519 552 523 527 L630 527 Z " />
<glyph glyph-name="D" unicode="D" horiz-adv-x="722" d="M88 0 L291 0 C397 0 486 0 557 59 C612 103 677 199 677 355 C677 454 652 553 588 628 C508 722 394 722 297 722 L88 722 L88 0 Z M188 639 L308 639 C396 639 454 627 500 576 C568 501 570 378 570 351 C570 309 567 191 475 122 C427 86 355 82 286 82 L188 82 L188 639 Z " />
<glyph glyph-name="E" unicode="E" horiz-adv-x="611" d="M76 0 L537 0 L537 88 L176 88 L176 328 L512 328 L512 412 L176 412 L176 637 L529 637 L529 722 L76 722 L76 0 Z " />
<glyph glyph-name="F" unicode="F" horiz-adv-x="556" d="M95 0 L197 0 L197 328 L506 328 L506 412 L197 412 L197 637 L525 637 L525 722 L95 722 L95 0 Z " />
<glyph glyph-name="G" unicode="G" horiz-adv-x="778" d="M686 542 C684 570 681 612 638 657 C569 727 482 734 425 734 C389 734 295 731 224 683 C87 591 69 421 69 349 C69 247 99 146 170 74 C221 22 299 -16 432 -16 C555 -16 647 14 689 28 L689 384 L424 384 L424 301 L589 301 L589 87 C566 80 514 64 432 64 C360 64 287 81 240 135 C187 198 174 301 174 362 C174 430 188 524 251 594 C289 637 346 655 414 655 C512 655 566 609 577 542 L686 542 Z " />
<glyph glyph-name="H" unicode="H" horiz-adv-x="722" d="M88 722 L88 0 L188 0 L188 326 L531 326 L531 0 L631 0 L631 722 L531 722 L531 412 L188 412 L188 722 L88 722 Z " />
<glyph glyph-name="I" unicode="I" horiz-adv-x="278" d="M88 0 L188 0 L188 722 L88 722 L88 0 Z " />
<glyph glyph-name="J" unicode="J" horiz-adv-x="556" d="M21 196 C21 167 23 110 57 64 C107 -2 191 -11 229 -11 C348 -11 453 61 453 194 L453 722 L353 722 L353 221 C353 199 353 153 336 124 C315 90 277 73 236 73 C185 73 155 98 143 117 C128 140 128 171 127 196 L21 196 Z " />
<glyph glyph-name="K" unicode="K" horiz-adv-x="667" d="M93 0 L192 0 L192 383 L525 0 L665 0 L307 399 L630 722 L493 722 L192 406 L192 722 L93 722 L93 0 Z " />
<glyph glyph-name="L" unicode="L" horiz-adv-x="556" d="M93 0 L528 0 L528 89 L192 89 L192 722 L93 722 L93 0 Z " />
<glyph glyph-name="M" unicode="M" horiz-adv-x="944" d="M90 0 L187 0 L187 646 L415 0 L510 0 L747 650 L747 0 L845 0 L845 722 L680 722 L471 127 L267 722 L90 722 L90 0 Z " />
<glyph glyph-name="N" unicode="N" horiz-adv-x="778" d="M95 0 L186 0 L186 613 L553 0 L681 0 L681 722 L589 722 L589 125 L234 722 L95 722 L95 0 Z " />
<glyph glyph-name="O" unicode="O" horiz-adv-x="778" d="M59 356 C59 158 139 -17 385 -17 C642 -17 719 176 719 368 C719 613 593 741 393 741 C326 741 227 725 152 644 C73 559 59 438 59 356 L59 356 Z M164 362 C164 510 211 657 394 657 C559 657 613 533 613 369 C613 320 607 206 548 134 C506 84 447 68 388 68 C331 68 269 83 228 134 C178 196 164 283 164 362 L164 362 Z " />
<glyph glyph-name="P" unicode="P" horiz-adv-x="611" d="M88 0 L188 0 L188 321 L305 321 C435 321 485 345 523 383 C562 422 580 469 580 524 C580 578 563 627 527 664 C478 717 418 722 330 722 L88 722 L88 0 Z M188 641 L328 641 C380 641 474 641 474 528 C474 410 373 405 307 405 L188 405 L188 641 Z " />
<glyph glyph-name="Q" unicode="Q" horiz-adv-x="778" d="M754 79 L701 79 C635 79 596 70 572 65 C695 162 703 305 703 375 C703 548 630 739 390 739 C299 739 209 708 148 641 C73 558 58 442 58 356 C58 100 197 -15 369 -15 C393 -15 451 -10 500 -5 C548 -1 620 0 634 0 L754 0 L754 79 Z M164 354 C164 433 181 656 381 656 C521 656 601 544 601 358 C601 283 585 63 379 63 C207 63 164 235 164 354 L164 354 Z " />
<glyph glyph-name="R" unicode="R" horiz-adv-x="667" d="M86 0 L185 0 L185 326 L311 326 C432 326 457 296 469 191 C476 136 486 48 502 0 L609 0 C581 80 574 142 564 227 C554 317 523 348 454 366 C476 372 508 382 539 413 C571 445 590 490 590 541 C590 599 564 654 510 688 C457 722 381 722 344 722 L86 722 L86 0 Z M183 638 L341 638 C381 638 485 638 485 521 C485 461 450 435 436 427 C409 411 352 411 341 411 L183 411 L183 638 Z " />
<glyph glyph-name="S" unicode="S" horiz-adv-x="667" d="M56 211 C56 176 57 118 98 65 C155 -8 267 -17 322 -17 C507 -17 607 80 607 208 C607 238 602 308 535 352 C493 380 474 384 302 428 C214 449 172 471 172 535 C172 607 232 652 332 652 C403 652 479 632 484 542 L588 542 C586 572 584 621 544 665 C486 728 389 736 341 736 C205 736 66 672 66 525 C66 477 82 423 141 383 C178 358 227 346 337 319 C438 294 503 278 503 197 C503 161 484 68 334 68 C168 68 162 161 160 211 L56 211 Z " />
<glyph glyph-name="T" unicode="T" horiz-adv-x="611" d="M362 0 L362 637 L604 637 L604 722 L21 722 L21 637 L263 637 L263 0 L362 0 Z " />
<glyph glyph-name="U" unicode="U" horiz-adv-x="778" d="M93 722 L93 282 C93 174 113 132 135 100 C202 4 322 -15 390 -15 C442 -15 552 -4 623 85 C681 157 682 238 682 277 L682 722 L585 722 L585 279 C585 227 585 74 390 74 C340 74 270 85 225 145 C210 166 193 198 193 275 L193 722 L93 722 Z " />
<glyph glyph-name="V" unicode="V" horiz-adv-x="667" d="M647 722 L546 722 L330 105 L125 722 L14 722 L271 0 L381 0 L647 722 Z " />
<glyph glyph-name="W" unicode="W" horiz-adv-x="1000" d="M8 722 L213 0 L321 0 L500 617 L667 0 L778 0 L992 722 L894 722 L730 123 L567 722 L443 722 L271 128 L115 722 L8 722 Z " />
<glyph glyph-name="X" unicode="X" horiz-adv-x="722" d="M49 722 L299 378 L19 0 L140 0 L360 310 L575 0 L701 0 L431 376 L688 722 L567 722 L372 444 L177 722 L49 722 Z " />
<glyph glyph-name="Y" unicode="Y" horiz-adv-x="667" d="M289 0 L390 0 L390 279 L672 722 L560 722 L344 368 L131 722 L7 722 L289 284 L289 0 Z " />
<glyph glyph-name="Z" unicode="Z" horiz-adv-x="611" d="M35 0 L578 0 L578 88 L150 88 L571 623 L571 722 L46 722 L46 634 L452 634 L35 100 L35 0 Z " />
<glyph glyph-name="bracketleft" unicode="&#x5b;" horiz-adv-x="333" d="M102 -125 L275 -125 L275 -72 L181 -72 L181 697 L275 697 L275 750 L102 750 L102 -125 Z " />
<glyph glyph-name="backslash" unicode="&#x5c;" horiz-adv-x="278" d="M290 -16 L57 713 L-9 713 L225 -16 L290 -16 Z " />
<glyph glyph-name="bracketright" unicode="&#x5d;" horiz-adv-x="333" d="M60 -125 L234 -125 L234 750 L60 750 L60 697 L155 697 L155 -72 L60 -72 L60 -125 Z " />
<glyph glyph-name="asciicircum" unicode="&#x5e;" horiz-adv-x="584" d="M82 271 L168 271 L290 589 L416 271 L502 271 L330 692 L254 692 L82 271 Z " />
<glyph glyph-name="underscore" unicode="&#x5f;" horiz-adv-x="500" d="M0 -125 L500 -125 L500 -75 L0 -75 L0 -125 Z " />
<glyph glyph-name="grave" unicode="&#x60;" horiz-adv-x="278" d="M2 740 L137 596 L199 596 L115 740 L2 740 Z " />
<glyph glyph-name="a" unicode="a" horiz-adv-x="556" d="M479 0 C472 51 471 118 471 126 L475 366 C475 389 474 413 458 443 C431 494 353 517 280 517 C227 517 156 505 118 463 C89 429 86 394 83 368 L177 368 C178 388 183 453 278 453 C305 453 346 445 365 420 C383 398 383 371 383 309 C354 311 339 312 315 312 C275 312 195 309 141 279 C67 236 53 172 53 132 C53 49 115 -16 230 -16 C272 -16 340 -8 385 75 C385 49 387 25 394 0 L479 0 Z M383 244 C381 174 380 146 359 112 C336 77 300 58 252 58 C168 58 148 113 148 145 C148 247 291 247 329 247 C352 247 366 246 383 244 L383 244 Z " />
<glyph glyph-name="b" unicode="b" horiz-adv-x="611" d="M182 722 L88 722 L88 90 L86 0 L177 0 L179 76 C189 61 200 44 228 25 C271 -4 316 -7 340 -7 C409 -7 476 22 516 79 C541 112 564 165 564 262 C564 372 530 422 505 451 C459 503 396 515 346 515 C232 515 195 452 182 429 L182 722 Z M465 256 C465 174 436 61 320 61 C180 61 180 218 180 251 C180 283 180 451 324 451 C455 451 465 306 465 256 L465 256 Z " />
<glyph glyph-name="c" unicode="c" horiz-adv-x="500" d="M469 341 C467 369 464 410 427 453 C381 508 306 515 273 515 C173 515 45 453 45 244 C45 140 75 87 105 52 C158 -6 236 -13 270 -13 C394 -13 467 69 473 167 L378 167 C376 118 349 58 269 58 C169 58 144 154 144 257 C144 295 144 446 274 446 C365 446 372 364 374 341 L469 341 Z " />
<glyph glyph-name="d" unicode="d" horiz-adv-x="611" d="M436 434 C424 455 388 519 280 519 C162 519 53 436 53 245 C53 25 202 -10 269 -10 C303 -10 352 -1 393 27 C419 45 430 66 438 80 L440 0 L534 0 C532 26 530 69 530 80 L530 721 L436 721 L436 434 Z M439 258 C439 219 439 56 291 56 C176 56 153 159 153 248 C153 282 153 449 291 449 C344 449 381 424 401 398 C422 371 439 331 439 258 L439 258 Z " />
<glyph glyph-name="e" unicode="e" horiz-adv-x="556" d="M506 234 C508 316 513 515 288 515 C259 515 199 512 151 478 C72 423 52 341 52 242 C52 83 127 -15 285 -15 C386 -15 436 27 458 52 C494 91 498 132 501 157 L407 157 C399 85 350 53 289 53 C186 53 143 130 145 234 L506 234 Z M149 300 C151 411 225 448 286 448 C402 448 411 348 410 300 L149 300 Z " />
<glyph glyph-name="f" unicode="f" horiz-adv-x="333" d="M339 727 C319 730 289 734 262 734 C197 734 157 711 136 679 C119 653 115 628 115 559 L115 502 L16 502 L16 434 L115 434 L115 0 L208 0 L208 434 L325 434 L325 502 L208 502 L208 581 C208 616 208 654 284 654 C303 654 323 653 339 652 L339 727 Z " />
<glyph glyph-name="g" unicode="g" horiz-adv-x="611" d="M78 -39 C82 -107 88 -201 289 -201 C358 -201 456 -191 498 -111 C518 -73 522 -24 522 97 L523 411 L525 502 L434 502 L433 433 C413 459 376 509 275 509 C152 509 52 426 52 256 C52 189 66 122 109 71 C151 19 217 9 263 9 C293 9 388 11 428 94 C428 -42 426 -137 295 -137 C206 -137 182 -95 178 -39 L78 -39 Z M287 79 C172 79 149 181 149 258 C149 322 165 442 284 442 C327 442 367 425 392 398 C417 372 431 336 431 273 C431 182 417 155 397 129 C374 99 342 79 287 79 L287 79 Z " />
<glyph glyph-name="h" unicode="h" horiz-adv-x="611" d="M88 0 L183 0 L183 266 C183 297 183 344 199 372 C212 396 247 439 317 439 C425 439 425 342 425 297 L425 0 L521 0 L521 314 C521 387 514 411 504 431 C475 492 399 511 346 511 C276 511 214 481 183 428 L183 721 L88 721 L88 0 Z " />
<glyph glyph-name="i" unicode="i" horiz-adv-x="278" d="M79 617 L192 617 L192 720 L79 720 L79 617 Z M89 0 L183 0 L183 502 L89 502 L89 0 Z " />
<glyph glyph-name="j" unicode="j" horiz-adv-x="278" d="M82 616 L196 616 L196 720 L82 720 L82 616 Z M-1 -193 C25 -196 45 -197 57 -197 C183 -197 185 -95 185 -47 L185 502 L91 502 L91 -36 C91 -116 73 -129 -1 -126 L-1 -193 Z " />
<glyph glyph-name="k" unicode="k" horiz-adv-x="500" d="M81 0 L174 0 L174 271 L375 0 L498 0 L273 289 L485 502 L362 502 L174 297 L174 727 L81 727 L81 0 Z " />
<glyph glyph-name="l" unicode="l" horiz-adv-x="278" d="M90 0 L184 0 L184 721 L90 721 L90 0 Z " />
<glyph glyph-name="m" unicode="m" horiz-adv-x="944" d="M87 0 L182 0 L182 285 C182 317 183 358 204 387 C215 402 250 442 314 442 C388 442 424 394 424 332 L424 0 L519 0 L519 281 C519 303 519 358 541 389 C554 407 587 442 648 442 C696 442 728 421 744 398 C753 385 761 366 761 322 L761 0 L856 0 L856 337 C856 485 744 515 672 515 C561 515 520 449 503 421 C485 458 450 515 339 515 C296 515 228 508 180 429 L180 502 L85 502 L87 435 L87 0 Z " />
<glyph glyph-name="n" unicode="n" horiz-adv-x="611" d="M91 0 L185 0 L185 289 C185 390 248 439 316 439 C348 439 381 428 405 405 C428 382 432 352 432 319 L432 0 L528 0 L528 341 C528 495 391 512 346 512 C232 512 196 442 185 421 L184 502 L90 502 L91 444 L91 0 Z " />
<glyph glyph-name="o" unicode="o" horiz-adv-x="611" d="M51 245 C51 98 132 -17 298 -17 C469 -17 552 105 552 252 C552 357 507 515 306 515 C109 515 51 369 51 245 L51 245 Z M149 251 C149 408 246 446 306 446 C394 446 452 380 452 255 C452 104 371 53 300 53 C193 53 149 148 149 251 L149 251 Z " />
<glyph glyph-name="p" unicode="p" horiz-adv-x="611" d="M85 -193 L178 -193 L178 56 C205 12 259 -19 332 -19 C452 -19 561 63 561 250 C561 436 458 510 350 510 C309 510 226 498 179 419 L177 502 L82 502 C84 454 85 442 85 420 L85 -193 Z M175 236 C175 281 175 440 325 440 C436 440 463 346 463 256 C463 220 458 148 422 99 C390 55 340 50 316 50 C184 50 175 175 175 236 L175 236 Z " />
<glyph glyph-name="q" unicode="q" horiz-adv-x="611" d="M434 502 L431 419 C409 454 362 510 260 510 C154 510 49 438 49 253 C49 67 156 -19 278 -19 C301 -19 349 -16 391 13 C414 28 424 44 432 56 L432 -193 L527 -193 L527 420 C527 438 528 482 529 502 L434 502 Z M435 241 C435 141 412 50 296 50 C249 50 210 67 188 99 C152 150 147 223 147 259 C147 298 149 440 284 440 C435 440 435 282 435 241 L435 241 Z " />
<glyph glyph-name="r" unicode="r" horiz-adv-x="389" d="M93 0 L188 0 L188 267 C188 353 214 419 325 419 C336 419 345 419 352 418 C359 417 365 416 370 414 L370 506 C354 507 333 508 305 504 C263 498 203 475 185 405 L183 502 L88 502 C91 469 93 434 93 400 L93 0 Z " />
<glyph glyph-name="s" unicode="s" horiz-adv-x="500" d="M43 149 C42 28 137 -14 239 -14 C291 -14 344 -7 388 20 C425 43 456 91 456 147 C456 179 446 214 418 240 C388 268 358 276 219 309 C193 316 148 327 148 373 C148 445 236 445 250 445 C284 445 350 439 347 363 L443 363 C443 384 443 408 430 436 C400 496 312 514 249 514 C133 514 53 454 53 362 C53 257 141 236 246 212 C321 195 356 186 356 137 C356 120 350 103 340 90 C320 65 291 58 252 58 C161 58 141 111 142 149 L43 149 Z " />
<glyph glyph-name="t" unicode="t" horiz-adv-x="333" d="M11 435 L100 435 L100 100 C100 18 141 -7 227 -7 C261 -7 288 -4 305 -1 L305 72 C297 70 279 67 260 67 C193 67 193 109 193 134 L193 435 L305 435 L305 504 L193 504 L193 639 L100 609 L100 504 L11 504 L11 435 Z " />
<glyph glyph-name="u" unicode="u" horiz-adv-x="611" d="M78 502 L78 165 C78 66 136 -5 260 -5 C368 -5 402 51 420 86 L422 0 L520 0 C519 28 517 84 517 94 L517 502 L420 502 L420 218 C420 193 420 154 399 124 C372 84 328 68 281 68 C185 68 174 130 174 179 L174 502 L78 502 Z " />
<glyph glyph-name="v" unicode="v" horiz-adv-x="556" d="M222 0 L317 0 L537 502 L433 502 L277 104 L117 502 L12 502 L222 0 Z " />
<glyph glyph-name="w" unicode="w" horiz-adv-x="833" d="M12 502 L178 0 L289 0 L420 413 L538 0 L646 0 L823 502 L726 502 L600 106 L486 502 L363 502 L236 102 L115 502 L12 502 Z " />
<glyph glyph-name="x" unicode="x" horiz-adv-x="556" d="M335 257 L531 502 L420 502 L280 313 L146 502 L23 502 L211 263 L12 0 L122 0 L264 201 L407 0 L531 0 L335 257 Z " />
<glyph glyph-name="y" unicode="y" horiz-adv-x="556" d="M537 502 L435 502 L275 106 L118 502 L12 502 L221 2 L145 -190 L242 -190 L314 -3 L537 502 Z " />
<glyph glyph-name="z" unicode="z" horiz-adv-x="444" d="M30 0 L405 0 L405 73 L128 73 L405 422 L405 502 L44 502 L44 431 L298 431 L30 97 L30 0 Z " />
<glyph glyph-name="braceleft" unicode="&#x7b;" horiz-adv-x="334" d="M-1 287 C131 272 131 202 131 138 L131 104 C131 -12 141 -113 335 -125 L335 -74 C213 -64 212 21 212 88 L212 119 C212 198 211 296 79 313 C212 330 212 432 212 506 L212 532 C212 602 212 689 335 699 L335 750 C131 739 131 621 131 514 L131 487 C131 438 131 399 91 370 C58 345 13 339 -1 338 L-1 287 Z " />
<glyph glyph-name="bar" unicode="&#x7c;" horiz-adv-x="260" d="M89 750 L89 -250 L172 -250 L172 750 L89 750 Z " />
<glyph glyph-name="braceright" unicode="&#x7d;" horiz-adv-x="334" d="M335 338 C203 353 203 423 203 487 L203 521 C203 637 193 738 -1 750 L-1 699 C121 689 122 604 122 537 L122 506 C122 427 123 329 255 313 C122 295 122 193 122 119 L122 93 C122 23 122 -64 -1 -74 L-1 -125 C203 -114 203 4 203 111 L203 138 C203 187 203 226 243 255 C276 280 321 286 335 287 L335 338 Z " />
<glyph glyph-name="asciitilde" unicode="&#x7e;" horiz-adv-x="584" d="M82 174 C91 229 128 249 155 249 C175 249 184 246 263 219 C309 203 384 178 424 178 C464 178 543 197 557 328 L503 328 C492 271 460 255 430 255 C406 255 393 259 304 289 C205 321 193 325 159 325 C126 325 95 314 67 281 C40 248 33 216 27 174 L82 174 Z " />
<glyph glyph-name="uni00A0" unicode="&#xa0;" horiz-adv-x="278" d="" />
<glyph glyph-name="exclamdown" unicode="&#xa1;" horiz-adv-x="389" d="M134 402 L240 402 L240 502 L134 502 L134 402 Z M148 337 L127 -220 L238 -220 L221 337 L148 337 Z " />
<glyph glyph-name="cent" unicode="&#xa2;" horiz-adv-x="556" d="M497 341 C493 436 435 479 397 495 L435 630 L387 630 L353 510 C340 512 327 515 302 515 C234 515 177 487 140 448 C89 394 72 319 72 244 C72 168 92 45 209 2 L167 -146 L216 -146 L255 -10 C272 -13 292 -13 296 -13 C424 -13 495 69 501 167 L406 167 C404 95 358 57 296 57 C287 57 283 58 274 60 L374 413 C397 387 400 357 402 341 L497 341 Z M230 78 C181 114 172 201 172 260 C172 342 189 378 208 402 C230 430 263 446 298 446 C316 446 327 442 333 440 L230 78 Z " />
<glyph glyph-name="sterling" unicode="&#xa3;" horiz-adv-x="556" d="M106 347 L106 68 L39 68 L39 0 L523 0 L523 67 L204 67 L204 347 L345 347 L345 414 L204 414 L204 456 C204 548 204 575 234 612 C262 647 305 654 332 654 C400 654 441 612 442 556 L540 556 C540 577 540 618 508 652 C458 706 385 718 330 718 C160 718 122 595 116 569 C104 519 106 462 108 414 L32 414 L32 347 L106 347 Z " />
<glyph glyph-name="currency" unicode="&#xa4;" horiz-adv-x="556" d="M40 157 L89 108 L155 173 C191 147 234 133 279 133 C323 133 365 148 402 173 L467 108 L516 157 L451 223 C462 239 491 282 491 346 C491 391 478 434 451 470 L516 535 L467 584 L403 519 C379 534 339 559 279 559 C214 559 176 535 154 520 L89 585 L40 536 L105 471 C79 434 65 391 65 346 C65 281 93 240 105 222 L40 157 Z M278 485 C354 485 417 424 417 346 C417 269 355 207 278 207 C201 207 139 270 139 346 C139 424 202 485 278 485 L278 485 Z " />
<glyph glyph-name="yen" unicode="&#xa5;" horiz-adv-x="556" d="M44 164 L227 164 L227 0 L328 0 L328 164 L511 164 L511 225 L328 225 L328 280 L511 280 L511 342 L360 342 L556 722 L443 722 L282 368 L124 722 L0 722 L198 342 L44 342 L44 280 L227 280 L227 225 L44 225 L44 164 Z " />
<glyph glyph-name="brokenbar" unicode="&#xa6;" horiz-adv-x="260" d="M89 675 L89 325 L172 325 L172 675 L89 675 Z M89 175 L89 -175 L172 -175 L172 175 L89 175 Z " />
<glyph glyph-name="section" unicode="&#xa7;" horiz-adv-x="556" d="M111 0 C153 -14 192 -21 236 -21 C370 -21 443 45 443 131 C443 224 367 248 332 259 C396 278 434 318 434 387 C434 472 366 495 332 506 L269 527 C236 538 207 548 207 592 C207 651 268 658 298 658 C339 658 373 644 409 630 L409 708 C361 722 318 725 290 725 C182 725 110 676 110 586 C110 522 153 486 204 471 C174 460 95 429 95 341 C95 257 164 236 197 225 L265 204 C303 192 344 175 344 130 C344 117 337 54 244 54 C176 54 129 77 111 86 L111 0 Z M266 282 C237 290 182 306 182 360 C182 415 232 435 263 448 C306 434 351 420 351 370 C351 313 291 291 266 282 L266 282 Z " />
<glyph glyph-name="dieresis" unicode="&#xa8;" horiz-adv-x="278" d="M-3 617 L89 617 L89 719 L-3 719 L-3 617 Z M186 617 L279 617 L279 719 L186 719 L186 617 Z " />
<glyph glyph-name="copyright" unicode="&#xa9;" horiz-adv-x="800" d="M33 362 C33 155 201 -17 413 -17 C622 -17 792 153 792 362 C792 571 622 741 413 741 C201 741 33 569 33 362 L33 362 Z M78 362 C78 545 226 696 413 696 C597 696 747 545 747 362 C747 179 598 28 413 28 C226 28 78 179 78 362 L78 362 Z M556 463 C549 561 471 586 415 586 C272 586 242 446 242 359 C242 277 269 141 407 141 C477 141 547 178 555 261 L495 261 C493 247 483 190 412 190 C320 190 301 281 301 359 C301 429 316 538 412 538 C489 538 496 478 497 463 L556 463 Z " />
<glyph glyph-name="ordfeminine" unicode="&#xaa;" horiz-adv-x="334" d="M299 431 C294 471 294 503 294 507 L296 650 C297 662 296 675 288 693 C272 726 222 741 170 741 C125 741 99 731 85 723 C46 703 43 667 42 652 L103 652 C104 664 106 702 170 702 C236 702 237 668 237 616 C229 617 197 618 189 618 C113 618 23 596 23 511 C23 451 76 421 136 421 C205 421 228 459 238 476 C238 454 242 438 244 431 L299 431 Z M237 577 C236 547 235 525 227 507 C224 501 205 466 152 466 C97 466 84 499 84 518 C84 589 210 580 237 577 L237 577 Z " />
<glyph glyph-name="guillemotleft" unicode="&#xab;" horiz-adv-x="556" d="M274 53 L176 249 L273 443 L194 443 L83 249 L194 53 L274 53 Z M470 53 L372 249 L469 443 L390 443 L279 249 L390 53 L470 53 Z " />
<glyph glyph-name="logicalnot" unicode="&#xac;" horiz-adv-x="584" d="M37 314 L467 314 L467 111 L547 111 L547 391 L37 391 L37 314 Z " />
<glyph glyph-name="uni00AD" unicode="&#xad;" horiz-adv-x="333" d="M42 225 L293 225 L293 301 L42 301 L42 225 Z " />
<glyph glyph-name="registered" unicode="&#xae;" horiz-adv-x="800" d="M273 163 L329 163 L329 347 L399 347 C465 347 481 331 487 269 C495 205 499 189 507 163 L565 163 C551 203 547 241 541 291 C535 341 521 359 479 369 C555 391 555 455 555 467 C555 569 447 569 417 569 L273 569 L273 163 Z M329 521 L417 521 C447 521 497 521 497 457 C497 395 445 395 417 395 L329 395 L329 521 Z M411 741 C209 741 33 575 33 363 C33 151 207 -17 411 -17 C617 -17 789 151 789 363 C789 573 619 741 411 741 L411 741 Z M411 696 C599 696 744 542 744 363 C744 177 595 27 411 27 C229 27 78 175 78 363 C78 546 229 696 411 696 L411 696 Z " />
<glyph glyph-name="macron" unicode="&#xaf;" horiz-adv-x="278" d="M0 642 L275 642 L275 695 L0 695 L0 642 Z " />
<glyph glyph-name="degree" unicode="&#xb0;" horiz-adv-x="400" d="M200 706 C114 706 44 637 44 550 C44 464 114 394 200 394 C287 394 356 465 356 550 C356 637 286 706 200 706 L200 706 Z M200 637 C248 637 287 598 287 550 C287 503 249 463 200 463 C152 463 113 502 113 550 C113 599 153 637 200 637 L200 637 Z " />
<glyph glyph-name="plusminus" unicode="&#xb1;" horiz-adv-x="584" d="M250 104 L334 104 L334 270 L547 270 L547 347 L334 347 L334 515 L250 515 L250 347 L37 347 L37 270 L250 270 L250 104 Z M37 -13 L547 -13 L547 64 L37 64 L37 -13 Z " />
<glyph glyph-name="twosuperior" unicode="&#xb2;" horiz-adv-x="333" d="M24 284 L310 284 L310 331 L96 331 L174 400 C189 413 245 467 259 483 C305 536 309 561 309 586 C309 667 248 706 169 706 C126 706 35 692 30 586 L98 586 C99 599 100 658 171 658 C214 658 244 634 244 591 C244 555 228 523 141 445 L24 338 L24 284 Z " />
<glyph glyph-name="threesuperior" unicode="&#xb3;" horiz-adv-x="333" d="M12 390 C13 372 13 344 38 317 C71 281 123 273 159 273 C259 273 318 330 318 396 C318 404 318 483 222 497 C291 511 312 560 312 594 C312 651 264 706 165 706 C108 706 22 684 19 593 L85 593 C87 633 121 659 167 659 C200 659 246 647 246 593 C246 516 145 519 126 521 L126 472 C157 474 253 478 253 397 C253 360 226 322 165 322 C113 322 80 346 80 390 L12 390 Z " />
<glyph glyph-name="acute" unicode="&#xb4;" horiz-adv-x="278" d="M162 740 L80 596 L145 596 L266 740 L162 740 Z " />
<glyph glyph-name="mu" unicode="&#xb5;" horiz-adv-x="611" d="M89 -209 L169 -209 L169 52 C186 30 215 -11 291 -11 C378 -11 416 44 434 70 L434 0 L508 0 L508 502 L427 502 L427 262 C427 204 422 155 402 121 C374 73 329 58 293 58 C267 58 220 66 192 114 C170 152 169 215 169 260 L169 502 L89 502 L89 -209 Z " />
<glyph glyph-name="paragraph" unicode="&#xb6;" horiz-adv-x="537" d="M526 658 L526 722 L254 722 C49 722 -5 583 -5 486 C-5 390 42 276 198 264 L198 -168 L277 -168 L277 658 L394 658 L394 -168 L472 -168 L472 658 L526 658 Z " />
<glyph glyph-name="periodcentered" unicode="&#xb7;" horiz-adv-x="278" d="M81 231 L192 231 L192 352 L81 352 L81 231 Z " />
<glyph glyph-name="cedilla" unicode="&#xb8;" horiz-adv-x="278" d="M22 -194 C45 -204 68 -214 116 -214 C237 -214 238 -132 238 -124 C238 -94 218 -53 160 -53 C143 -53 131 -56 120 -58 L165 5 L123 5 L60 -83 L75 -100 C88 -95 97 -92 111 -92 C127 -92 162 -96 162 -131 C162 -157 143 -171 109 -171 C72 -171 53 -163 42 -157 L22 -194 Z " />
<glyph glyph-name="onesuperior" unicode="&#xb9;" horiz-adv-x="333" d="M225 284 L225 699 L167 699 C125 666 92 650 58 634 L58 573 C76 581 115 598 163 634 L163 284 L225 284 Z " />
<glyph glyph-name="ordmasculine" unicode="&#xba;" horiz-adv-x="367" d="M208 740 C91 740 44 661 44 578 C44 497 90 420 207 420 C310 420 370 489 370 581 C370 641 344 740 208 740 L208 740 Z M206 463 C130 463 108 531 108 582 C108 638 137 698 209 698 C288 698 305 633 305 583 C305 495 253 463 206 463 L206 463 Z " />
<glyph glyph-name="guillemotright" unicode="&#xbb;" horiz-adv-x="556" d="M81 443 L179 248 L82 53 L161 53 L272 248 L161 443 L81 443 Z M277 443 L375 248 L278 53 L356 53 L468 248 L356 443 L277 443 Z " />
<glyph glyph-name="onequarter" unicode="&#xbc;" horiz-adv-x="834" d="M736 0 L736 90 L802 90 L802 139 L736 139 L736 421 L666 421 L471 161 L471 90 L674 90 L674 0 L736 0 Z M520 139 L675 357 L675 139 L520 139 Z M146 -28 L211 -28 L640 715 L576 715 L146 -28 Z M191 284 L191 699 L134 699 C91 666 59 650 24 634 L24 573 C43 581 81 598 129 634 L129 284 L191 284 Z " />
<glyph glyph-name="onehalf" unicode="&#xbd;" horiz-adv-x="834" d="M146 -28 L211 -28 L640 715 L576 715 L146 -28 Z M191 284 L191 699 L134 699 C91 666 59 650 24 634 L24 573 C43 581 81 598 129 634 L129 284 L191 284 Z M525 0 L811 0 L811 47 L597 47 L675 117 C690 130 746 183 760 199 C806 253 810 277 810 303 C810 383 749 423 670 423 C627 423 536 409 531 302 L599 302 C600 316 601 374 672 374 C715 374 745 350 745 307 C745 272 729 240 642 161 L525 55 L525 0 Z " />
<glyph glyph-name="threequarters" unicode="&#xbe;" horiz-adv-x="834" d="M747 0 L747 90 L813 90 L813 139 L747 139 L747 421 L677 421 L482 161 L482 90 L685 90 L685 0 L747 0 Z M532 139 L686 357 L686 139 L532 139 Z M176 -28 L241 -28 L670 715 L605 715 L176 -28 Z M12 390 C13 372 14 344 38 317 C72 281 124 273 159 273 C259 273 318 330 318 396 C318 404 318 483 222 497 C291 511 312 560 312 594 C312 651 264 706 165 706 C109 706 22 684 19 593 L85 593 C87 633 121 659 167 659 C201 659 246 647 246 593 C246 516 145 519 126 521 L126 472 C158 474 253 478 253 397 C253 360 226 322 165 322 C113 322 80 346 81 390 L12 390 Z " />
<glyph glyph-name="questiondown" unicode="&#xbf;" horiz-adv-x="500" d="M438 -123 C369 -151 316 -151 302 -151 C277 -151 167 -149 167 -47 C167 11 204 50 280 132 C332 187 332 193 332 233 L332 338 L249 338 L249 232 C249 220 248 211 241 201 C240 201 190 149 185 144 C101 61 64 23 64 -55 C64 -98 80 -141 109 -172 C149 -214 213 -234 296 -234 C367 -234 413 -220 438 -213 L438 -123 Z M340 502 L236 502 L236 400 L340 400 L340 502 Z " />
<glyph glyph-name="Agrave" unicode="&#xc0;" horiz-adv-x="722" d="M9 0 L112 0 L190 188 L525 188 L603 0 L712 0 L420 722 L313 722 L9 0 Z M362 623 L495 269 L222 269 L362 623 Z M224 930 L359 786 L421 786 L337 930 L224 930 Z " />
<glyph glyph-name="Aacute" unicode="&#xc1;" horiz-adv-x="722" d="M9 0 L112 0 L190 188 L525 188 L603 0 L712 0 L420 722 L313 722 L9 0 Z M362 623 L495 269 L222 269 L362 623 Z M384 930 L302 786 L367 786 L488 930 L384 930 Z " />
<glyph glyph-name="Acircumflex" unicode="&#xc2;" horiz-adv-x="722" d="M9 0 L112 0 L190 188 L525 188 L603 0 L712 0 L420 722 L313 722 L9 0 Z M362 623 L495 269 L222 269 L362 623 Z M286 786 L357 882 L423 786 L509 786 L405 931 L315 931 L209 786 L286 786 Z " />
<glyph glyph-name="Atilde" unicode="&#xc3;" horiz-adv-x="722" d="M9 0 L112 0 L190 188 L525 188 L603 0 L712 0 L420 722 L313 722 L9 0 Z M362 623 L495 269 L222 269 L362 623 Z M262 802 C271 831 285 838 300 838 C306 838 330 830 350 825 C379 816 395 812 413 812 C449 812 499 836 497 913 L456 913 C456 891 443 876 419 876 C407 876 397 879 382 883 C327 898 320 900 305 900 C280 900 259 890 244 872 C230 855 221 830 220 802 L262 802 Z " />
<glyph glyph-name="Adieresis" unicode="&#xc4;" horiz-adv-x="722" d="M9 0 L112 0 L190 188 L525 188 L603 0 L712 0 L420 722 L313 722 L9 0 Z M362 623 L495 269 L222 269 L362 623 Z M219 797 L311 797 L311 899 L219 899 L219 797 Z M408 797 L501 797 L501 899 L408 899 L408 797 Z " />
<glyph glyph-name="Aring" unicode="&#xc5;" horiz-adv-x="722" d="M9 0 L112 0 L190 188 L525 188 L603 0 L712 0 L420 722 L313 722 L9 0 Z M362 623 L495 269 L222 269 L362 623 Z M263 849 C263 795 307 751 361 751 C415 751 459 795 459 849 C459 903 415 947 361 947 C307 947 263 903 263 849 L263 849 Z M303 849 C303 881 329 907 361 907 C393 907 419 881 419 849 C419 817 393 791 361 791 C329 791 303 817 303 849 L303 849 Z " />
<glyph glyph-name="AE" unicode="&#xc6;" horiz-adv-x="1000" d="M547 201 L581 0 L954 0 L954 86 L667 86 L625 329 L929 329 L929 414 L610 414 L572 637 L943 637 L943 722 L423 722 L2 0 L112 0 L227 201 L547 201 Z M273 282 L475 648 L532 282 L273 282 Z " />
<glyph glyph-name="Ccedilla" unicode="&#xc7;" horiz-adv-x="667" d="M518 190 C515 173 509 142 483 114 C452 82 410 71 366 71 C201 71 162 218 162 354 C162 474 193 652 367 652 C506 652 519 552 523 527 L630 527 C617 691 473 732 371 732 C113 732 55 504 55 353 C55 191 119 -1 338 -11 L286 -83 L301 -100 C314 -95 323 -92 338 -92 C354 -92 389 -96 389 -131 C389 -157 369 -171 335 -171 C299 -171 279 -163 268 -157 L248 -194 C271 -204 294 -214 342 -214 C463 -214 465 -132 465 -124 C465 -94 444 -53 386 -53 C369 -53 357 -56 347 -58 L381 -11 C495 -4 614 54 628 190 L518 190 Z " />
<glyph glyph-name="Egrave" unicode="&#xc8;" horiz-adv-x="611" d="M76 0 L537 0 L537 88 L176 88 L176 328 L512 328 L512 412 L176 412 L176 637 L529 637 L529 722 L76 722 L76 0 Z M169 930 L304 786 L366 786 L282 930 L169 930 Z " />
<glyph glyph-name="Eacute" unicode="&#xc9;" horiz-adv-x="611" d="M76 0 L537 0 L537 88 L176 88 L176 328 L512 328 L512 412 L176 412 L176 637 L529 637 L529 722 L76 722 L76 0 Z M329 930 L247 786 L312 786 L433 930 L329 930 Z " />
<glyph glyph-name="Ecircumflex" unicode="&#xca;" horiz-adv-x="611" d="M76 0 L537 0 L537 88 L176 88 L176 328 L512 328 L512 412 L176 412 L176 637 L529 637 L529 722 L76 722 L76 0 Z M231 786 L302 882 L368 786 L454 786 L350 931 L260 931 L154 786 L231 786 Z " />
<glyph glyph-name="Edieresis" unicode="&#xcb;" horiz-adv-x="611" d="M76 0 L537 0 L537 88 L176 88 L176 328 L512 328 L512 412 L176 412 L176 637 L529 637 L529 722 L76 722 L76 0 Z M164 797 L256 797 L256 899 L164 899 L164 797 Z M353 797 L446 797 L446 899 L353 899 L353 797 Z " />
<glyph glyph-name="Igrave" unicode="&#xcc;" horiz-adv-x="278" d="M88 0 L188 0 L188 722 L88 722 L88 0 Z M2 930 L137 786 L199 786 L115 930 L2 930 Z " />
<glyph glyph-name="Iacute" unicode="&#xcd;" horiz-adv-x="278" d="M88 0 L188 0 L188 722 L88 722 L88 0 Z M162 930 L80 786 L145 786 L266 930 L162 930 Z " />
<glyph glyph-name="Icircumflex" unicode="&#xce;" horiz-adv-x="278" d="M88 0 L188 0 L188 722 L88 722 L88 0 Z M64 786 L135 882 L201 786 L287 786 L183 931 L93 931 L-13 786 L64 786 Z " />
<glyph glyph-name="Idieresis" unicode="&#xcf;" horiz-adv-x="278" d="M88 0 L188 0 L188 722 L88 722 L88 0 Z M-3 797 L89 797 L89 899 L-3 899 L-3 797 Z M186 797 L279 797 L279 899 L186 899 L186 797 Z " />
<glyph glyph-name="Eth" unicode="&#xd0;" horiz-adv-x="722" d="M88 0 L291 0 C397 0 486 0 557 59 C612 103 677 199 677 355 C677 454 652 553 588 628 C508 722 394 722 297 722 L88 722 L88 430 L18 430 L18 369 L88 369 L88 0 Z M188 369 L380 369 L380 430 L188 430 L188 639 L308 639 C396 639 454 627 500 576 C568 501 570 378 570 351 C570 309 567 191 475 122 C427 86 355 82 286 82 L188 82 L188 369 Z " />
<glyph glyph-name="Ntilde" unicode="&#xd1;" horiz-adv-x="778" d="M95 0 L186 0 L186 613 L553 0 L681 0 L681 722 L589 722 L589 125 L234 722 L95 722 L95 0 Z M290 802 C299 831 313 838 328 838 C334 838 358 830 378 825 C407 816 423 812 441 812 C477 812 527 836 525 913 L484 913 C484 891 471 876 447 876 C435 876 425 879 410 883 C355 898 348 900 333 900 C308 900 287 890 272 872 C258 855 249 830 248 802 L290 802 Z " />
<glyph glyph-name="Ograve" unicode="&#xd2;" horiz-adv-x="778" d="M59 356 C59 158 139 -17 385 -17 C642 -17 719 176 719 368 C719 613 593 741 393 741 C326 741 227 725 152 644 C73 559 59 438 59 356 L59 356 Z M164 362 C164 510 211 657 394 657 C559 657 613 533 613 369 C613 320 607 206 548 134 C506 84 447 68 388 68 C331 68 269 83 228 134 C178 196 164 283 164 362 L164 362 Z M252 930 L387 786 L449 786 L365 930 L252 930 Z " />
<glyph glyph-name="Oacute" unicode="&#xd3;" horiz-adv-x="778" d="M59 356 C59 158 139 -17 385 -17 C642 -17 719 176 719 368 C719 613 593 741 393 741 C326 741 227 725 152 644 C73 559 59 438 59 356 L59 356 Z M164 362 C164 510 211 657 394 657 C559 657 613 533 613 369 C613 320 607 206 548 134 C506 84 447 68 388 68 C331 68 269 83 228 134 C178 196 164 283 164 362 L164 362 Z M412 930 L330 786 L395 786 L516 930 L412 930 Z " />
<glyph glyph-name="Ocircumflex" unicode="&#xd4;" horiz-adv-x="778" d="M59 356 C59 158 139 -17 385 -17 C642 -17 719 176 719 368 C719 613 593 741 393 741 C326 741 227 725 152 644 C73 559 59 438 59 356 L59 356 Z M164 362 C164 510 211 657 394 657 C559 657 613 533 613 369 C613 320 607 206 548 134 C506 84 447 68 388 68 C331 68 269 83 228 134 C178 196 164 283 164 362 L164 362 Z M314 786 L385 882 L451 786 L537 786 L433 931 L343 931 L237 786 L314 786 Z " />
<glyph glyph-name="Otilde" unicode="&#xd5;" horiz-adv-x="778" d="M59 356 C59 158 139 -17 385 -17 C642 -17 719 176 719 368 C719 613 593 741 393 741 C326 741 227 725 152 644 C73 559 59 438 59 356 L59 356 Z M164 362 C164 510 211 657 394 657 C559 657 613 533 613 369 C613 320 607 206 548 134 C506 84 447 68 388 68 C331 68 269 83 228 134 C178 196 164 283 164 362 L164 362 Z M290 802 C299 831 313 838 328 838 C334 838 358 830 378 825 C407 816 423 812 441 812 C477 812 527 836 525 913 L484 913 C484 891 471 876 447 876 C435 876 425 879 410 883 C355 898 348 900 333 900 C308 900 287 890 272 872 C258 855 249 830 248 802 L290 802 Z " />
<glyph glyph-name="Odieresis" unicode="&#xd6;" horiz-adv-x="778" d="M59 356 C59 158 139 -17 385 -17 C642 -17 719 176 719 368 C719 613 593 741 393 741 C326 741 227 725 152 644 C73 559 59 438 59 356 L59 356 Z M164 362 C164 510 211 657 394 657 C559 657 613 533 613 369 C613 320 607 206 548 134 C506 84 447 68 388 68 C331 68 269 83 228 134 C178 196 164 283 164 362 L164 362 Z M247 797 L339 797 L339 899 L247 899 L247 797 Z M436 797 L529 797 L529 899 L436 899 L436 797 Z " />
<glyph glyph-name="multiply" unicode="&#xd7;" horiz-adv-x="584" d="M47 65 L104 8 L290 194 L476 8 L533 65 L348 251 L534 437 L476 494 L290 309 L104 494 L47 437 L233 251 L47 65 Z " />
<glyph glyph-name="Oslash" unicode="&#xd8;" horiz-adv-x="778" d="M638 799 L571 695 C544 711 491 741 391 741 C304 741 218 713 157 651 C74 566 59 441 59 358 C59 164 130 92 163 59 L68 -88 L131 -88 L205 27 C240 9 290 -17 388 -17 C657 -17 719 201 719 363 C719 469 698 586 614 663 L700 799 L638 799 Z M219 147 C175 209 164 286 164 361 C164 506 210 657 391 657 C472 657 506 633 523 619 L219 147 Z M559 579 C602 518 613 442 613 367 C613 225 572 68 389 68 C342 68 293 77 256 107 L559 579 Z " />
<glyph glyph-name="Ugrave" unicode="&#xd9;" horiz-adv-x="778" d="M93 722 L93 282 C93 174 113 132 135 100 C202 4 322 -15 390 -15 C442 -15 552 -4 623 85 C681 157 682 238 682 277 L682 722 L585 722 L585 279 C585 227 585 74 390 74 C340 74 270 85 225 145 C210 166 193 198 193 275 L193 722 L93 722 Z M252 930 L387 786 L449 786 L365 930 L252 930 Z " />
<glyph glyph-name="Uacute" unicode="&#xda;" horiz-adv-x="778" d="M93 722 L93 282 C93 174 113 132 135 100 C202 4 322 -15 390 -15 C442 -15 552 -4 623 85 C681 157 682 238 682 277 L682 722 L585 722 L585 279 C585 227 585 74 390 74 C340 74 270 85 225 145 C210 166 193 198 193 275 L193 722 L93 722 Z M412 930 L330 786 L395 786 L516 930 L412 930 Z " />
<glyph glyph-name="Ucircumflex" unicode="&#xdb;" horiz-adv-x="778" d="M93 722 L93 282 C93 174 113 132 135 100 C202 4 322 -15 390 -15 C442 -15 552 -4 623 85 C681 157 682 238 682 277 L682 722 L585 722 L585 279 C585 227 585 74 390 74 C340 74 270 85 225 145 C210 166 193 198 193 275 L193 722 L93 722 Z M314 786 L385 882 L451 786 L537 786 L433 931 L343 931 L237 786 L314 786 Z " />
<glyph glyph-name="Udieresis" unicode="&#xdc;" horiz-adv-x="778" d="M93 722 L93 282 C93 174 113 132 135 100 C202 4 322 -15 390 -15 C442 -15 552 -4 623 85 C681 157 682 238 682 277 L682 722 L585 722 L585 279 C585 227 585 74 390 74 C340 74 270 85 225 145 C210 166 193 198 193 275 L193 722 L93 722 Z M247 797 L339 797 L339 899 L247 899 L247 797 Z M436 797 L529 797 L529 899 L436 899 L436 797 Z " />
<glyph glyph-name="Yacute" unicode="&#xdd;" horiz-adv-x="667" d="M289 0 L390 0 L390 279 L672 722 L560 722 L344 368 L131 722 L7 722 L289 284 L289 0 Z M357 930 L275 786 L340 786 L461 930 L357 930 Z " />
<glyph glyph-name="Thorn" unicode="&#xde;" horiz-adv-x="611" d="M88 719 L88 0 L188 0 L188 200 L305 200 C437 200 486 225 523 262 C562 301 580 348 580 403 C580 457 563 506 527 543 C485 588 437 601 330 601 L188 601 L188 719 L88 719 Z M188 520 L328 520 C380 520 474 520 474 407 C474 289 373 284 307 284 L188 284 L188 520 Z " />
<glyph glyph-name="germandbls" unicode="&#xdf;" horiz-adv-x="667" d="M90 0 L184 0 L184 525 C184 630 221 671 315 671 C402 671 439 629 439 579 C439 543 422 530 395 510 C350 476 312 448 312 391 C312 347 337 316 388 285 L448 248 C481 227 516 204 516 151 C516 118 498 61 424 61 C376 61 342 89 343 144 L251 144 C251 124 251 101 263 71 C290 6 359 -9 415 -9 C519 -9 611 54 611 166 C611 225 588 261 521 304 L434 361 C419 371 408 386 408 404 C408 432 422 443 477 485 C512 511 531 537 531 586 C531 703 414 735 319 735 C105 735 90 610 90 528 L90 0 Z " />
<glyph glyph-name="agrave" unicode="&#xe0;" horiz-adv-x="556" d="M479 0 C472 51 471 118 471 126 L475 366 C475 389 474 413 458 443 C431 494 353 517 280 517 C227 517 156 505 118 463 C89 429 86 394 83 368 L177 368 C178 388 183 453 278 453 C305 453 346 445 365 420 C383 398 383 371 383 309 C354 311 339 312 315 312 C275 312 195 309 141 279 C67 236 53 172 53 132 C53 49 115 -16 230 -16 C272 -16 340 -8 385 75 C385 49 387 25 394 0 L479 0 Z M383 244 C381 174 380 146 359 112 C336 77 300 58 252 58 C168 58 148 113 148 145 C148 247 291 247 329 247 C352 247 366 246 383 244 L383 244 Z M141 740 L276 596 L338 596 L254 740 L141 740 Z " />
<glyph glyph-name="aacute" unicode="&#xe1;" horiz-adv-x="556" d="M479 0 C472 51 471 118 471 126 L475 366 C475 389 474 413 458 443 C431 494 353 517 280 517 C227 517 156 505 118 463 C89 429 86 394 83 368 L177 368 C178 388 183 453 278 453 C305 453 346 445 365 420 C383 398 383 371 383 309 C354 311 339 312 315 312 C275 312 195 309 141 279 C67 236 53 172 53 132 C53 49 115 -16 230 -16 C272 -16 340 -8 385 75 C385 49 387 25 394 0 L479 0 Z M383 244 C381 174 380 146 359 112 C336 77 300 58 252 58 C168 58 148 113 148 145 C148 247 291 247 329 247 C352 247 366 246 383 244 L383 244 Z M301 740 L219 596 L284 596 L405 740 L301 740 Z " />
<glyph glyph-name="acircumflex" unicode="&#xe2;" horiz-adv-x="556" d="M479 0 C472 51 471 118 471 126 L475 366 C475 389 474 413 458 443 C431 494 353 517 280 517 C227 517 156 505 118 463 C89 429 86 394 83 368 L177 368 C178 388 183 453 278 453 C305 453 346 445 365 420 C383 398 383 371 383 309 C354 311 339 312 315 312 C275 312 195 309 141 279 C67 236 53 172 53 132 C53 49 115 -16 230 -16 C272 -16 340 -8 385 75 C385 49 387 25 394 0 L479 0 Z M383 244 C381 174 380 146 359 112 C336 77 300 58 252 58 C168 58 148 113 148 145 C148 247 291 247 329 247 C352 247 366 246 383 244 L383 244 Z M203 596 L274 692 L340 596 L426 596 L322 741 L232 741 L126 596 L203 596 Z " />
<glyph glyph-name="atilde" unicode="&#xe3;" horiz-adv-x="556" d="M479 0 C472 51 471 118 471 126 L475 366 C475 389 474 413 458 443 C431 494 353 517 280 517 C227 517 156 505 118 463 C89 429 86 394 83 368 L177 368 C178 388 183 453 278 453 C305 453 346 445 365 420 C383 398 383 371 383 309 C354 311 339 312 315 312 C275 312 195 309 141 279 C67 236 53 172 53 132 C53 49 115 -16 230 -16 C272 -16 340 -8 385 75 C385 49 387 25 394 0 L479 0 Z M383 244 C381 174 380 146 359 112 C336 77 300 58 252 58 C168 58 148 113 148 145 C148 247 291 247 329 247 C352 247 366 246 383 244 L383 244 Z M179 612 C188 641 202 648 217 648 C223 648 247 640 267 635 C296 626 312 622 330 622 C366 622 416 646 414 723 L373 723 C373 701 360 686 336 686 C324 686 314 689 299 693 C244 708 237 710 222 710 C197 710 176 700 161 682 C147 665 138 640 137 612 L179 612 Z " />
<glyph glyph-name="adieresis" unicode="&#xe4;" horiz-adv-x="556" d="M479 0 C472 51 471 118 471 126 L475 366 C475 389 474 413 458 443 C431 494 353 517 280 517 C227 517 156 505 118 463 C89 429 86 394 83 368 L177 368 C178 388 183 453 278 453 C305 453 346 445 365 420 C383 398 383 371 383 309 C354 311 339 312 315 312 C275 312 195 309 141 279 C67 236 53 172 53 132 C53 49 115 -16 230 -16 C272 -16 340 -8 385 75 C385 49 387 25 394 0 L479 0 Z M383 244 C381 174 380 146 359 112 C336 77 300 58 252 58 C168 58 148 113 148 145 C148 247 291 247 329 247 C352 247 366 246 383 244 L383 244 Z M136 617 L228 617 L228 719 L136 719 L136 617 Z M325 617 L418 617 L418 719 L325 719 L325 617 Z " />
<glyph glyph-name="aring" unicode="&#xe5;" horiz-adv-x="556" d="M479 0 C472 51 471 118 471 126 L475 366 C475 389 474 413 458 443 C431 494 353 517 280 517 C227 517 156 505 118 463 C89 429 86 394 83 368 L177 368 C178 388 183 453 278 453 C305 453 346 445 365 420 C383 398 383 371 383 309 C354 311 339 312 315 312 C275 312 195 309 141 279 C67 236 53 172 53 132 C53 49 115 -16 230 -16 C272 -16 340 -8 385 75 C385 49 387 25 394 0 L479 0 Z M383 244 C381 174 380 146 359 112 C336 77 300 58 252 58 C168 58 148 113 148 145 C148 247 291 247 329 247 C352 247 366 246 383 244 L383 244 Z M180 669 C180 615 224 571 278 571 C332 571 376 615 376 669 C376 723 332 767 278 767 C224 767 180 723 180 669 L180 669 Z M220 669 C220 701 246 727 278 727 C310 727 336 701 336 669 C336 637 310 611 278 611 C246 611 220 637 220 669 L220 669 Z " />
<glyph glyph-name="ae" unicode="&#xe6;" horiz-adv-x="889" d="M734 155 C733 115 706 54 623 54 C580 54 535 75 510 121 C489 157 487 208 486 237 L833 237 C833 297 832 360 808 409 C766 495 678 515 626 515 C610 515 500 515 453 410 C439 454 402 514 274 514 C201 514 161 495 137 479 C84 445 80 392 78 369 L171 369 C175 433 233 447 279 447 C395 447 400 362 400 307 C381 307 356 308 334 308 C301 308 248 307 202 300 C96 283 50 213 50 144 C50 73 99 -13 249 -13 C395 -13 431 73 444 104 C491 -14 612 -14 633 -14 C691 -14 810 7 830 155 L734 155 Z M488 304 C490 328 493 362 514 391 C537 423 574 445 621 445 C693 445 718 393 723 381 C735 355 736 324 736 304 L488 304 Z M400 241 C400 205 400 157 375 118 C357 89 320 54 256 54 C205 54 142 77 142 142 C142 233 253 238 281 240 C325 242 379 241 400 241 L400 241 Z " />
<glyph glyph-name="ccedilla" unicode="&#xe7;" horiz-adv-x="500" d="M378 167 C376 118 349 58 269 58 C169 58 144 154 144 257 C144 295 144 446 274 446 C365 446 372 364 374 341 L469 341 C467 369 464 410 427 453 C381 508 306 515 273 515 C181 515 45 463 45 240 C45 123 88 6 244 -12 L193 -83 L208 -100 C221 -95 230 -92 244 -92 C260 -92 295 -96 295 -131 C295 -157 275 -171 241 -171 C205 -171 186 -163 174 -157 L155 -194 C177 -204 201 -214 248 -214 C370 -214 371 -132 371 -124 C371 -94 351 -53 292 -53 C275 -53 263 -56 253 -58 L286 -12 C401 -5 468 73 473 167 L378 167 Z " />
<glyph glyph-name="egrave" unicode="&#xe8;" horiz-adv-x="556" d="M506 234 C508 316 513 515 288 515 C259 515 199 512 151 478 C72 423 52 341 52 242 C52 83 127 -15 285 -15 C386 -15 436 27 458 52 C494 91 498 132 501 157 L407 157 C399 85 350 53 289 53 C186 53 143 130 145 234 L506 234 Z M149 300 C151 411 225 448 286 448 C402 448 411 348 410 300 L149 300 Z M141 740 L276 596 L338 596 L254 740 L141 740 Z " />
<glyph glyph-name="eacute" unicode="&#xe9;" horiz-adv-x="556" d="M506 234 C508 316 513 515 288 515 C259 515 199 512 151 478 C72 423 52 341 52 242 C52 83 127 -15 285 -15 C386 -15 436 27 458 52 C494 91 498 132 501 157 L407 157 C399 85 350 53 289 53 C186 53 143 130 145 234 L506 234 Z M149 300 C151 411 225 448 286 448 C402 448 411 348 410 300 L149 300 Z M301 740 L219 596 L284 596 L405 740 L301 740 Z " />
<glyph glyph-name="ecircumflex" unicode="&#xea;" horiz-adv-x="556" d="M506 234 C508 316 513 515 288 515 C259 515 199 512 151 478 C72 423 52 341 52 242 C52 83 127 -15 285 -15 C386 -15 436 27 458 52 C494 91 498 132 501 157 L407 157 C399 85 350 53 289 53 C186 53 143 130 145 234 L506 234 Z M149 300 C151 411 225 448 286 448 C402 448 411 348 410 300 L149 300 Z M203 596 L274 692 L340 596 L426 596 L322 741 L232 741 L126 596 L203 596 Z " />
<glyph glyph-name="edieresis" unicode="&#xeb;" horiz-adv-x="556" d="M506 234 C508 316 513 515 288 515 C259 515 199 512 151 478 C72 423 52 341 52 242 C52 83 127 -15 285 -15 C386 -15 436 27 458 52 C494 91 498 132 501 157 L407 157 C399 85 350 53 289 53 C186 53 143 130 145 234 L506 234 Z M149 300 C151 411 225 448 286 448 C402 448 411 348 410 300 L149 300 Z M136 617 L228 617 L228 719 L136 719 L136 617 Z M325 617 L418 617 L418 719 L325 719 L325 617 Z " />
<glyph glyph-name="igrave" unicode="&#xec;" horiz-adv-x="278" d="M93 0 L183 0 L183 502 L93 502 L93 0 Z M2 740 L137 596 L199 596 L115 740 L2 740 Z " />
<glyph glyph-name="iacute" unicode="&#xed;" horiz-adv-x="278" d="M93 0 L183 0 L183 502 L93 502 L93 0 Z M162 740 L80 596 L145 596 L266 740 L162 740 Z " />
<glyph glyph-name="icircumflex" unicode="&#xee;" horiz-adv-x="278" d="M93 0 L183 0 L183 502 L93 502 L93 0 Z M64 596 L135 692 L201 596 L287 596 L183 741 L93 741 L-13 596 L64 596 Z " />
<glyph glyph-name="idieresis" unicode="&#xef;" horiz-adv-x="278" d="M93 0 L183 0 L183 502 L93 502 L93 0 Z M-3 617 L89 617 L89 719 L-3 719 L-3 617 Z M186 617 L279 617 L279 719 L186 719 L186 617 Z " />
<glyph glyph-name="eth" unicode="&#xf0;" horiz-adv-x="611" d="M124 598 L160 563 L256 620 C343 559 402 501 439 435 C418 460 380 506 288 506 C182 506 54 436 54 244 C54 68 162 -17 302 -17 C468 -17 558 98 558 271 C558 495 414 606 334 667 L424 719 L388 755 L289 697 C238 730 223 740 188 758 L126 699 C146 689 164 679 210 650 L124 598 Z M307 54 C204 54 155 144 155 249 C155 379 221 443 310 443 C401 443 458 374 458 251 C458 96 369 54 307 54 L307 54 Z " />
<glyph glyph-name="ntilde" unicode="&#xf1;" horiz-adv-x="611" d="M91 0 L185 0 L185 289 C185 390 248 439 316 439 C348 439 381 428 405 405 C428 382 432 352 432 319 L432 0 L528 0 L528 341 C528 495 391 512 346 512 C232 512 196 442 185 421 L184 502 L90 502 L91 444 L91 0 Z M207 612 C216 641 230 648 245 648 C251 648 275 640 295 635 C324 626 340 622 358 622 C394 622 444 646 442 723 L401 723 C401 701 388 686 364 686 C352 686 342 689 327 693 C272 708 265 710 250 710 C225 710 204 700 189 682 C175 665 166 640 165 612 L207 612 Z " />
<glyph glyph-name="ograve" unicode="&#xf2;" horiz-adv-x="611" d="M51 245 C51 98 132 -17 298 -17 C469 -17 552 105 552 252 C552 357 507 515 306 515 C109 515 51 369 51 245 L51 245 Z M149 251 C149 408 246 446 306 446 C394 446 452 380 452 255 C452 104 371 53 300 53 C193 53 149 148 149 251 L149 251 Z M169 740 L304 596 L366 596 L282 740 L169 740 Z " />
<glyph glyph-name="oacute" unicode="&#xf3;" horiz-adv-x="611" d="M51 245 C51 98 132 -17 298 -17 C469 -17 552 105 552 252 C552 357 507 515 306 515 C109 515 51 369 51 245 L51 245 Z M149 251 C149 408 246 446 306 446 C394 446 452 380 452 255 C452 104 371 53 300 53 C193 53 149 148 149 251 L149 251 Z M329 740 L247 596 L312 596 L433 740 L329 740 Z " />
<glyph glyph-name="ocircumflex" unicode="&#xf4;" horiz-adv-x="611" d="M51 245 C51 98 132 -17 298 -17 C469 -17 552 105 552 252 C552 357 507 515 306 515 C109 515 51 369 51 245 L51 245 Z M149 251 C149 408 246 446 306 446 C394 446 452 380 452 255 C452 104 371 53 300 53 C193 53 149 148 149 251 L149 251 Z M231 596 L302 692 L368 596 L454 596 L350 741 L260 741 L154 596 L231 596 Z " />
<glyph glyph-name="otilde" unicode="&#xf5;" horiz-adv-x="611" d="M51 245 C51 98 132 -17 298 -17 C469 -17 552 105 552 252 C552 357 507 515 306 515 C109 515 51 369 51 245 L51 245 Z M149 251 C149 408 246 446 306 446 C394 446 452 380 452 255 C452 104 371 53 300 53 C193 53 149 148 149 251 L149 251 Z M207 612 C216 641 230 648 245 648 C251 648 275 640 295 635 C324 626 340 622 358 622 C394 622 444 646 442 723 L401 723 C401 701 388 686 364 686 C352 686 342 689 327 693 C272 708 265 710 250 710 C225 710 204 700 189 682 C175 665 166 640 165 612 L207 612 Z " />
<glyph glyph-name="odieresis" unicode="&#xf6;" horiz-adv-x="611" d="M51 245 C51 98 132 -17 298 -17 C469 -17 552 105 552 252 C552 357 507 515 306 515 C109 515 51 369 51 245 L51 245 Z M149 251 C149 408 246 446 306 446 C394 446 452 380 452 255 C452 104 371 53 300 53 C193 53 149 148 149 251 L149 251 Z M164 617 L256 617 L256 719 L164 719 L164 617 Z M353 617 L446 617 L446 719 L353 719 L353 617 Z " />
<glyph glyph-name="divide" unicode="&#xf7;" horiz-adv-x="584" d="M37 212 L547 212 L547 290 L37 290 L37 212 Z M242 10 L342 10 L342 129 L242 129 L242 10 Z M242 373 L342 373 L342 492 L242 492 L242 373 Z " />
<glyph glyph-name="oslash" unicode="&#xf8;" horiz-adv-x="611" d="M477 597 L416 494 C379 508 339 515 299 515 C133 515 51 394 51 248 C51 106 116 52 141 31 L61 -104 L120 -104 L185 5 C214 -9 253 -17 298 -17 C468 -17 552 105 552 251 C552 322 535 409 460 468 L537 597 L477 597 Z M187 109 C159 149 149 208 149 252 C149 346 194 446 303 446 C330 446 353 440 377 428 L187 109 Z M415 393 C445 352 452 301 452 250 C452 115 379 53 300 53 C260 53 236 67 225 73 L415 393 Z " />
<glyph glyph-name="ugrave" unicode="&#xf9;" horiz-adv-x="611" d="M78 502 L78 165 C78 66 136 -5 260 -5 C368 -5 402 51 420 86 L422 0 L520 0 C519 28 517 84 517 94 L517 502 L420 502 L420 218 C420 193 420 154 399 124 C372 84 328 68 281 68 C185 68 174 130 174 179 L174 502 L78 502 Z M169 740 L304 596 L366 596 L282 740 L169 740 Z " />
<glyph glyph-name="uacute" unicode="&#xfa;" horiz-adv-x="611" d="M78 502 L78 165 C78 66 136 -5 260 -5 C368 -5 402 51 420 86 L422 0 L520 0 C519 28 517 84 517 94 L517 502 L420 502 L420 218 C420 193 420 154 399 124 C372 84 328 68 281 68 C185 68 174 130 174 179 L174 502 L78 502 Z M329 740 L247 596 L312 596 L433 740 L329 740 Z " />
<glyph glyph-name="ucircumflex" unicode="&#xfb;" horiz-adv-x="611" d="M78 502 L78 165 C78 66 136 -5 260 -5 C368 -5 402 51 420 86 L422 0 L520 0 C519 28 517 84 517 94 L517 502 L420 502 L420 218 C420 193 420 154 399 124 C372 84 328 68 281 68 C185 68 174 130 174 179 L174 502 L78 502 Z M231 596 L302 692 L368 596 L454 596 L350 741 L260 741 L154 596 L231 596 Z " />
<glyph glyph-name="udieresis" unicode="&#xfc;" horiz-adv-x="611" d="M78 502 L78 165 C78 66 136 -5 260 -5 C368 -5 402 51 420 86 L422 0 L520 0 C519 28 517 84 517 94 L517 502 L420 502 L420 218 C420 193 420 154 399 124 C372 84 328 68 281 68 C185 68 174 130 174 179 L174 502 L78 502 Z M164 617 L256 617 L256 719 L164 719 L164 617 Z M353 617 L446 617 L446 719 L353 719 L353 617 Z " />
<glyph glyph-name="yacute" unicode="&#xfd;" horiz-adv-x="556" d="M537 502 L435 502 L275 106 L118 502 L12 502 L221 2 L145 -190 L242 -190 L314 -3 L537 502 Z M301 740 L219 596 L284 596 L405 740 L301 740 Z " />
<glyph glyph-name="thorn" unicode="&#xfe;" horiz-adv-x="611" d="M85 -193 L178 -193 L178 56 C205 12 259 -19 332 -19 C452 -19 561 63 561 250 C561 436 458 510 350 510 C309 510 226 498 179 419 L179 721 L85 721 L85 -193 Z M175 236 C175 281 175 440 325 440 C436 440 463 346 463 256 C463 220 458 148 422 99 C390 55 340 50 316 50 C184 50 175 175 175 236 L175 236 Z " />
<glyph glyph-name="ydieresis" unicode="&#xff;" horiz-adv-x="556" d="M537 502 L435 502 L275 106 L118 502 L12 502 L221 2 L145 -190 L242 -190 L314 -3 L537 502 Z M136 617 L228 617 L228 719 L136 719 L136 617 Z M325 617 L418 617 L418 719 L325 719 L325 617 Z " />
<glyph glyph-name="dotlessi" unicode="&#x131;" horiz-adv-x="278" d="M93 0 L183 0 L183 502 L93 502 L93 0 Z " />
<glyph glyph-name="Lslash" unicode="&#x141;" horiz-adv-x="556" d="M93 0 L528 0 L528 89 L192 89 L192 366 L385 486 L385 559 L192 439 L192 722 L93 722 L93 377 L19 332 L19 258 L93 304 L93 0 Z " />
<glyph glyph-name="lslash" unicode="&#x142;" horiz-adv-x="278" d="M90 0 L184 0 L184 357 L250 398 L250 470 L184 429 L184 721 L90 721 L90 371 L24 330 L24 258 L90 299 L90 0 Z " />
<glyph glyph-name="OE" unicode="&#x152;" horiz-adv-x="1000" d="M947 86 L604 86 L604 329 L928 329 L928 412 L604 412 L604 639 L944 639 L944 722 L484 722 C478 722 458 723 439 724 C420 724 400 725 393 725 C311 725 245 710 195 678 C78 604 44 482 44 364 C44 117 197 0 368 0 L947 0 L947 86 Z M503 85 C454 83 436 83 409 83 C306 83 245 111 209 157 C160 219 148 301 148 365 C148 426 159 516 217 578 C246 610 295 646 393 646 C428 646 452 644 503 641 L503 85 Z " />
<glyph glyph-name="oe" unicode="&#x153;" horiz-adv-x="944" d="M795 155 C789 96 744 54 682 54 C639 54 592 76 568 118 C546 155 545 211 545 234 L895 234 C896 268 897 310 886 359 C870 437 806 514 686 514 C655 514 536 509 496 388 C479 424 437 511 304 511 C141 511 52 386 52 246 C52 131 116 -15 299 -15 C361 -15 411 3 449 38 C476 63 487 88 495 104 C504 85 516 58 548 31 C585 1 634 -16 686 -16 C748 -16 870 11 887 155 L795 155 Z M548 303 C549 325 552 362 573 393 C594 423 630 447 682 447 C735 447 765 423 781 391 C798 358 797 319 797 303 L548 303 Z M154 254 C154 336 187 442 306 442 C415 442 453 344 453 249 C453 164 419 53 305 53 C245 53 213 80 196 102 C157 154 154 232 154 254 L154 254 Z " />
<glyph glyph-name="Scaron" unicode="&#x160;" horiz-adv-x="667" d="M56 211 C56 176 57 118 98 65 C155 -8 267 -17 322 -17 C507 -17 607 80 607 208 C607 238 602 308 535 352 C493 380 474 384 302 428 C214 449 172 471 172 535 C172 607 232 652 332 652 C403 652 479 632 484 542 L588 542 C586 572 584 621 544 665 C486 728 389 736 341 736 C205 736 66 672 66 525 C66 477 82 423 141 383 C178 358 227 346 337 319 C438 294 503 278 503 197 C503 161 484 68 334 68 C168 68 162 161 160 211 L56 211 Z M285 786 L378 786 L482 929 L403 929 L334 833 L267 929 L181 929 L285 786 Z " />
<glyph glyph-name="scaron" unicode="&#x161;" horiz-adv-x="500" d="M43 149 C42 28 137 -14 239 -14 C291 -14 344 -7 388 20 C425 43 456 91 456 147 C456 179 446 214 418 240 C388 268 358 276 219 309 C193 316 148 327 148 373 C148 445 236 445 250 445 C284 445 350 439 347 363 L443 363 C443 384 443 408 430 436 C400 496 312 514 249 514 C133 514 53 454 53 362 C53 257 141 236 246 212 C321 195 356 186 356 137 C356 120 350 103 340 90 C320 65 291 58 252 58 C161 58 141 111 142 149 L43 149 Z M201 596 L294 596 L398 739 L319 739 L250 643 L183 739 L97 739 L201 596 Z " />
<glyph glyph-name="Ydieresis" unicode="&#x178;" horiz-adv-x="667" d="M289 0 L390 0 L390 279 L672 722 L560 722 L344 368 L131 722 L7 722 L289 284 L289 0 Z M192 797 L284 797 L284 899 L192 899 L192 797 Z M381 797 L474 797 L474 899 L381 899 L381 797 Z " />
<glyph glyph-name="Zcaron" unicode="&#x17d;" horiz-adv-x="611" d="M35 0 L578 0 L578 88 L150 88 L571 623 L571 722 L46 722 L46 634 L452 634 L35 100 L35 0 Z M257 786 L350 786 L454 929 L375 929 L306 833 L239 929 L153 929 L257 786 Z " />
<glyph glyph-name="zcaron" unicode="&#x17e;" horiz-adv-x="444" d="M30 0 L405 0 L405 73 L128 73 L405 422 L405 502 L44 502 L44 431 L298 431 L30 97 L30 0 Z M173 596 L266 596 L370 739 L291 739 L222 643 L155 739 L69 739 L173 596 Z " />
<glyph glyph-name="florin" unicode="&#x192;" horiz-adv-x="556" d="M137 417 L125 350 L215 350 L157 49 C134 -59 130 -79 119 -98 C112 -110 93 -127 62 -127 C55 -127 51 -126 46 -125 L34 -197 C197 -206 214 -124 242 25 L303 350 L406 350 L420 417 L315 417 L338 525 C346 567 366 611 425 611 C438 611 451 609 460 608 L471 678 C449 682 435 684 417 684 C385 684 337 676 303 646 C272 618 261 575 251 527 L228 417 L137 417 Z " />
<glyph glyph-name="circumflex" unicode="&#x2c6;" horiz-adv-x="278" d="M64 596 L135 692 L201 596 L287 596 L183 741 L93 741 L-13 596 L64 596 Z " />
<glyph glyph-name="caron" unicode="&#x2c7;" horiz-adv-x="278" d="M90 596 L183 596 L287 739 L208 739 L139 643 L72 739 L-14 739 L90 596 Z " />
<glyph glyph-name="uni02C9" unicode="&#x2c9;" horiz-adv-x="278" d="M0 642 L275 642 L275 695 L0 695 L0 642 Z " />
<glyph glyph-name="breve" unicode="&#x2d8;" horiz-adv-x="278" d="M2 751 C2 713 3 594 137 594 C230 594 279 649 276 751 L229 751 C228 732 222 657 137 657 C77 657 51 694 49 751 L2 751 Z " />
<glyph glyph-name="dotaccent" unicode="&#x2d9;" horiz-adv-x="278" d="M93 617 L185 617 L185 719 L93 719 L93 617 Z " />
<glyph glyph-name="ring" unicode="&#x2da;" horiz-adv-x="278" d="M41 669 C41 615 85 571 139 571 C193 571 237 615 237 669 C237 723 193 767 139 767 C85 767 41 723 41 669 L41 669 Z M81 669 C81 701 107 727 139 727 C171 727 197 701 197 669 C197 637 171 611 139 611 C107 611 81 637 81 669 L81 669 Z " />
<glyph glyph-name="ogonek" unicode="&#x2db;" horiz-adv-x="278" d="M233 -132 C222 -139 211 -144 188 -144 C180 -144 124 -144 124 -94 C124 -52 166 -26 206 1 L166 1 C100 -28 45 -68 45 -124 C45 -155 68 -198 139 -198 C184 -198 209 -185 233 -173 L233 -132 Z " />
<glyph glyph-name="tilde" unicode="&#x2dc;" horiz-adv-x="278" d="M40 612 C49 641 63 648 78 648 C84 648 108 640 128 635 C157 626 173 622 191 622 C227 622 277 646 275 723 L234 723 C234 701 221 686 197 686 C185 686 175 689 160 693 C105 708 98 710 83 710 C58 710 37 700 22 682 C8 665 -1 640 -2 612 L40 612 Z " />
<glyph glyph-name="hungarumlaut" unicode="&#x2dd;" horiz-adv-x="400" d="M192 740 L88 740 L6 596 L71 596 L192 740 Z M351 740 L247 740 L165 596 L230 596 L351 740 Z " />
<glyph glyph-name="uni03A9" unicode="&#x3a9;" horiz-adv-x="717" d="M193 71 L46 71 L46 0 L292 0 L292 52 C219 98 148 213 148 360 C148 513 231 633 360 633 C497 633 567 492 568 364 C568 205 497 100 423 52 L423 0 L669 0 L669 71 L521 71 L521 74 C588 130 655 239 655 380 C655 547 544 705 361 705 C188 705 60 566 60 375 C60 239 124 135 193 74 L193 71 Z " />
<glyph glyph-name="uni03BC" unicode="&#x3bc;" horiz-adv-x="611" d="M89 -209 L169 -209 L169 52 C186 30 215 -11 291 -11 C378 -11 416 44 434 70 L434 0 L508 0 L508 502 L427 502 L427 262 C427 204 422 155 402 121 C374 73 329 58 293 58 C267 58 220 66 192 114 C170 152 169 215 169 260 L169 502 L89 502 L89 -209 Z " />
<glyph glyph-name="pi" unicode="&#x3c0;" horiz-adv-x="576" d="M550 444 L558 517 L156 517 C77 517 33 505 8 489 L20 432 C41 439 70 444 129 444 C125 316 96 109 59 0 L143 0 C180 96 209 320 214 444 L386 444 L386 141 C386 61 393 17 403 0 L486 0 C479 28 472 66 472 147 L472 444 L550 444 Z " />
<glyph glyph-name="endash" unicode="&#x2013;" horiz-adv-x="500" d="M0 231 L500 231 L500 303 L0 303 L0 231 Z " />
<glyph glyph-name="emdash" unicode="&#x2014;" horiz-adv-x="1000" d="M130 231 L870 231 L870 303 L130 303 L130 231 Z " />
<glyph glyph-name="quoteleft" unicode="&#x2018;" horiz-adv-x="278" d="M161 476 L228 722 L161 722 L46 476 L161 476 Z " />
<glyph glyph-name="quoteright" unicode="&#x2019;" horiz-adv-x="278" d="M112 722 L47 476 L115 476 L227 722 L112 722 Z " />
<glyph glyph-name="quotesinglbase" unicode="&#x201a;" horiz-adv-x="278" d="M111 100 L49 -135 L116 -135 L226 100 L111 100 Z " />
<glyph glyph-name="quotedblleft" unicode="&#x201c;" horiz-adv-x="556" d="M202 476 L269 722 L202 722 L87 476 L202 476 Z M389 476 L456 722 L389 722 L274 476 L389 476 Z " />
<glyph glyph-name="quotedblright" unicode="&#x201d;" horiz-adv-x="556" d="M164 722 L97 476 L164 476 L279 722 L164 722 Z M352 722 L285 476 L352 476 L466 722 L352 722 Z " />
<glyph glyph-name="quotedblbase" unicode="&#x201e;" horiz-adv-x="556" d="M164 100 L102 -135 L169 -135 L279 100 L164 100 Z M351 100 L288 -135 L355 -135 L465 100 L351 100 Z " />
<glyph glyph-name="dagger" unicode="&#x2020;" horiz-adv-x="556" d="M480 553 L313 553 L313 722 L234 722 L234 553 L64 553 L64 479 L234 479 L234 0 L313 0 L313 479 L480 479 L480 553 Z " />
<glyph glyph-name="daggerdbl" unicode="&#x2021;" horiz-adv-x="556" d="M235 556 L65 556 L65 481 L235 481 L235 243 L65 243 L65 169 L235 169 L235 0 L315 0 L315 169 L485 169 L485 243 L315 243 L315 481 L485 481 L485 556 L315 556 L315 722 L235 722 L235 556 Z " />
<glyph glyph-name="bullet" unicode="&#x2022;" horiz-adv-x="350" d="M178 542 C79 542 -3 462 -3 361 C-3 262 78 181 178 181 C278 181 358 262 358 361 C358 461 277 542 178 542 L178 542 Z " />
<glyph glyph-name="ellipsis" unicode="&#x2026;" horiz-adv-x="1000" d="M126 0 L237 0 L237 120 L126 120 L126 0 Z M445 0 L556 0 L556 120 L445 120 L445 0 Z M764 0 L875 0 L875 120 L764 120 L764 0 Z " />
<glyph glyph-name="perthousand" unicode="&#x2030;" horiz-adv-x="1000" d="M301 545 C301 644 257 712 156 712 C9 712 9 565 9 534 C9 435 53 370 152 370 C266 370 301 455 301 545 L301 545 Z M155 427 C89 427 82 496 82 538 C82 582 88 656 156 656 C214 656 227 599 227 544 C227 497 218 427 155 427 L155 427 Z M638 163 C638 262 593 330 493 330 C346 330 346 182 346 152 C346 53 390 -12 489 -12 C603 -12 638 73 638 163 L638 163 Z M492 45 C425 45 418 113 418 156 C418 200 425 274 492 274 C550 274 564 217 564 162 C564 115 555 45 492 45 L492 45 Z M985 163 C985 262 941 330 840 330 C693 330 693 182 693 152 C693 53 737 -12 836 -12 C950 -12 985 73 985 163 L985 163 Z M839 45 C773 45 766 113 766 156 C766 200 772 274 840 274 C898 274 911 217 911 162 C911 115 902 45 839 45 L839 45 Z M519 731 L48 -37 L110 -37 L582 731 L519 731 Z " />
<glyph glyph-name="guilsinglleft" unicode="&#x2039;" horiz-adv-x="278" d="M240 53 L141 249 L238 443 L160 443 L49 249 L160 53 L240 53 Z " />
<glyph glyph-name="guilsinglright" unicode="&#x203a;" horiz-adv-x="278" d="M29 443 L127 248 L30 53 L109 53 L220 248 L109 443 L29 443 Z " />
<glyph glyph-name="fraction" unicode="&#x2044;" horiz-adv-x="167" d="M-168 -28 L-103 -28 L326 715 L262 715 L-168 -28 Z " />
<glyph glyph-name="Euro" unicode="&#x20ac;" horiz-adv-x="556" d="M5 234 L83 234 C106 83 187 -13 335 -13 C511 -13 549 122 549 180 L549 183 L458 183 C456 108 406 63 333 63 C242 63 195 138 177 234 L355 234 L375 301 L170 301 C169 317 168 333 168 349 C168 356 169 363 169 370 L387 370 L407 437 L176 437 C195 545 258 625 339 625 C359 625 454 618 458 498 L548 498 C545 635 450 701 339 701 C198 701 106 592 82 437 L25 437 L5 370 L75 370 C75 362 73 353 73 345 C73 330 74 316 75 301 L25 301 L5 234 Z " />
<glyph glyph-name="afii61289" unicode="&#x2113;" horiz-adv-x="491" d="M429 155 C404 110 356 59 295 59 C240 59 191 102 190 203 L190 237 C313 357 394 474 394 598 C394 689 354 763 267 763 C187 763 108 701 108 521 L108 254 C84 230 56 209 28 185 L53 136 C72 151 91 168 109 182 L109 169 C115 74 162 -10 277 -10 C355 -10 422 31 468 119 L429 155 Z M190 526 C190 657 233 699 268 699 C318 699 336 658 336 598 C336 506 273 411 190 320 L190 526 Z " />
<glyph glyph-name="trademark" unicode="&#x2122;" horiz-adv-x="1000" d="M409 361 L455 361 L455 685 L563 361 L608 361 L720 685 L720 361 L766 361 L766 722 L688 722 L589 425 L492 722 L409 722 L409 361 Z M239 361 L239 679 L344 679 L344 722 L93 722 L93 679 L195 679 L195 361 L239 361 Z " />
<glyph glyph-name="Omega" unicode="&#x2126;" horiz-adv-x="717" d="M193 71 L46 71 L46 0 L292 0 L292 52 C219 98 148 213 148 360 C148 513 231 633 360 633 C497 633 567 492 568 364 C568 205 497 100 423 52 L423 0 L669 0 L669 71 L521 71 L521 74 C588 130 655 239 655 380 C655 547 544 705 361 705 C188 705 60 566 60 375 C60 239 124 135 193 74 L193 71 Z " />
<glyph glyph-name="estimated" unicode="&#x212e;" horiz-adv-x="868" d="M833 336 L833 346 C833 545 655 706 433 706 C213 706 34 545 34 346 C34 147 213 -13 433 -13 C562 -13 678 42 749 126 L692 126 C629 54 537 7 434 7 C338 7 252 48 189 113 C184 120 181 127 181 136 L181 332 C181 335 183 336 186 336 L833 336 Z M686 361 C686 359 685 355 682 355 L186 355 C183 355 181 359 181 361 L181 554 C181 564 184 572 190 579 C253 643 339 684 434 684 C529 684 614 644 677 582 C683 576 686 567 686 559 L686 361 Z " />
<glyph glyph-name="partialdiff" unicode="&#x2202;" horiz-adv-x="552" d="M102 658 C129 680 173 706 234 706 C336 706 417 589 417 425 C417 414 417 395 416 384 L415 384 C400 413 344 476 254 476 C140 476 41 377 41 221 C41 110 104 -10 237 -10 C409 -10 501 166 501 401 C501 655 377 777 244 777 C160 777 106 747 74 722 L102 658 Z M244 62 C173 62 127 130 127 220 C127 322 190 406 269 406 C343 406 393 344 407 303 C394 180 336 62 245 62 L244 62 Z " />
<glyph glyph-name="Delta" unicode="&#x2206;" horiz-adv-x="649" d="M30 0 L618 0 L618 57 L377 712 L276 712 L30 56 L30 0 Z M118 70 L263 446 C280 500 312 578 321 614 L324 614 C337 569 371 484 388 431 L525 70 L118 70 Z " />
<glyph glyph-name="product" unicode="&#x220f;" horiz-adv-x="703" d="M676 615 L676 694 L25 694 L25 615 L133 615 L133 -96 L218 -96 L218 615 L484 615 L484 -96 L569 -96 L569 615 L676 615 Z " />
<glyph glyph-name="summation" unicode="&#x2211;" horiz-adv-x="554" d="M532 -96 L532 -15 L132 -15 L132 -12 L383 311 L152 616 L152 620 L516 620 L516 694 L34 694 L34 633 L285 298 L23 -39 L23 -96 L532 -96 Z " />
<glyph glyph-name="minus" unicode="&#x2212;" horiz-adv-x="584" d="M37 212 L547 212 L547 290 L37 290 L37 212 Z " />
<glyph glyph-name="uni2215" unicode="&#x2215;" horiz-adv-x="167" d="M-168 -28 L-103 -28 L326 715 L262 715 L-168 -28 Z " />
<glyph glyph-name="uni2219" unicode="&#x2219;" horiz-adv-x="278" d="M81 231 L192 231 L192 352 L81 352 L81 231 Z " />
<glyph glyph-name="radical" unicode="&#x221a;" horiz-adv-x="575" d="M577 826 L514 826 L332 30 C327 3 321 -26 318 -46 L317 -45 C313 -25 305 3 299 29 L177 388 L33 331 L50 280 L124 309 L281 -146 L355 -146 L577 826 Z " />
<glyph glyph-name="infinity" unicode="&#x221e;" horiz-adv-x="774" d="M724 288 C724 380 663 444 577 444 C492 444 441 382 392 327 C339 390 283 444 208 444 C117 444 50 376 50 283 C50 193 120 126 200 126 C282 126 336 182 388 243 C457 162 508 126 570 126 C649 126 724 188 724 287 L724 288 Z M208 177 C146 177 105 225 104 282 C104 343 140 394 202 394 C272 394 315 336 359 281 C319 237 271 177 209 177 L208 177 Z M571 394 C628 394 670 352 670 283 C670 233 635 177 573 177 C520 177 484 213 419 287 C453 322 504 394 570 394 L571 394 Z " />
<glyph glyph-name="integral" unicode="&#x222b;" horiz-adv-x="364" d="M347 837 C336 843 313 850 291 850 C255 850 218 837 192 810 C152 768 138 706 138 596 C138 436 151 261 151 94 C151 -5 138 -49 119 -74 C107 -89 90 -96 73 -96 C53 -96 37 -88 28 -84 L15 -146 C27 -154 55 -162 82 -162 C123 -162 165 -145 188 -107 C210 -71 229 -10 229 93 C229 259 215 431 215 588 C215 679 223 734 247 763 C261 780 281 787 298 787 C311 787 326 782 334 777 L347 837 Z " />
<glyph glyph-name="approxequal" unicode="&#x2248;" horiz-adv-x="559" d="M480 433 C452 386 426 359 386 359 C351 359 329 375 293 394 C266 409 231 434 183 434 C124 434 74 396 44 338 L78 308 C103 346 130 382 176 382 C210 382 238 366 268 348 C315 321 343 307 384 307 C444 307 486 349 514 403 L480 433 Z M480 259 C452 212 427 186 386 186 C350 186 326 204 293 222 C266 236 232 261 183 261 C124 261 74 223 44 164 L78 135 C103 173 130 209 177 209 C209 209 237 193 268 175 C315 149 343 134 384 134 C444 134 486 176 514 229 L480 259 Z " />
<glyph glyph-name="notequal" unicode="&#x2260;" horiz-adv-x="559" d="M400 503 L357 522 L305 407 L50 407 L50 354 L284 354 L219 210 L50 210 L50 157 L197 157 L152 59 L195 40 L248 157 L508 157 L508 210 L269 210 L335 354 L508 354 L508 407 L356 407 L400 503 Z " />
<glyph glyph-name="lessequal" unicode="&#x2264;" horiz-adv-x="559" d="M506 96 L506 160 L112 348 L112 350 L505 537 L505 601 L56 377 L56 320 L506 96 Z M509 1 L509 56 L51 56 L51 1 L509 1 Z " />
<glyph glyph-name="greaterequal" unicode="&#x2265;" horiz-adv-x="559" d="M57 601 L57 537 L449 349 L449 347 L57 160 L57 96 L507 320 L507 377 L57 601 Z M508 1 L508 56 L51 56 L51 1 L508 1 Z " />
<glyph glyph-name="lozenge" unicode="&#x25ca;" horiz-adv-x="575" d="M521 346 L323 739 L254 739 L53 346 L251 -46 L320 -46 L521 346 Z M444 344 L307 75 C301 63 293 37 289 24 L285 24 C283 37 276 56 268 76 L131 348 L266 614 C275 633 281 652 286 668 L288 668 C292 653 300 631 307 614 L444 344 Z " />
<glyph glyph-name="fi" unicode="&#xfb01;" horiz-adv-x="611" d="M411 618 L523 618 L523 720 L411 720 L411 618 Z M514 0 L514 502 L421 502 L421 0 L514 0 Z M339 727 C319 730 289 734 262 734 C199 734 158 712 136 679 C119 653 115 628 115 559 L115 502 L16 502 L16 434 L115 434 L115 0 L208 0 L208 434 L325 434 L325 502 L208 502 L208 581 C208 616 208 654 284 654 C303 654 323 653 339 652 L339 727 Z " />
<glyph glyph-name="fl" unicode="&#xfb02;" horiz-adv-x="611" d="M419 0 L513 0 L513 721 L419 721 L419 0 Z M339 727 C319 730 289 734 262 734 C199 734 158 712 136 679 C119 653 115 628 115 559 L115 502 L16 502 L16 434 L115 434 L115 0 L208 0 L208 434 L325 434 L325 502 L208 502 L208 581 C208 616 208 654 284 654 C303 654 323 653 339 652 L339 727 Z " />
</font>
</svg>
