<?xml version="1.0" encoding="utf-8"?>
<!-- Generator: Adobe Illustrator 19.1.0, SVG Export Plug-In . SVG Version: 6.00 Build 0)  -->
<svg version="1.1" id="Layer_1" xmlns="http://www.w3.org/2000/svg" xmlns:xlink="http://www.w3.org/1999/xlink" x="0px" y="0px"
	 viewBox="0 0 433.3 86" style="enable-background:new 0 0 433.3 86;" xml:space="preserve">
<style type="text/css">
	.st0{fill:#333333;}
</style>
<g>
	<path class="st0" d="M22.1,23.1v12.5h26.4v15.6H22.1v27.5H4.6V7.5H53v15.6H22.1z"/>
	<path class="st0" d="M94.5,78.8l-3.3-10.6H69.3l-3.5,10.6H47.5L73.4,7.5h13.5l25.9,71.2H94.5z M80.6,34.5l-6.4,19h12.4L80.6,34.5z"
		/>
	<path class="st0" d="M156.2,78.8l-16.4-29.2l-6,6.9v22.3h-17.3V7.5h17.3v25.2l20.6-25.2h21.4l-24.3,28.8l25.1,42.4H156.2z"/>
	<path class="st0" d="M180.3,78.8V7.5h48.4v15.6h-30.9V35h26.4v15.6h-26.4v12.5h30.9v15.6H180.3z"/>
	<path class="st0" d="M256.3,78.8V7.5h17.5v71.2H256.3z"/>
	<path class="st0" d="M325,78.8l-22.8-35.8v35.8h-17.5V7.5H300l22.8,35.8V7.5h17.5v71.2H325z"/>
	<path class="st0" d="M391.5,78.8l-22.8-35.8v35.8h-17.5V7.5h15.3l22.8,35.8V7.5h17.5v71.2H391.5z"/>
</g>
<g>
	<path class="st0" d="M417.9,9.2v6.8H416V9.2h-2.2V7.5h6.3v1.7H417.9z M428.2,16.1v-5l-1.6,3.1h-1.7l-1.6-3.1v5h-1.9V7.5h1.9
		l2.4,4.6l2.4-4.6h1.9v8.5H428.2z"/>
</g>
</svg>
